<?xml version="1.0" encoding="utf-8" ?>
<svg baseProfile="full" height="450.0mm" version="1.1" viewBox="0 0 450.0 450.0" width="450.0mm" xmlns="http://www.w3.org/2000/svg" xmlns:ev="http://www.w3.org/2001/xml-events" xmlns:xlink="http://www.w3.org/1999/xlink"><defs /><rect fill="rgb(0,0,0)" height="100%" width="100%" x="0" y="0" /><g style="text-anchor:middle;fill:rgb(255,255,255);font-family:Arial;font-size:22"><text x="75.0" y="86.0">H</text><text x="108.333333333" y="86.0">E</text><text x="141.666666667" y="86.0">T</text><text x="175.0" y="86.0">M</text><text x="208.333333333" y="86.0">I</text><text x="241.666666667" y="86.0">S</text><text x="275.0" y="86.0">M</text><text x="308.333333333" y="86.0">N</text><text x="341.666666667" y="86.0">U</text><text x="375.0" y="86.0">L</text><text x="75.0" y="123.5">M</text><text x="108.333333333" y="123.5">V</text><text x="141.666666667" y="123.5">I</text><text x="175.0" y="123.5">J</text><text x="208.333333333" y="123.5">F</text><text x="241.666666667" y="123.5">T</text><text x="275.0" y="123.5">I</text><text x="308.333333333" y="123.5">E</text><text x="341.666666667" y="123.5">N</text><text x="375.0" y="123.5">M</text><text x="75.0" y="161.0">K</text><text x="108.333333333" y="161.0">W</text><text x="141.666666667" y="161.0">A</text><text x="175.0" y="161.0">R</text><text x="208.333333333" y="161.0">T</text><text x="241.666666667" y="161.0">M</text><text x="275.0" y="161.0">O</text><text x="308.333333333" y="161.0">V</text><text x="341.666666667" y="161.0">E</text><text x="375.0" y="161.0">R</text><text x="75.0" y="198.5">M</text><text x="108.333333333" y="198.5">V</text><text x="141.666666667" y="198.5">O</text><text x="175.0" y="198.5">O</text><text x="208.333333333" y="198.5">R</text><text x="241.666666667" y="198.5">H</text><text x="275.0" y="198.5">A</text><text x="308.333333333" y="198.5">L</text><text x="341.666666667" y="198.5">F</text><text x="375.0" y="198.5">M</text><text x="75.0" y="236.0">A</text><text x="108.333333333" y="236.0">C</text><text x="141.666666667" y="236.0">H</text><text x="175.0" y="236.0">T</text><text x="208.333333333" y="236.0">W</text><text x="241.666666667" y="236.0">E</text><text x="275.0" y="236.0">E</text><text x="308.333333333" y="236.0">Z</text><text x="341.666666667" y="236.0">E</text><text x="375.0" y="236.0">S</text><text x="75.0" y="273.5">D</text><text x="108.333333333" y="273.5">R</text><text x="141.666666667" y="273.5">I</text><text x="175.0" y="273.5">E</text><text x="208.333333333" y="273.5">L</text><text x="241.666666667" y="273.5">F</text><text x="275.0" y="273.5">T</text><text x="308.333333333" y="273.5">I</text><text x="341.666666667" y="273.5">E</text><text x="375.0" y="273.5">N</text><text x="75.0" y="311.0">M</text><text x="108.333333333" y="311.0">Z</text><text x="141.666666667" y="311.0">E</text><text x="175.0" y="311.0">V</text><text x="208.333333333" y="311.0">E</text><text x="241.666666667" y="311.0">N</text><text x="275.0" y="311.0">E</text><text x="308.333333333" y="311.0">G</text><text x="341.666666667" y="311.0">E</text><text x="375.0" y="311.0">N</text><text x="75.0" y="348.5">V</text><text x="108.333333333" y="348.5">I</text><text x="141.666666667" y="348.5">E</text><text x="175.0" y="348.5">R</text><text x="208.333333333" y="348.5">T</text><text x="241.666666667" y="348.5">W</text><text x="275.0" y="348.5">A</text><text x="308.333333333" y="348.5">A</text><text x="341.666666667" y="348.5">L</text><text x="375.0" y="348.5">F</text><text x="75.0" y="386.0">É</text><text x="108.333333333" y="386.0">É</text><text x="141.666666667" y="386.0">N</text><text x="175.0" y="386.0">V</text><text x="208.333333333" y="386.0">I</text><text x="241.666666667" y="386.0">J</text><text x="275.0" y="386.0">F</text><text x="308.333333333" y="386.0">U</text><text x="341.666666667" y="386.0">U</text><text x="375.0" y="386.0">R</text><circle cx="20.0" cy="20.0" fill="rgb(255,255,255)" r="2.5" /><circle cx="430.0" cy="20.0" fill="rgb(255,255,255)" r="2.5" /><circle cx="20.0" cy="430.0" fill="rgb(255,255,255)" r="2.5" /><circle cx="430.0" cy="430.0" fill="rgb(255,255,255)" r="2.5" /></g></svg>