<?xml version="1.0" encoding="utf-8" ?>
<svg baseProfile="full" height="450.0mm" version="1.1" viewBox="0 0 450.0 450.0" width="450.0mm" xmlns="http://www.w3.org/2000/svg" xmlns:ev="http://www.w3.org/2001/xml-events" xmlns:xlink="http://www.w3.org/1999/xlink"><defs /><rect fill="rgb(255,255,255)" height="100%" width="100%" x="0" y="0" /><text style="text-anchor:middle;fill:rgb(0,255,0);font-family:Arial;font-size: 10" x="225.0" y="20.0">dutch --- front-view --- _bernds_wiring</text><g style="text-anchor:middle;fill:rgb(0,0,0);font-family:Arial;font-size:6"><line stroke="rgb(255,0,0)" x1="430.0" x2="430.0" y1="430.0" y2="20.0" /><line stroke="rgb(255,0,0)" x1="430.0" x2="375.0" y1="20.0" y2="375.0" /><line stroke="rgb(255,0,0)" x1="375.0" x2="375.0" y1="375.0" y2="337.5" /><line stroke="rgb(255,0,0)" x1="375.0" x2="375.0" y1="337.5" y2="300.0" /><line stroke="rgb(255,0,0)" x1="375.0" x2="375.0" y1="300.0" y2="262.5" /><line stroke="rgb(255,0,0)" x1="375.0" x2="375.0" y1="262.5" y2="225.0" /><line stroke="rgb(255,0,0)" x1="375.0" x2="375.0" y1="225.0" y2="187.5" /><line stroke="rgb(255,0,0)" x1="375.0" x2="375.0" y1="187.5" y2="150.0" /><line stroke="rgb(255,0,0)" x1="375.0" x2="375.0" y1="150.0" y2="112.5" /><line stroke="rgb(255,0,0)" x1="375.0" x2="375.0" y1="112.5" y2="75.0" /><line stroke="rgb(255,0,0)" x1="375.0" x2="341.666666667" y1="75.0" y2="75.0" /><line stroke="rgb(255,0,0)" x1="341.666666667" x2="341.666666667" y1="75.0" y2="112.5" /><line stroke="rgb(255,0,0)" x1="341.666666667" x2="341.666666667" y1="112.5" y2="150.0" /><line stroke="rgb(255,0,0)" x1="341.666666667" x2="341.666666667" y1="150.0" y2="187.5" /><line stroke="rgb(255,0,0)" x1="341.666666667" x2="341.666666667" y1="187.5" y2="225.0" /><line stroke="rgb(255,0,0)" x1="341.666666667" x2="341.666666667" y1="225.0" y2="262.5" /><line stroke="rgb(255,0,0)" x1="341.666666667" x2="341.666666667" y1="262.5" y2="300.0" /><line stroke="rgb(255,0,0)" x1="341.666666667" x2="341.666666667" y1="300.0" y2="337.5" /><line stroke="rgb(255,0,0)" x1="341.666666667" x2="341.666666667" y1="337.5" y2="375.0" /><line stroke="rgb(255,0,0)" x1="341.666666667" x2="308.333333333" y1="375.0" y2="375.0" /><line stroke="rgb(255,0,0)" x1="308.333333333" x2="308.333333333" y1="375.0" y2="337.5" /><line stroke="rgb(255,0,0)" x1="308.333333333" x2="308.333333333" y1="337.5" y2="300.0" /><line stroke="rgb(255,0,0)" x1="308.333333333" x2="308.333333333" y1="300.0" y2="262.5" /><line stroke="rgb(255,0,0)" x1="308.333333333" x2="308.333333333" y1="262.5" y2="225.0" /><line stroke="rgb(255,0,0)" x1="308.333333333" x2="308.333333333" y1="225.0" y2="187.5" /><line stroke="rgb(255,0,0)" x1="308.333333333" x2="308.333333333" y1="187.5" y2="150.0" /><line stroke="rgb(255,0,0)" x1="308.333333333" x2="308.333333333" y1="150.0" y2="112.5" /><line stroke="rgb(255,0,0)" x1="308.333333333" x2="308.333333333" y1="112.5" y2="75.0" /><line stroke="rgb(255,0,0)" x1="308.333333333" x2="275.0" y1="75.0" y2="75.0" /><line stroke="rgb(255,0,0)" x1="275.0" x2="275.0" y1="75.0" y2="112.5" /><line stroke="rgb(255,0,0)" x1="275.0" x2="275.0" y1="112.5" y2="150.0" /><line stroke="rgb(255,0,0)" x1="275.0" x2="275.0" y1="150.0" y2="187.5" /><line stroke="rgb(255,0,0)" x1="275.0" x2="275.0" y1="187.5" y2="225.0" /><line stroke="rgb(255,0,0)" x1="275.0" x2="275.0" y1="225.0" y2="262.5" /><line stroke="rgb(255,0,0)" x1="275.0" x2="275.0" y1="262.5" y2="300.0" /><line stroke="rgb(255,0,0)" x1="275.0" x2="275.0" y1="300.0" y2="337.5" /><line stroke="rgb(255,0,0)" x1="275.0" x2="275.0" y1="337.5" y2="375.0" /><line stroke="rgb(255,0,0)" x1="275.0" x2="241.666666667" y1="375.0" y2="375.0" /><line stroke="rgb(255,0,0)" x1="241.666666667" x2="241.666666667" y1="375.0" y2="337.5" /><line stroke="rgb(255,0,0)" x1="241.666666667" x2="241.666666667" y1="337.5" y2="300.0" /><line stroke="rgb(255,0,0)" x1="241.666666667" x2="241.666666667" y1="300.0" y2="262.5" /><line stroke="rgb(255,0,0)" x1="241.666666667" x2="241.666666667" y1="262.5" y2="225.0" /><line stroke="rgb(255,0,0)" x1="241.666666667" x2="241.666666667" y1="225.0" y2="187.5" /><line stroke="rgb(255,0,0)" x1="241.666666667" x2="241.666666667" y1="187.5" y2="150.0" /><line stroke="rgb(255,0,0)" x1="241.666666667" x2="241.666666667" y1="150.0" y2="112.5" /><line stroke="rgb(255,0,0)" x1="241.666666667" x2="241.666666667" y1="112.5" y2="75.0" /><line stroke="rgb(255,0,0)" x1="241.666666667" x2="208.333333333" y1="75.0" y2="75.0" /><line stroke="rgb(255,0,0)" x1="208.333333333" x2="208.333333333" y1="75.0" y2="112.5" /><line stroke="rgb(255,0,0)" x1="208.333333333" x2="208.333333333" y1="112.5" y2="150.0" /><line stroke="rgb(255,0,0)" x1="208.333333333" x2="208.333333333" y1="150.0" y2="187.5" /><line stroke="rgb(255,0,0)" x1="208.333333333" x2="208.333333333" y1="187.5" y2="225.0" /><line stroke="rgb(255,0,0)" x1="208.333333333" x2="208.333333333" y1="225.0" y2="262.5" /><line stroke="rgb(255,0,0)" x1="208.333333333" x2="208.333333333" y1="262.5" y2="300.0" /><line stroke="rgb(255,0,0)" x1="208.333333333" x2="208.333333333" y1="300.0" y2="337.5" /><line stroke="rgb(255,0,0)" x1="208.333333333" x2="208.333333333" y1="337.5" y2="375.0" /><line stroke="rgb(255,0,0)" x1="208.333333333" x2="175.0" y1="375.0" y2="375.0" /><line stroke="rgb(255,0,0)" x1="175.0" x2="175.0" y1="375.0" y2="337.5" /><line stroke="rgb(255,0,0)" x1="175.0" x2="175.0" y1="337.5" y2="300.0" /><line stroke="rgb(255,0,0)" x1="175.0" x2="175.0" y1="300.0" y2="262.5" /><line stroke="rgb(255,0,0)" x1="175.0" x2="175.0" y1="262.5" y2="225.0" /><line stroke="rgb(255,0,0)" x1="175.0" x2="175.0" y1="225.0" y2="187.5" /><line stroke="rgb(255,0,0)" x1="175.0" x2="175.0" y1="187.5" y2="150.0" /><line stroke="rgb(255,0,0)" x1="175.0" x2="175.0" y1="150.0" y2="112.5" /><line stroke="rgb(255,0,0)" x1="175.0" x2="175.0" y1="112.5" y2="75.0" /><line stroke="rgb(255,0,0)" x1="175.0" x2="141.666666667" y1="75.0" y2="75.0" /><line stroke="rgb(255,0,0)" x1="141.666666667" x2="141.666666667" y1="75.0" y2="112.5" /><line stroke="rgb(255,0,0)" x1="141.666666667" x2="141.666666667" y1="112.5" y2="150.0" /><line stroke="rgb(255,0,0)" x1="141.666666667" x2="141.666666667" y1="150.0" y2="187.5" /><line stroke="rgb(255,0,0)" x1="141.666666667" x2="141.666666667" y1="187.5" y2="225.0" /><line stroke="rgb(255,0,0)" x1="141.666666667" x2="141.666666667" y1="225.0" y2="262.5" /><line stroke="rgb(255,0,0)" x1="141.666666667" x2="141.666666667" y1="262.5" y2="300.0" /><line stroke="rgb(255,0,0)" x1="141.666666667" x2="141.666666667" y1="300.0" y2="337.5" /><line stroke="rgb(255,0,0)" x1="141.666666667" x2="141.666666667" y1="337.5" y2="375.0" /><line stroke="rgb(255,0,0)" x1="141.666666667" x2="108.333333333" y1="375.0" y2="375.0" /><line stroke="rgb(255,0,0)" x1="108.333333333" x2="108.333333333" y1="375.0" y2="337.5" /><line stroke="rgb(255,0,0)" x1="108.333333333" x2="108.333333333" y1="337.5" y2="300.0" /><line stroke="rgb(255,0,0)" x1="108.333333333" x2="108.333333333" y1="300.0" y2="262.5" /><line stroke="rgb(255,0,0)" x1="108.333333333" x2="108.333333333" y1="262.5" y2="225.0" /><line stroke="rgb(255,0,0)" x1="108.333333333" x2="108.333333333" y1="225.0" y2="187.5" /><line stroke="rgb(255,0,0)" x1="108.333333333" x2="108.333333333" y1="187.5" y2="150.0" /><line stroke="rgb(255,0,0)" x1="108.333333333" x2="108.333333333" y1="150.0" y2="112.5" /><line stroke="rgb(255,0,0)" x1="108.333333333" x2="108.333333333" y1="112.5" y2="75.0" /><line stroke="rgb(255,0,0)" x1="108.333333333" x2="75.0" y1="75.0" y2="75.0" /><line stroke="rgb(255,0,0)" x1="75.0" x2="75.0" y1="75.0" y2="112.5" /><line stroke="rgb(255,0,0)" x1="75.0" x2="75.0" y1="112.5" y2="150.0" /><line stroke="rgb(255,0,0)" x1="75.0" x2="75.0" y1="150.0" y2="187.5" /><line stroke="rgb(255,0,0)" x1="75.0" x2="75.0" y1="187.5" y2="225.0" /><line stroke="rgb(255,0,0)" x1="75.0" x2="75.0" y1="225.0" y2="262.5" /><line stroke="rgb(255,0,0)" x1="75.0" x2="75.0" y1="262.5" y2="300.0" /><line stroke="rgb(255,0,0)" x1="75.0" x2="75.0" y1="300.0" y2="337.5" /><line stroke="rgb(255,0,0)" x1="75.0" x2="75.0" y1="337.5" y2="375.0" /><line stroke="rgb(255,0,0)" x1="75.0" x2="20.0" y1="375.0" y2="430.0" /><line stroke="rgb(255,0,0)" x1="20.0" x2="20.0" y1="430.0" y2="20.0" /><text x="68.3333333333" y="67.5">H</text><text x="81.6666666667" y="67.5">0</text><text x="68.3333333333" y="82.5">(0,0)</text><line stroke="rgb(0,0,0)" x1="75.0" x2="75.0" y1="67.5" y2="82.5" /><line stroke="rgb(0,0,0)" x1="68.3333333333" x2="81.6666666667" y1="75.0" y2="75.0" /><text x="101.666666667" y="67.5">E</text><text x="115.0" y="67.5">1</text><text x="101.666666667" y="82.5">(1,0)</text><line stroke="rgb(0,0,0)" x1="108.333333333" x2="108.333333333" y1="67.5" y2="82.5" /><line stroke="rgb(0,0,0)" x1="101.666666667" x2="115.0" y1="75.0" y2="75.0" /><text x="135.0" y="67.5">T</text><text x="148.333333333" y="67.5">2</text><text x="135.0" y="82.5">(2,0)</text><line stroke="rgb(0,0,0)" x1="141.666666667" x2="141.666666667" y1="67.5" y2="82.5" /><line stroke="rgb(0,0,0)" x1="135.0" x2="148.333333333" y1="75.0" y2="75.0" /><text x="168.333333333" y="67.5">M</text><text x="181.666666667" y="67.5">3</text><text x="168.333333333" y="82.5">(3,0)</text><line stroke="rgb(0,0,0)" x1="175.0" x2="175.0" y1="67.5" y2="82.5" /><line stroke="rgb(0,0,0)" x1="168.333333333" x2="181.666666667" y1="75.0" y2="75.0" /><text x="201.666666667" y="67.5">I</text><text x="215.0" y="67.5">4</text><text x="201.666666667" y="82.5">(4,0)</text><line stroke="rgb(0,0,0)" x1="208.333333333" x2="208.333333333" y1="67.5" y2="82.5" /><line stroke="rgb(0,0,0)" x1="201.666666667" x2="215.0" y1="75.0" y2="75.0" /><text x="235.0" y="67.5">S</text><text x="248.333333333" y="67.5">5</text><text x="235.0" y="82.5">(5,0)</text><line stroke="rgb(0,0,0)" x1="241.666666667" x2="241.666666667" y1="67.5" y2="82.5" /><line stroke="rgb(0,0,0)" x1="235.0" x2="248.333333333" y1="75.0" y2="75.0" /><text x="268.333333333" y="67.5">M</text><text x="281.666666667" y="67.5">6</text><text x="268.333333333" y="82.5">(6,0)</text><line stroke="rgb(0,0,0)" x1="275.0" x2="275.0" y1="67.5" y2="82.5" /><line stroke="rgb(0,0,0)" x1="268.333333333" x2="281.666666667" y1="75.0" y2="75.0" /><text x="301.666666667" y="67.5">N</text><text x="315.0" y="67.5">7</text><text x="301.666666667" y="82.5">(7,0)</text><line stroke="rgb(0,0,0)" x1="308.333333333" x2="308.333333333" y1="67.5" y2="82.5" /><line stroke="rgb(0,0,0)" x1="301.666666667" x2="315.0" y1="75.0" y2="75.0" /><text x="335.0" y="67.5">U</text><text x="348.333333333" y="67.5">8</text><text x="335.0" y="82.5">(8,0)</text><line stroke="rgb(0,0,0)" x1="341.666666667" x2="341.666666667" y1="67.5" y2="82.5" /><line stroke="rgb(0,0,0)" x1="335.0" x2="348.333333333" y1="75.0" y2="75.0" /><text x="368.333333333" y="67.5">L</text><text x="381.666666667" y="67.5">9</text><text x="368.333333333" y="82.5">(9,0)</text><line stroke="rgb(0,0,0)" x1="375.0" x2="375.0" y1="67.5" y2="82.5" /><line stroke="rgb(0,0,0)" x1="368.333333333" x2="381.666666667" y1="75.0" y2="75.0" /><text x="68.3333333333" y="105.0">M</text><text x="81.6666666667" y="105.0">10</text><text x="68.3333333333" y="120.0">(0,1)</text><line stroke="rgb(0,0,0)" x1="75.0" x2="75.0" y1="105.0" y2="120.0" /><line stroke="rgb(0,0,0)" x1="68.3333333333" x2="81.6666666667" y1="112.5" y2="112.5" /><text x="101.666666667" y="105.0">V</text><text x="115.0" y="105.0">11</text><text x="101.666666667" y="120.0">(1,1)</text><line stroke="rgb(0,0,0)" x1="108.333333333" x2="108.333333333" y1="105.0" y2="120.0" /><line stroke="rgb(0,0,0)" x1="101.666666667" x2="115.0" y1="112.5" y2="112.5" /><text x="135.0" y="105.0">I</text><text x="148.333333333" y="105.0">12</text><text x="135.0" y="120.0">(2,1)</text><line stroke="rgb(0,0,0)" x1="141.666666667" x2="141.666666667" y1="105.0" y2="120.0" /><line stroke="rgb(0,0,0)" x1="135.0" x2="148.333333333" y1="112.5" y2="112.5" /><text x="168.333333333" y="105.0">J</text><text x="181.666666667" y="105.0">13</text><text x="168.333333333" y="120.0">(3,1)</text><line stroke="rgb(0,0,0)" x1="175.0" x2="175.0" y1="105.0" y2="120.0" /><line stroke="rgb(0,0,0)" x1="168.333333333" x2="181.666666667" y1="112.5" y2="112.5" /><text x="201.666666667" y="105.0">F</text><text x="215.0" y="105.0">14</text><text x="201.666666667" y="120.0">(4,1)</text><line stroke="rgb(0,0,0)" x1="208.333333333" x2="208.333333333" y1="105.0" y2="120.0" /><line stroke="rgb(0,0,0)" x1="201.666666667" x2="215.0" y1="112.5" y2="112.5" /><text x="235.0" y="105.0">T</text><text x="248.333333333" y="105.0">15</text><text x="235.0" y="120.0">(5,1)</text><line stroke="rgb(0,0,0)" x1="241.666666667" x2="241.666666667" y1="105.0" y2="120.0" /><line stroke="rgb(0,0,0)" x1="235.0" x2="248.333333333" y1="112.5" y2="112.5" /><text x="268.333333333" y="105.0">I</text><text x="281.666666667" y="105.0">16</text><text x="268.333333333" y="120.0">(6,1)</text><line stroke="rgb(0,0,0)" x1="275.0" x2="275.0" y1="105.0" y2="120.0" /><line stroke="rgb(0,0,0)" x1="268.333333333" x2="281.666666667" y1="112.5" y2="112.5" /><text x="301.666666667" y="105.0">E</text><text x="315.0" y="105.0">17</text><text x="301.666666667" y="120.0">(7,1)</text><line stroke="rgb(0,0,0)" x1="308.333333333" x2="308.333333333" y1="105.0" y2="120.0" /><line stroke="rgb(0,0,0)" x1="301.666666667" x2="315.0" y1="112.5" y2="112.5" /><text x="335.0" y="105.0">N</text><text x="348.333333333" y="105.0">18</text><text x="335.0" y="120.0">(8,1)</text><line stroke="rgb(0,0,0)" x1="341.666666667" x2="341.666666667" y1="105.0" y2="120.0" /><line stroke="rgb(0,0,0)" x1="335.0" x2="348.333333333" y1="112.5" y2="112.5" /><text x="368.333333333" y="105.0">M</text><text x="381.666666667" y="105.0">19</text><text x="368.333333333" y="120.0">(9,1)</text><line stroke="rgb(0,0,0)" x1="375.0" x2="375.0" y1="105.0" y2="120.0" /><line stroke="rgb(0,0,0)" x1="368.333333333" x2="381.666666667" y1="112.5" y2="112.5" /><text x="68.3333333333" y="142.5">K</text><text x="81.6666666667" y="142.5">20</text><text x="68.3333333333" y="157.5">(0,2)</text><line stroke="rgb(0,0,0)" x1="75.0" x2="75.0" y1="142.5" y2="157.5" /><line stroke="rgb(0,0,0)" x1="68.3333333333" x2="81.6666666667" y1="150.0" y2="150.0" /><text x="101.666666667" y="142.5">W</text><text x="115.0" y="142.5">21</text><text x="101.666666667" y="157.5">(1,2)</text><line stroke="rgb(0,0,0)" x1="108.333333333" x2="108.333333333" y1="142.5" y2="157.5" /><line stroke="rgb(0,0,0)" x1="101.666666667" x2="115.0" y1="150.0" y2="150.0" /><text x="135.0" y="142.5">A</text><text x="148.333333333" y="142.5">22</text><text x="135.0" y="157.5">(2,2)</text><line stroke="rgb(0,0,0)" x1="141.666666667" x2="141.666666667" y1="142.5" y2="157.5" /><line stroke="rgb(0,0,0)" x1="135.0" x2="148.333333333" y1="150.0" y2="150.0" /><text x="168.333333333" y="142.5">R</text><text x="181.666666667" y="142.5">23</text><text x="168.333333333" y="157.5">(3,2)</text><line stroke="rgb(0,0,0)" x1="175.0" x2="175.0" y1="142.5" y2="157.5" /><line stroke="rgb(0,0,0)" x1="168.333333333" x2="181.666666667" y1="150.0" y2="150.0" /><text x="201.666666667" y="142.5">T</text><text x="215.0" y="142.5">24</text><text x="201.666666667" y="157.5">(4,2)</text><line stroke="rgb(0,0,0)" x1="208.333333333" x2="208.333333333" y1="142.5" y2="157.5" /><line stroke="rgb(0,0,0)" x1="201.666666667" x2="215.0" y1="150.0" y2="150.0" /><text x="235.0" y="142.5">M</text><text x="248.333333333" y="142.5">25</text><text x="235.0" y="157.5">(5,2)</text><line stroke="rgb(0,0,0)" x1="241.666666667" x2="241.666666667" y1="142.5" y2="157.5" /><line stroke="rgb(0,0,0)" x1="235.0" x2="248.333333333" y1="150.0" y2="150.0" /><text x="268.333333333" y="142.5">O</text><text x="281.666666667" y="142.5">26</text><text x="268.333333333" y="157.5">(6,2)</text><line stroke="rgb(0,0,0)" x1="275.0" x2="275.0" y1="142.5" y2="157.5" /><line stroke="rgb(0,0,0)" x1="268.333333333" x2="281.666666667" y1="150.0" y2="150.0" /><text x="301.666666667" y="142.5">V</text><text x="315.0" y="142.5">27</text><text x="301.666666667" y="157.5">(7,2)</text><line stroke="rgb(0,0,0)" x1="308.333333333" x2="308.333333333" y1="142.5" y2="157.5" /><line stroke="rgb(0,0,0)" x1="301.666666667" x2="315.0" y1="150.0" y2="150.0" /><text x="335.0" y="142.5">E</text><text x="348.333333333" y="142.5">28</text><text x="335.0" y="157.5">(8,2)</text><line stroke="rgb(0,0,0)" x1="341.666666667" x2="341.666666667" y1="142.5" y2="157.5" /><line stroke="rgb(0,0,0)" x1="335.0" x2="348.333333333" y1="150.0" y2="150.0" /><text x="368.333333333" y="142.5">R</text><text x="381.666666667" y="142.5">29</text><text x="368.333333333" y="157.5">(9,2)</text><line stroke="rgb(0,0,0)" x1="375.0" x2="375.0" y1="142.5" y2="157.5" /><line stroke="rgb(0,0,0)" x1="368.333333333" x2="381.666666667" y1="150.0" y2="150.0" /><text x="68.3333333333" y="180.0">M</text><text x="81.6666666667" y="180.0">30</text><text x="68.3333333333" y="195.0">(0,3)</text><line stroke="rgb(0,0,0)" x1="75.0" x2="75.0" y1="180.0" y2="195.0" /><line stroke="rgb(0,0,0)" x1="68.3333333333" x2="81.6666666667" y1="187.5" y2="187.5" /><text x="101.666666667" y="180.0">V</text><text x="115.0" y="180.0">31</text><text x="101.666666667" y="195.0">(1,3)</text><line stroke="rgb(0,0,0)" x1="108.333333333" x2="108.333333333" y1="180.0" y2="195.0" /><line stroke="rgb(0,0,0)" x1="101.666666667" x2="115.0" y1="187.5" y2="187.5" /><text x="135.0" y="180.0">O</text><text x="148.333333333" y="180.0">32</text><text x="135.0" y="195.0">(2,3)</text><line stroke="rgb(0,0,0)" x1="141.666666667" x2="141.666666667" y1="180.0" y2="195.0" /><line stroke="rgb(0,0,0)" x1="135.0" x2="148.333333333" y1="187.5" y2="187.5" /><text x="168.333333333" y="180.0">O</text><text x="181.666666667" y="180.0">33</text><text x="168.333333333" y="195.0">(3,3)</text><line stroke="rgb(0,0,0)" x1="175.0" x2="175.0" y1="180.0" y2="195.0" /><line stroke="rgb(0,0,0)" x1="168.333333333" x2="181.666666667" y1="187.5" y2="187.5" /><text x="201.666666667" y="180.0">R</text><text x="215.0" y="180.0">34</text><text x="201.666666667" y="195.0">(4,3)</text><line stroke="rgb(0,0,0)" x1="208.333333333" x2="208.333333333" y1="180.0" y2="195.0" /><line stroke="rgb(0,0,0)" x1="201.666666667" x2="215.0" y1="187.5" y2="187.5" /><text x="235.0" y="180.0">H</text><text x="248.333333333" y="180.0">35</text><text x="235.0" y="195.0">(5,3)</text><line stroke="rgb(0,0,0)" x1="241.666666667" x2="241.666666667" y1="180.0" y2="195.0" /><line stroke="rgb(0,0,0)" x1="235.0" x2="248.333333333" y1="187.5" y2="187.5" /><text x="268.333333333" y="180.0">A</text><text x="281.666666667" y="180.0">36</text><text x="268.333333333" y="195.0">(6,3)</text><line stroke="rgb(0,0,0)" x1="275.0" x2="275.0" y1="180.0" y2="195.0" /><line stroke="rgb(0,0,0)" x1="268.333333333" x2="281.666666667" y1="187.5" y2="187.5" /><text x="301.666666667" y="180.0">L</text><text x="315.0" y="180.0">37</text><text x="301.666666667" y="195.0">(7,3)</text><line stroke="rgb(0,0,0)" x1="308.333333333" x2="308.333333333" y1="180.0" y2="195.0" /><line stroke="rgb(0,0,0)" x1="301.666666667" x2="315.0" y1="187.5" y2="187.5" /><text x="335.0" y="180.0">F</text><text x="348.333333333" y="180.0">38</text><text x="335.0" y="195.0">(8,3)</text><line stroke="rgb(0,0,0)" x1="341.666666667" x2="341.666666667" y1="180.0" y2="195.0" /><line stroke="rgb(0,0,0)" x1="335.0" x2="348.333333333" y1="187.5" y2="187.5" /><text x="368.333333333" y="180.0">M</text><text x="381.666666667" y="180.0">39</text><text x="368.333333333" y="195.0">(9,3)</text><line stroke="rgb(0,0,0)" x1="375.0" x2="375.0" y1="180.0" y2="195.0" /><line stroke="rgb(0,0,0)" x1="368.333333333" x2="381.666666667" y1="187.5" y2="187.5" /><text x="68.3333333333" y="217.5">A</text><text x="81.6666666667" y="217.5">40</text><text x="68.3333333333" y="232.5">(0,4)</text><line stroke="rgb(0,0,0)" x1="75.0" x2="75.0" y1="217.5" y2="232.5" /><line stroke="rgb(0,0,0)" x1="68.3333333333" x2="81.6666666667" y1="225.0" y2="225.0" /><text x="101.666666667" y="217.5">C</text><text x="115.0" y="217.5">41</text><text x="101.666666667" y="232.5">(1,4)</text><line stroke="rgb(0,0,0)" x1="108.333333333" x2="108.333333333" y1="217.5" y2="232.5" /><line stroke="rgb(0,0,0)" x1="101.666666667" x2="115.0" y1="225.0" y2="225.0" /><text x="135.0" y="217.5">H</text><text x="148.333333333" y="217.5">42</text><text x="135.0" y="232.5">(2,4)</text><line stroke="rgb(0,0,0)" x1="141.666666667" x2="141.666666667" y1="217.5" y2="232.5" /><line stroke="rgb(0,0,0)" x1="135.0" x2="148.333333333" y1="225.0" y2="225.0" /><text x="168.333333333" y="217.5">T</text><text x="181.666666667" y="217.5">43</text><text x="168.333333333" y="232.5">(3,4)</text><line stroke="rgb(0,0,0)" x1="175.0" x2="175.0" y1="217.5" y2="232.5" /><line stroke="rgb(0,0,0)" x1="168.333333333" x2="181.666666667" y1="225.0" y2="225.0" /><text x="201.666666667" y="217.5">W</text><text x="215.0" y="217.5">44</text><text x="201.666666667" y="232.5">(4,4)</text><line stroke="rgb(0,0,0)" x1="208.333333333" x2="208.333333333" y1="217.5" y2="232.5" /><line stroke="rgb(0,0,0)" x1="201.666666667" x2="215.0" y1="225.0" y2="225.0" /><text x="235.0" y="217.5">E</text><text x="248.333333333" y="217.5">45</text><text x="235.0" y="232.5">(5,4)</text><line stroke="rgb(0,0,0)" x1="241.666666667" x2="241.666666667" y1="217.5" y2="232.5" /><line stroke="rgb(0,0,0)" x1="235.0" x2="248.333333333" y1="225.0" y2="225.0" /><text x="268.333333333" y="217.5">E</text><text x="281.666666667" y="217.5">46</text><text x="268.333333333" y="232.5">(6,4)</text><line stroke="rgb(0,0,0)" x1="275.0" x2="275.0" y1="217.5" y2="232.5" /><line stroke="rgb(0,0,0)" x1="268.333333333" x2="281.666666667" y1="225.0" y2="225.0" /><text x="301.666666667" y="217.5">Z</text><text x="315.0" y="217.5">47</text><text x="301.666666667" y="232.5">(7,4)</text><line stroke="rgb(0,0,0)" x1="308.333333333" x2="308.333333333" y1="217.5" y2="232.5" /><line stroke="rgb(0,0,0)" x1="301.666666667" x2="315.0" y1="225.0" y2="225.0" /><text x="335.0" y="217.5">E</text><text x="348.333333333" y="217.5">48</text><text x="335.0" y="232.5">(8,4)</text><line stroke="rgb(0,0,0)" x1="341.666666667" x2="341.666666667" y1="217.5" y2="232.5" /><line stroke="rgb(0,0,0)" x1="335.0" x2="348.333333333" y1="225.0" y2="225.0" /><text x="368.333333333" y="217.5">S</text><text x="381.666666667" y="217.5">49</text><text x="368.333333333" y="232.5">(9,4)</text><line stroke="rgb(0,0,0)" x1="375.0" x2="375.0" y1="217.5" y2="232.5" /><line stroke="rgb(0,0,0)" x1="368.333333333" x2="381.666666667" y1="225.0" y2="225.0" /><text x="68.3333333333" y="255.0">D</text><text x="81.6666666667" y="255.0">50</text><text x="68.3333333333" y="270.0">(0,5)</text><line stroke="rgb(0,0,0)" x1="75.0" x2="75.0" y1="255.0" y2="270.0" /><line stroke="rgb(0,0,0)" x1="68.3333333333" x2="81.6666666667" y1="262.5" y2="262.5" /><text x="101.666666667" y="255.0">R</text><text x="115.0" y="255.0">51</text><text x="101.666666667" y="270.0">(1,5)</text><line stroke="rgb(0,0,0)" x1="108.333333333" x2="108.333333333" y1="255.0" y2="270.0" /><line stroke="rgb(0,0,0)" x1="101.666666667" x2="115.0" y1="262.5" y2="262.5" /><text x="135.0" y="255.0">I</text><text x="148.333333333" y="255.0">52</text><text x="135.0" y="270.0">(2,5)</text><line stroke="rgb(0,0,0)" x1="141.666666667" x2="141.666666667" y1="255.0" y2="270.0" /><line stroke="rgb(0,0,0)" x1="135.0" x2="148.333333333" y1="262.5" y2="262.5" /><text x="168.333333333" y="255.0">E</text><text x="181.666666667" y="255.0">53</text><text x="168.333333333" y="270.0">(3,5)</text><line stroke="rgb(0,0,0)" x1="175.0" x2="175.0" y1="255.0" y2="270.0" /><line stroke="rgb(0,0,0)" x1="168.333333333" x2="181.666666667" y1="262.5" y2="262.5" /><text x="201.666666667" y="255.0">L</text><text x="215.0" y="255.0">54</text><text x="201.666666667" y="270.0">(4,5)</text><line stroke="rgb(0,0,0)" x1="208.333333333" x2="208.333333333" y1="255.0" y2="270.0" /><line stroke="rgb(0,0,0)" x1="201.666666667" x2="215.0" y1="262.5" y2="262.5" /><text x="235.0" y="255.0">F</text><text x="248.333333333" y="255.0">55</text><text x="235.0" y="270.0">(5,5)</text><line stroke="rgb(0,0,0)" x1="241.666666667" x2="241.666666667" y1="255.0" y2="270.0" /><line stroke="rgb(0,0,0)" x1="235.0" x2="248.333333333" y1="262.5" y2="262.5" /><text x="268.333333333" y="255.0">T</text><text x="281.666666667" y="255.0">56</text><text x="268.333333333" y="270.0">(6,5)</text><line stroke="rgb(0,0,0)" x1="275.0" x2="275.0" y1="255.0" y2="270.0" /><line stroke="rgb(0,0,0)" x1="268.333333333" x2="281.666666667" y1="262.5" y2="262.5" /><text x="301.666666667" y="255.0">I</text><text x="315.0" y="255.0">57</text><text x="301.666666667" y="270.0">(7,5)</text><line stroke="rgb(0,0,0)" x1="308.333333333" x2="308.333333333" y1="255.0" y2="270.0" /><line stroke="rgb(0,0,0)" x1="301.666666667" x2="315.0" y1="262.5" y2="262.5" /><text x="335.0" y="255.0">E</text><text x="348.333333333" y="255.0">58</text><text x="335.0" y="270.0">(8,5)</text><line stroke="rgb(0,0,0)" x1="341.666666667" x2="341.666666667" y1="255.0" y2="270.0" /><line stroke="rgb(0,0,0)" x1="335.0" x2="348.333333333" y1="262.5" y2="262.5" /><text x="368.333333333" y="255.0">N</text><text x="381.666666667" y="255.0">59</text><text x="368.333333333" y="270.0">(9,5)</text><line stroke="rgb(0,0,0)" x1="375.0" x2="375.0" y1="255.0" y2="270.0" /><line stroke="rgb(0,0,0)" x1="368.333333333" x2="381.666666667" y1="262.5" y2="262.5" /><text x="68.3333333333" y="292.5">M</text><text x="81.6666666667" y="292.5">60</text><text x="68.3333333333" y="307.5">(0,6)</text><line stroke="rgb(0,0,0)" x1="75.0" x2="75.0" y1="292.5" y2="307.5" /><line stroke="rgb(0,0,0)" x1="68.3333333333" x2="81.6666666667" y1="300.0" y2="300.0" /><text x="101.666666667" y="292.5">Z</text><text x="115.0" y="292.5">61</text><text x="101.666666667" y="307.5">(1,6)</text><line stroke="rgb(0,0,0)" x1="108.333333333" x2="108.333333333" y1="292.5" y2="307.5" /><line stroke="rgb(0,0,0)" x1="101.666666667" x2="115.0" y1="300.0" y2="300.0" /><text x="135.0" y="292.5">E</text><text x="148.333333333" y="292.5">62</text><text x="135.0" y="307.5">(2,6)</text><line stroke="rgb(0,0,0)" x1="141.666666667" x2="141.666666667" y1="292.5" y2="307.5" /><line stroke="rgb(0,0,0)" x1="135.0" x2="148.333333333" y1="300.0" y2="300.0" /><text x="168.333333333" y="292.5">V</text><text x="181.666666667" y="292.5">63</text><text x="168.333333333" y="307.5">(3,6)</text><line stroke="rgb(0,0,0)" x1="175.0" x2="175.0" y1="292.5" y2="307.5" /><line stroke="rgb(0,0,0)" x1="168.333333333" x2="181.666666667" y1="300.0" y2="300.0" /><text x="201.666666667" y="292.5">E</text><text x="215.0" y="292.5">64</text><text x="201.666666667" y="307.5">(4,6)</text><line stroke="rgb(0,0,0)" x1="208.333333333" x2="208.333333333" y1="292.5" y2="307.5" /><line stroke="rgb(0,0,0)" x1="201.666666667" x2="215.0" y1="300.0" y2="300.0" /><text x="235.0" y="292.5">N</text><text x="248.333333333" y="292.5">65</text><text x="235.0" y="307.5">(5,6)</text><line stroke="rgb(0,0,0)" x1="241.666666667" x2="241.666666667" y1="292.5" y2="307.5" /><line stroke="rgb(0,0,0)" x1="235.0" x2="248.333333333" y1="300.0" y2="300.0" /><text x="268.333333333" y="292.5">E</text><text x="281.666666667" y="292.5">66</text><text x="268.333333333" y="307.5">(6,6)</text><line stroke="rgb(0,0,0)" x1="275.0" x2="275.0" y1="292.5" y2="307.5" /><line stroke="rgb(0,0,0)" x1="268.333333333" x2="281.666666667" y1="300.0" y2="300.0" /><text x="301.666666667" y="292.5">G</text><text x="315.0" y="292.5">67</text><text x="301.666666667" y="307.5">(7,6)</text><line stroke="rgb(0,0,0)" x1="308.333333333" x2="308.333333333" y1="292.5" y2="307.5" /><line stroke="rgb(0,0,0)" x1="301.666666667" x2="315.0" y1="300.0" y2="300.0" /><text x="335.0" y="292.5">E</text><text x="348.333333333" y="292.5">68</text><text x="335.0" y="307.5">(8,6)</text><line stroke="rgb(0,0,0)" x1="341.666666667" x2="341.666666667" y1="292.5" y2="307.5" /><line stroke="rgb(0,0,0)" x1="335.0" x2="348.333333333" y1="300.0" y2="300.0" /><text x="368.333333333" y="292.5">N</text><text x="381.666666667" y="292.5">69</text><text x="368.333333333" y="307.5">(9,6)</text><line stroke="rgb(0,0,0)" x1="375.0" x2="375.0" y1="292.5" y2="307.5" /><line stroke="rgb(0,0,0)" x1="368.333333333" x2="381.666666667" y1="300.0" y2="300.0" /><text x="68.3333333333" y="330.0">V</text><text x="81.6666666667" y="330.0">70</text><text x="68.3333333333" y="345.0">(0,7)</text><line stroke="rgb(0,0,0)" x1="75.0" x2="75.0" y1="330.0" y2="345.0" /><line stroke="rgb(0,0,0)" x1="68.3333333333" x2="81.6666666667" y1="337.5" y2="337.5" /><text x="101.666666667" y="330.0">I</text><text x="115.0" y="330.0">71</text><text x="101.666666667" y="345.0">(1,7)</text><line stroke="rgb(0,0,0)" x1="108.333333333" x2="108.333333333" y1="330.0" y2="345.0" /><line stroke="rgb(0,0,0)" x1="101.666666667" x2="115.0" y1="337.5" y2="337.5" /><text x="135.0" y="330.0">E</text><text x="148.333333333" y="330.0">72</text><text x="135.0" y="345.0">(2,7)</text><line stroke="rgb(0,0,0)" x1="141.666666667" x2="141.666666667" y1="330.0" y2="345.0" /><line stroke="rgb(0,0,0)" x1="135.0" x2="148.333333333" y1="337.5" y2="337.5" /><text x="168.333333333" y="330.0">R</text><text x="181.666666667" y="330.0">73</text><text x="168.333333333" y="345.0">(3,7)</text><line stroke="rgb(0,0,0)" x1="175.0" x2="175.0" y1="330.0" y2="345.0" /><line stroke="rgb(0,0,0)" x1="168.333333333" x2="181.666666667" y1="337.5" y2="337.5" /><text x="201.666666667" y="330.0">T</text><text x="215.0" y="330.0">74</text><text x="201.666666667" y="345.0">(4,7)</text><line stroke="rgb(0,0,0)" x1="208.333333333" x2="208.333333333" y1="330.0" y2="345.0" /><line stroke="rgb(0,0,0)" x1="201.666666667" x2="215.0" y1="337.5" y2="337.5" /><text x="235.0" y="330.0">W</text><text x="248.333333333" y="330.0">75</text><text x="235.0" y="345.0">(5,7)</text><line stroke="rgb(0,0,0)" x1="241.666666667" x2="241.666666667" y1="330.0" y2="345.0" /><line stroke="rgb(0,0,0)" x1="235.0" x2="248.333333333" y1="337.5" y2="337.5" /><text x="268.333333333" y="330.0">A</text><text x="281.666666667" y="330.0">76</text><text x="268.333333333" y="345.0">(6,7)</text><line stroke="rgb(0,0,0)" x1="275.0" x2="275.0" y1="330.0" y2="345.0" /><line stroke="rgb(0,0,0)" x1="268.333333333" x2="281.666666667" y1="337.5" y2="337.5" /><text x="301.666666667" y="330.0">A</text><text x="315.0" y="330.0">77</text><text x="301.666666667" y="345.0">(7,7)</text><line stroke="rgb(0,0,0)" x1="308.333333333" x2="308.333333333" y1="330.0" y2="345.0" /><line stroke="rgb(0,0,0)" x1="301.666666667" x2="315.0" y1="337.5" y2="337.5" /><text x="335.0" y="330.0">L</text><text x="348.333333333" y="330.0">78</text><text x="335.0" y="345.0">(8,7)</text><line stroke="rgb(0,0,0)" x1="341.666666667" x2="341.666666667" y1="330.0" y2="345.0" /><line stroke="rgb(0,0,0)" x1="335.0" x2="348.333333333" y1="337.5" y2="337.5" /><text x="368.333333333" y="330.0">F</text><text x="381.666666667" y="330.0">79</text><text x="368.333333333" y="345.0">(9,7)</text><line stroke="rgb(0,0,0)" x1="375.0" x2="375.0" y1="330.0" y2="345.0" /><line stroke="rgb(0,0,0)" x1="368.333333333" x2="381.666666667" y1="337.5" y2="337.5" /><text x="68.3333333333" y="367.5">É</text><text x="81.6666666667" y="367.5">80</text><text x="68.3333333333" y="382.5">(0,8)</text><line stroke="rgb(0,0,0)" x1="75.0" x2="75.0" y1="367.5" y2="382.5" /><line stroke="rgb(0,0,0)" x1="68.3333333333" x2="81.6666666667" y1="375.0" y2="375.0" /><text x="101.666666667" y="367.5">É</text><text x="115.0" y="367.5">81</text><text x="101.666666667" y="382.5">(1,8)</text><line stroke="rgb(0,0,0)" x1="108.333333333" x2="108.333333333" y1="367.5" y2="382.5" /><line stroke="rgb(0,0,0)" x1="101.666666667" x2="115.0" y1="375.0" y2="375.0" /><text x="135.0" y="367.5">N</text><text x="148.333333333" y="367.5">82</text><text x="135.0" y="382.5">(2,8)</text><line stroke="rgb(0,0,0)" x1="141.666666667" x2="141.666666667" y1="367.5" y2="382.5" /><line stroke="rgb(0,0,0)" x1="135.0" x2="148.333333333" y1="375.0" y2="375.0" /><text x="168.333333333" y="367.5">V</text><text x="181.666666667" y="367.5">83</text><text x="168.333333333" y="382.5">(3,8)</text><line stroke="rgb(0,0,0)" x1="175.0" x2="175.0" y1="367.5" y2="382.5" /><line stroke="rgb(0,0,0)" x1="168.333333333" x2="181.666666667" y1="375.0" y2="375.0" /><text x="201.666666667" y="367.5">I</text><text x="215.0" y="367.5">84</text><text x="201.666666667" y="382.5">(4,8)</text><line stroke="rgb(0,0,0)" x1="208.333333333" x2="208.333333333" y1="367.5" y2="382.5" /><line stroke="rgb(0,0,0)" x1="201.666666667" x2="215.0" y1="375.0" y2="375.0" /><text x="235.0" y="367.5">J</text><text x="248.333333333" y="367.5">85</text><text x="235.0" y="382.5">(5,8)</text><line stroke="rgb(0,0,0)" x1="241.666666667" x2="241.666666667" y1="367.5" y2="382.5" /><line stroke="rgb(0,0,0)" x1="235.0" x2="248.333333333" y1="375.0" y2="375.0" /><text x="268.333333333" y="367.5">F</text><text x="281.666666667" y="367.5">86</text><text x="268.333333333" y="382.5">(6,8)</text><line stroke="rgb(0,0,0)" x1="275.0" x2="275.0" y1="367.5" y2="382.5" /><line stroke="rgb(0,0,0)" x1="268.333333333" x2="281.666666667" y1="375.0" y2="375.0" /><text x="301.666666667" y="367.5">U</text><text x="315.0" y="367.5">87</text><text x="301.666666667" y="382.5">(7,8)</text><line stroke="rgb(0,0,0)" x1="308.333333333" x2="308.333333333" y1="367.5" y2="382.5" /><line stroke="rgb(0,0,0)" x1="301.666666667" x2="315.0" y1="375.0" y2="375.0" /><text x="335.0" y="367.5">U</text><text x="348.333333333" y="367.5">88</text><text x="335.0" y="382.5">(8,8)</text><line stroke="rgb(0,0,0)" x1="341.666666667" x2="341.666666667" y1="367.5" y2="382.5" /><line stroke="rgb(0,0,0)" x1="335.0" x2="348.333333333" y1="375.0" y2="375.0" /><text x="368.333333333" y="367.5">R</text><text x="381.666666667" y="367.5">89</text><text x="368.333333333" y="382.5">(9,8)</text><line stroke="rgb(0,0,0)" x1="375.0" x2="375.0" y1="367.5" y2="382.5" /><line stroke="rgb(0,0,0)" x1="368.333333333" x2="381.666666667" y1="375.0" y2="375.0" /><text fill="rgb(0,0,0)" x="13.3333333333" y="12.5">1</text><line stroke="rgb(0,0,0)" x1="20.0" x2="20.0" y1="12.5" y2="27.5" /><line stroke="rgb(0,0,0)" x1="13.3333333333" x2="26.6666666667" y1="20.0" y2="20.0" /><text fill="rgb(0,0,0)" x="423.333333333" y="12.5">2</text><line stroke="rgb(0,0,0)" x1="430.0" x2="430.0" y1="12.5" y2="27.5" /><line stroke="rgb(0,0,0)" x1="423.333333333" x2="436.666666667" y1="20.0" y2="20.0" /><text fill="rgb(0,0,0)" x="13.3333333333" y="422.5">3</text><line stroke="rgb(0,0,0)" x1="20.0" x2="20.0" y1="422.5" y2="437.5" /><line stroke="rgb(0,0,0)" x1="13.3333333333" x2="26.6666666667" y1="430.0" y2="430.0" /><text fill="rgb(0,0,0)" x="423.333333333" y="422.5">4</text><line stroke="rgb(0,0,0)" x1="430.0" x2="430.0" y1="422.5" y2="437.5" /><line stroke="rgb(0,0,0)" x1="423.333333333" x2="436.666666667" y1="430.0" y2="430.0" /></g></svg>