<?xml version="1.0" encoding="UTF-8" standalone="no"?>
<!-- Created with Inkscape (http://www.inkscape.org/) -->

<svg
   xmlns:dc="http://purl.org/dc/elements/1.1/"
   xmlns:cc="http://creativecommons.org/ns#"
   xmlns:rdf="http://www.w3.org/1999/02/22-rdf-syntax-ns#"
   xmlns:svg="http://www.w3.org/2000/svg"
   xmlns="http://www.w3.org/2000/svg"
   version="1.1"
   width="450mm"
   height="450mm"
   viewBox="0 0 450 450"
   id="svg2">
  <metadata
     id="metadata240">
    <rdf:RDF>
      <cc:Work
         rdf:about="">
        <dc:format>image/svg+xml</dc:format>
        <dc:type
           rdf:resource="http://purl.org/dc/dcmitype/StillImage" />
        <dc:title></dc:title>
      </cc:Work>
    </rdf:RDF>
  </metadata>
  <defs
     id="defs4" />
  <rect
     width="450"
     height="450"
     x="0"
     y="0"
     id="rect6"
     style="fill:#000000" />
  <g
     id="g8"
     style="font-size:22px;text-anchor:middle;fill:#ffffff;font-family:Arial">
    <g
       id="text10">
      <path
         d="m 69.392578,86 0,-15.748047 11.386719,0 0,1.858399 -9.302735,0 0,4.823242 8.711915,0 0,1.847656 -8.711915,0 0,5.360352 9.667969,0 0,1.858398 -11.751953,0"
         id="path3218" />
    </g>
    <g
       id="text12">
      <path
         d="m 98.640625,80.94043 1.965825,-0.171875 c 0.0931,0.787765 0.30793,1.435876 0.64453,1.944336 0.34374,0.501304 0.87369,0.909507 1.58984,1.224609 0.71614,0.307944 1.5218,0.461916 2.41699,0.461914 0.79492,2e-6 1.49674,-0.118162 2.10547,-0.354492 0.60871,-0.236326 1.05989,-0.558591 1.35352,-0.966797 0.30077,-0.415361 0.45116,-0.866533 0.45117,-1.353516 -1e-5,-0.494135 -0.14324,-0.923823 -0.42969,-1.289062 -0.28647,-0.37239 -0.75912,-0.683913 -1.41797,-0.93457 -0.42253,-0.164707 -1.3571,-0.418939 -2.80371,-0.762696 -1.44662,-0.350904 -2.45996,-0.68033 -3.04004,-0.988281 -0.75195,-0.393872 -1.31413,-0.88085 -1.686521,-1.460938 -0.365236,-0.587229 -0.547853,-1.242502 -0.547852,-1.96582 -10e-7,-0.794909 0.225585,-1.536119 0.676758,-2.223633 0.451165,-0.694646 1.110025,-1.221013 1.976565,-1.579101 0.86653,-0.358057 1.82974,-0.537094 2.88965,-0.53711 1.16731,1.6e-5 2.19497,0.189795 3.083,0.569336 0.89518,0.372411 1.58267,0.923843 2.0625,1.654297 0.47981,0.730482 0.73762,1.55763 0.77344,2.481446 l -1.99805,0.15039 c -0.10743,-0.99543 -0.47266,-1.747383 -1.0957,-2.255859 -0.61589,-0.50845 -1.52898,-0.762681 -2.73926,-0.762696 -1.26042,1.5e-5 -2.18067,0.232762 -2.76074,0.698243 -0.57292,0.458346 -0.85938,1.013359 -0.85937,1.665039 -1e-5,0.565766 0.20409,1.031261 0.6123,1.396484 0.40104,0.365245 1.44661,0.741221 3.13672,1.12793 1.69726,0.379566 2.86099,0.712573 3.49121,0.999023 0.91666,0.422534 1.59341,0.959643 2.03027,1.611328 0.43684,0.644538 0.65526,1.389329 0.65528,2.234375 -2e-5,0.837895 -0.23992,1.629235 -0.71973,2.374024 -0.47983,0.737631 -1.17091,1.314128 -2.07324,1.729492 -0.89519,0.408203 -1.90496,0.612304 -3.0293,0.612305 -1.42513,-1e-6 -2.6211,-0.207683 -3.58789,-0.623047 -0.95964,-0.415364 -1.71517,-1.03841 -2.2666,-1.869141 -0.544272,-0.837887 -0.83073,-1.783199 -0.859375,-2.835937"
         id="path3221" />
    </g>
    <g
       id="text14">
      <path
         d="m 129.26367,86 0,-15.748047 2.08399,0 0,7.80957 7.82031,-7.80957 2.82519,0 -6.60644,6.380859 L 142.2832,86 l -2.75,0 -5.60742,-7.970703 -2.57812,2.513672 0,5.457031 -2.08399,0"
         id="path3224" />
    </g>
    <g
       id="text16">
      <path
         d="m 164.00098,86 0,-15.748047 2.08398,0 0,15.748047 -2.08398,0"
         id="path3227" />
    </g>
    <g
       id="text18">
      <path
         d="m 188.64062,80.94043 1.96583,-0.171875 c 0.0931,0.787765 0.30793,1.435876 0.64453,1.944336 0.34374,0.501304 0.87369,0.909507 1.58984,1.224609 0.71614,0.307944 1.5218,0.461916 2.41699,0.461914 0.79492,2e-6 1.49674,-0.118162 2.10547,-0.354492 0.60871,-0.236326 1.05989,-0.558591 1.35352,-0.966797 0.30077,-0.415361 0.45116,-0.866533 0.45117,-1.353516 -1e-5,-0.494135 -0.14324,-0.923823 -0.42969,-1.289062 -0.28647,-0.37239 -0.75912,-0.683913 -1.41797,-0.93457 -0.42253,-0.164707 -1.3571,-0.418939 -2.80371,-0.762696 -1.44662,-0.350904 -2.45996,-0.68033 -3.04004,-0.988281 -0.75195,-0.393872 -1.31413,-0.88085 -1.68652,-1.460938 -0.36524,-0.587229 -0.54785,-1.242502 -0.54785,-1.96582 0,-0.794909 0.22558,-1.536119 0.67676,-2.223633 0.45116,-0.694646 1.11002,-1.221013 1.97656,-1.579101 0.86653,-0.358057 1.82974,-0.537094 2.88965,-0.53711 1.16731,1.6e-5 2.19497,0.189795 3.083,0.569336 0.89518,0.372411 1.58267,0.923843 2.0625,1.654297 0.47981,0.730482 0.73762,1.55763 0.77344,2.481446 l -1.99805,0.15039 c -0.10743,-0.99543 -0.47266,-1.747383 -1.0957,-2.255859 -0.61589,-0.50845 -1.52898,-0.762681 -2.73926,-0.762696 -1.26042,1.5e-5 -2.18067,0.232762 -2.76074,0.698243 -0.57292,0.458346 -0.85938,1.013359 -0.85937,1.665039 -1e-5,0.565766 0.20409,1.031261 0.6123,1.396484 0.40104,0.365245 1.44661,0.741221 3.13672,1.12793 1.69726,0.379566 2.86099,0.712573 3.49121,0.999023 0.91666,0.422534 1.59341,0.959643 2.03027,1.611328 0.43684,0.644538 0.65526,1.389329 0.65528,2.234375 -2e-5,0.837895 -0.23992,1.629235 -0.71973,2.374024 -0.47983,0.737631 -1.17091,1.314128 -2.07324,1.729492 -0.89519,0.408203 -1.90496,0.612304 -3.0293,0.612305 -1.42513,-1e-6 -2.6211,-0.207683 -3.58789,-0.623047 -0.95964,-0.415364 -1.71517,-1.03841 -2.2666,-1.869141 -0.54427,-0.837887 -0.83073,-1.783199 -0.85938,-2.835937"
         id="path3230" />
    </g>
    <g
       id="text20">
      <path
         d="m 223.97949,86 0,-13.889648 -5.18847,0 0,-1.858399 12.48242,0 0,1.858399 -5.20996,0 0,13.889648 -2.08399,0"
         id="path3233" />
    </g>
    <g
       id="text22">
      <path
         d="m 250.48828,86 0,-15.748047 2.08399,0 0,13.889649 7.75585,0 0,1.858398 -9.83984,0"
         id="path3236" />
    </g>
    <g
       id="text24">
      <path
         d="m 280.08008,86 0,-15.748047 10.62402,0 0,1.858399 -8.54004,0 0,4.876953 7.39063,0 0,1.858398 -7.39063,0 0,7.154297 -2.08398,0"
         id="path3239" />
    </g>
    <g
       id="text26">
      <path
         d="m 319.08203,70.251953 2.08399,0 0,9.098633 c -2e-5,1.582687 -0.17905,2.839522 -0.53711,3.770508 -0.35809,0.930991 -1.0062,1.690105 -1.94434,2.277343 -0.931,0.580079 -2.15561,0.870117 -3.67383,0.870118 -1.47526,-1e-6 -2.68197,-0.254232 -3.62012,-0.762696 -0.93815,-0.508462 -1.60775,-1.242511 -2.00878,-2.202148 -0.40105,-0.966793 -0.60157,-2.2845 -0.60157,-3.953125 l 0,-9.098633 2.08399,0 0,9.087891 c -10e-6,1.367844 0.12532,2.377608 0.37597,3.029297 0.25781,0.644534 0.69466,1.142255 1.31055,1.493164 0.62304,0.350913 1.38216,0.526368 2.27734,0.526367 1.53255,10e-7 2.62467,-0.347329 3.27637,-1.041992 0.65168,-0.694658 0.97753,-2.030269 0.97754,-4.006836 l 0,-9.087891 m -7.1543,-0.966797 0,-2.202148 2.01954,0 0,2.202148 -2.01954,0 m 4.00684,0 0,-2.202148 2.01953,0 0,2.202148 -2.01953,0"
         id="path3242" />
    </g>
    <g
       id="text28">
      <path
         d="m 338.72656,86 0,-15.748047 2.1377,0 8.27148,12.364258 0,-12.364258 1.99805,0 0,15.748047 -2.1377,0 -8.27148,-12.375 0,12.375 -1.99805,0"
         id="path3245" />
    </g>
    <g
       id="text30">
      <path
         d="m 370.08008,86 0,-15.748047 10.62402,0 0,1.858399 -8.54004,0 0,4.876953 7.39063,0 0,1.858398 -7.39063,0 0,7.154297 -2.08398,0"
         id="path3248" />
    </g>
    <g
       id="text32">
      <path
         d="m 68.71582,119.33334 0,-1.9336 8.067383,-10.08691 c 0.572908,-0.71614 1.117178,-1.33918 1.632813,-1.86914 l -8.78711,0 0,-1.8584 11.279297,0 0,1.8584 -8.84082,10.9248 -0.956055,1.10645 10.054688,0 0,1.8584 -12.450196,0"
         id="path3251" />
    </g>
    <g
       id="text34">
      <path
         d="m 99.392578,119.33334 0,-15.74805 11.386722,0 0,1.8584 -9.30274,0 0,4.82324 8.71192,0 0,1.84766 -8.71192,0 0,5.36035 9.66797,0 0,1.8584 -11.751952,0"
         id="path3254" />
    </g>
    <g
       id="text36">
      <path
         d="m 128.8125,119.33334 0,-15.74805 2.08398,0 0,6.4668 8.18555,0 0,-6.4668 2.08399,0 0,15.74805 -2.08399,0 0,-7.42286 -8.18555,0 0,7.42286 -2.08398,0"
         id="path3257" />
    </g>
    <g
       id="text38">
      <path
         d="m 158.72656,119.33334 0,-15.74805 2.1377,0 8.27148,12.36426 0,-12.36426 1.99805,0 0,15.74805 -2.1377,0 -8.27148,-12.375 0,12.375 -1.99805,0"
         id="path3260" />
    </g>
    <g
       id="text40">
      <path
         d="m 188.71582,119.33334 0,-1.9336 8.06738,-10.08691 c 0.57291,-0.71614 1.11718,-1.33918 1.63282,-1.86914 l -8.78711,0 0,-1.8584 11.27929,0 0,1.8584 -8.84082,10.9248 -0.95605,1.10645 10.05469,0 0,1.8584 -12.4502,0"
         id="path3263" />
    </g>
    <g
       id="text42">
      <path
         d="m 219.07031,119.33334 -4.17871,-15.74805 2.1377,0 2.3955,10.32324 c 0.25781,1.08139 0.47982,2.1556 0.66602,3.22266 0.40104,-1.68294 0.63736,-2.65332 0.70898,-2.91114 l 2.99707,-10.63476 2.51368,0 2.25586,7.9707 c 0.56574,1.97657 0.97394,3.83497 1.22461,5.5752 0.2005,-0.99544 0.46189,-2.13769 0.78418,-3.42676 l 2.4707,-10.11914 2.09472,0 -4.31835,15.74805 -2.00879,0 -3.31934,-11.99903 c -0.27931,-1.00259 -0.44402,-1.61847 -0.49414,-1.84765 -0.16472,0.72332 -0.31869,1.3392 -0.46191,1.84765 l -3.34082,11.99903 -2.12696,0"
         id="path3266" />
    </g>
    <g
       id="text44">
      <path
         d="m 247.62012,119.33334 6.04785,-15.74805 2.24512,0 6.44531,15.74805 -2.37403,0 -1.83691,-4.76954 -6.58496,0 -1.72949,4.76954 -2.21289,0 m 4.54394,-6.4668 5.33887,0 -1.64356,-4.36133 c -0.5013,-1.32486 -0.8737,-2.4134 -1.11718,-3.26562 -0.20053,1.00977 -0.48341,2.01238 -0.84864,3.00781 l -1.72949,4.61914"
         id="path3269" />
    </g>
    <g
       id="text46">
      <path
         d="m 278.72656,119.33334 0,-15.74805 2.1377,0 8.27148,12.36426 0,-12.36426 1.99805,0 0,15.74805 -2.1377,0 -8.27148,-12.375 0,12.375 -1.99805,0"
         id="path3272" />
    </g>
    <g
       id="text48">
      <path
         d="m 308.71582,119.33334 0,-1.9336 8.06738,-10.08691 c 0.57291,-0.71614 1.11718,-1.33918 1.63282,-1.86914 l -8.78711,0 0,-1.8584 11.27929,0 0,1.8584 -8.84082,10.9248 -0.95605,1.10645 10.05469,0 0,1.8584 -12.4502,0"
         id="path3275" />
    </g>
    <g
       id="text50">
      <path
         d="m 344.00098,119.33334 0,-15.74805 2.08398,0 0,15.74805 -2.08398,0"
         id="path3278" />
    </g>
    <g
       id="text52">
      <path
         d="m 375.51562,113.15658 0,-1.84766 6.6709,-0.0107 0,5.84375 c -1.0241,0.81641 -2.08041,1.43229 -3.16894,1.84766 -1.08856,0.4082 -2.20574,0.6123 -3.35156,0.6123 -1.54689,0 -2.95411,-0.32943 -4.22168,-0.98828 -1.26042,-0.66601 -2.2129,-1.62565 -2.85743,-2.87891 -0.64453,-1.25325 -0.96679,-2.65331 -0.96679,-4.20019 0,-1.53255 0.31868,-2.96125 0.95605,-4.28614 0.64453,-1.33201 1.56836,-2.32029 2.77149,-2.96484 1.20312,-0.64451 2.58886,-0.96678 4.15722,-0.9668 1.13866,2e-5 2.16633,0.18622 3.08301,0.5586 0.92382,0.36525 1.64712,0.87729 2.16992,1.53613 0.52277,0.65887 0.92023,1.51824 1.19239,2.57813 l -1.87989,0.51562 c -0.23634,-0.80207 -0.52996,-1.43228 -0.88086,-1.89062 -0.35092,-0.45832 -0.85222,-0.82356 -1.5039,-1.09571 -0.65171,-0.27928 -1.37501,-0.41893 -2.16993,-0.41894 -0.95248,1e-5 -1.77604,0.14682 -2.4707,0.44043 -0.69467,0.28647 -1.25684,0.66603 -1.68652,1.13867 -0.42253,0.47267 -0.75196,0.99187 -0.98828,1.55762 -0.40105,0.97396 -0.60157,2.03028 -0.60157,3.16894 0,1.40365 0.23991,2.57813 0.71973,3.52344 0.48698,0.94531 1.19238,1.64714 2.11621,2.10547 0.92382,0.45833 1.90494,0.6875 2.94336,0.6875 0.90234,0 1.78319,-0.17188 2.64258,-0.51563 0.85936,-0.35091 1.51105,-0.7233 1.95508,-1.11718 l 0,-2.93262 -4.62989,0"
         id="path3281" />
    </g>
    <g
       id="text54">
      <path
         d="m 68.748047,152.66667 0,-15.74805 5.424805,0 c 1.224601,2e-5 2.15917,0.0752 2.80371,0.22559 0.902333,0.2077 1.672189,0.58367 2.309571,1.12793 0.830716,0.70184 1.450181,1.6006 1.858398,2.69629 0.41535,1.08855 0.623032,2.33464 0.623047,3.73828 -1.5e-5,1.19597 -0.139663,2.25587 -0.418945,3.17969 -0.279311,0.92383 -0.637384,1.69011 -1.074219,2.29883 -0.436862,0.60156 -0.916679,1.0778 -1.439453,1.42871 -0.515636,0.34375 -1.142263,0.60514 -1.879883,0.78418 -0.730478,0.17903 -1.571948,0.26855 -2.524414,0.26855 l -5.682617,0 m 2.083984,-1.8584 3.362305,0 c 1.038403,1e-5 1.851228,-0.0967 2.438476,-0.29004 0.594391,-0.19335 1.067047,-0.46549 1.417969,-0.8164 0.494129,-0.49414 0.877267,-1.15657 1.149414,-1.98731 0.279285,-0.83788 0.418933,-1.85123 0.418946,-3.04004 -1.3e-5,-1.64712 -0.272148,-2.91112 -0.816407,-3.79199 -0.53712,-0.88801 -1.192393,-1.48241 -1.96582,-1.7832 -0.558603,-0.21483 -1.457365,-0.32225 -2.696289,-0.32227 l -3.308594,0 0,12.03125"
         id="path3284" />
    </g>
    <g
       id="text56">
      <path
         d="m 98.780273,152.66667 0,-15.74805 6.982427,0 c 1.40363,2e-5 2.47069,0.14325 3.20117,0.42969 0.73045,0.27931 1.31411,0.77704 1.75097,1.49317 0.43684,0.71616 0.65526,1.5075 0.65528,2.37402 -2e-5,1.1172 -0.36167,2.05893 -1.08496,2.8252 -0.72332,0.76628 -1.84051,1.25326 -3.35157,1.46093 0.55143,0.26498 0.97037,0.52638 1.25684,0.78418 0.60871,0.5586 1.18521,1.25684 1.72949,2.09473 l 2.73926,4.28613 -2.62109,0 -2.08399,-3.27637 c -0.60873,-0.9453 -1.11003,-1.66861 -1.5039,-2.16992 -0.39389,-0.50129 -0.74839,-0.8522 -1.06348,-1.05273 -0.30795,-0.20052 -0.62306,-0.34016 -0.94531,-0.41895 -0.23634,-0.0501 -0.62306,-0.0752 -1.16016,-0.0752 l -2.41699,0 0,6.99316 -2.083987,0 m 2.083987,-8.79785 4.47949,0 c 0.95246,1e-5 1.69726,-0.0967 2.23438,-0.29004 0.53709,-0.20051 0.9453,-0.51561 1.2246,-0.94531 0.27929,-0.43684 0.41894,-0.9095 0.41895,-1.41797 -1e-5,-0.74478 -0.27215,-1.35708 -0.81641,-1.83691 -0.53712,-0.47981 -1.38933,-0.71972 -2.55664,-0.71973 l -4.98437,0 0,5.20996"
         id="path3287" />
    </g>
    <g
       id="text58">
      <path
         d="m 129.39258,152.66667 0,-15.74805 11.38672,0 0,1.8584 -9.30274,0 0,4.82325 8.71192,0 0,1.84765 -8.71192,0 0,5.36035 9.66797,0 0,1.8584 -11.75195,0"
         id="path3290" />
    </g>
    <g
       id="text60">
      <path
         d="m 164.00098,152.66667 0,-15.74805 2.08398,0 0,15.74805 -2.08398,0"
         id="path3293" />
    </g>
    <g
       id="text62">
      <path
         d="m 193.85059,152.66667 -6.10157,-15.74805 2.25586,0 4.09278,11.44043 c 0.32942,0.91667 0.60513,1.77605 0.82714,2.57813 0.24349,-0.85937 0.52636,-1.71875 0.84864,-2.57813 l 4.2539,-11.44043 2.12696,0 -6.16602,15.74805 -2.13769,0"
         id="path3296" />
    </g>
    <g
       id="text64">
      <path
         d="m 224.00098,152.66667 0,-15.74805 2.08398,0 0,15.74805 -2.08398,0"
         id="path3299" />
    </g>
    <g
       id="text66">
      <path
         d="m 249.39258,152.66667 0,-15.74805 11.38672,0 0,1.8584 -9.30274,0 0,4.82325 8.71192,0 0,1.84765 -8.71192,0 0,5.36035 9.66797,0 0,1.8584 -11.75195,0"
         id="path3302" />
    </g>
    <g
       id="text68">
      <path
         d="m 278.78027,152.66667 0,-15.74805 6.98243,0 c 1.40363,2e-5 2.47069,0.14325 3.20117,0.42969 0.73045,0.27931 1.31411,0.77704 1.75097,1.49317 0.43684,0.71616 0.65526,1.5075 0.65528,2.37402 -2e-5,1.1172 -0.36167,2.05893 -1.08496,2.8252 -0.72332,0.76628 -1.84051,1.25326 -3.35157,1.46093 0.55143,0.26498 0.97037,0.52638 1.25684,0.78418 0.60871,0.5586 1.18521,1.25684 1.72949,2.09473 l 2.73926,4.28613 -2.62109,0 -2.08399,-3.27637 c -0.60873,-0.9453 -1.11003,-1.66861 -1.5039,-2.16992 -0.39389,-0.50129 -0.74839,-0.8522 -1.06348,-1.05273 -0.30795,-0.20052 -0.62306,-0.34016 -0.94531,-0.41895 -0.23634,-0.0501 -0.62306,-0.0752 -1.16016,-0.0752 l -2.41699,0 0,6.99316 -2.08399,0 m 2.08399,-8.79785 4.47949,0 c 0.95246,1e-5 1.69726,-0.0967 2.23437,-0.29004 0.5371,-0.20051 0.94531,-0.51561 1.22461,-0.94531 0.27929,-0.43684 0.41894,-0.9095 0.41895,-1.41797 -10e-6,-0.74478 -0.27215,-1.35708 -0.81641,-1.83691 -0.53712,-0.47981 -1.38933,-0.71972 -2.55664,-0.71973 l -4.98437,0 0,5.20996"
         id="path3305" />
    </g>
    <g
       id="text70">
      <path
         d="m 313.97949,152.66667 0,-13.88965 -5.18847,0 0,-1.8584 12.48242,0 0,1.8584 -5.20996,0 0,13.88965 -2.08399,0"
         id="path3308" />
    </g>
    <g
       id="text72">
      <path
         d="m 339.39258,152.66667 0,-15.74805 11.38672,0 0,1.8584 -9.30274,0 0,4.82325 8.71192,0 0,1.84765 -8.71192,0 0,5.36035 9.66797,0 0,1.8584 -11.75195,0"
         id="path3311" />
    </g>
    <g
       id="text74">
      <path
         d="m 370.48828,152.66667 0,-15.74805 2.08399,0 0,13.88965 7.75585,0 0,1.8584 -9.83984,0"
         id="path3314" />
    </g>
    <g
       id="text76">
      <path
         d="m 73.979492,186 0,-13.88965 -5.188476,0 0,-1.8584 12.482421,0 0,1.8584 -5.20996,0 0,13.88965 -2.083985,0"
         id="path3317" />
    </g>
    <g
       id="text78">
      <path
         d="m 105.51563,179.82324 0,-1.84765 6.67089,-0.0108 0,5.84375 c -1.0241,0.81641 -2.08041,1.4323 -3.16894,1.84766 -1.08856,0.4082 -2.20574,0.6123 -3.35156,0.6123 -1.54689,0 -2.95411,-0.32942 -4.22168,-0.98828 -1.26042,-0.66601 -2.212897,-1.62565 -2.857426,-2.8789 -0.644533,-1.25325 -0.966798,-2.65332 -0.966797,-4.2002 -10e-7,-1.53254 0.318684,-2.96125 0.956055,-4.28613 0.644528,-1.33202 1.568358,-2.3203 2.771488,-2.96484 1.20312,-0.64452 2.58886,-0.96679 4.15722,-0.9668 1.13866,1e-5 2.16633,0.18621 3.08301,0.55859 0.92382,0.36525 1.64712,0.8773 2.16992,1.53613 0.52277,0.65887 0.92023,1.51825 1.19239,2.57813 l -1.87989,0.51562 c -0.23634,-0.80207 -0.52996,-1.43227 -0.88086,-1.89062 -0.35092,-0.45832 -0.85222,-0.82355 -1.5039,-1.0957 -0.65171,-0.27929 -1.37501,-0.41893 -2.16992,-0.41895 -0.95249,2e-5 -1.77605,0.14683 -2.47071,0.44043 -0.69467,0.28647 -1.25684,0.66603 -1.68652,1.13867 -0.42253,0.47267 -0.75196,0.99188 -0.98828,1.55762 -0.401048,0.97397 -0.601569,2.03028 -0.601565,3.16895 -4e-6,1.40365 0.239905,2.57813 0.719725,3.52343 0.48698,0.94532 1.19238,1.64714 2.11621,2.10547 0.92382,0.45834 1.90494,0.6875 2.94336,0.6875 0.90234,0 1.78319,-0.17187 2.64258,-0.51562 0.85936,-0.35091 1.51105,-0.72331 1.95508,-1.11719 l 0,-2.93262 -4.62988,0"
         id="path3320" />
    </g>
    <g
       id="text80">
      <path
         d="m 128.72656,186 0,-15.74805 2.1377,0 8.27148,12.36426 0,-12.36426 1.99805,0 0,15.74805 -2.1377,0 -8.27148,-12.375 0,12.375 -1.99805,0"
         id="path3323" />
    </g>
    <g
       id="text82">
      <path
         d="m 157.62012,186 6.04785,-15.74805 2.24512,0 6.44531,15.74805 -2.37403,0 -1.83691,-4.76953 -6.58496,0 -1.72949,4.76953 -2.21289,0 m 4.54394,-6.4668 5.33887,0 -1.64356,-4.36133 c -0.5013,-1.32485 -0.8737,-2.41339 -1.11718,-3.26562 -0.20053,1.00978 -0.48341,2.01238 -0.84864,3.00781 l -1.72949,4.61914"
         id="path3326" />
    </g>
    <g
       id="text84">
      <path
         d="m 199.98437,180.47852 2.08399,0.52636 c -0.43686,1.71159 -1.22462,3.01856 -2.36328,3.9209 -1.13152,0.89518 -2.51726,1.34277 -4.15723,1.34277 -1.69727,0 -3.07943,-0.34375 -4.14648,-1.03125 -1.0599,-0.69466 -1.86915,-1.69726 -2.42774,-3.00781 -0.55143,-1.31054 -0.82715,-2.71776 -0.82715,-4.22168 0,-1.63996 0.31153,-3.06867 0.93457,-4.28613 0.63021,-1.2246 1.52181,-2.152 2.67481,-2.78223 1.16015,-0.63735 2.43489,-0.95604 3.82422,-0.95605 1.57551,1e-5 2.90038,0.40106 3.97461,1.20312 1.0742,0.8021 1.82257,1.93003 2.24511,3.38379 l -2.05175,0.4834 c -0.36525,-1.14582 -0.8952,-1.98013 -1.58985,-2.50293 -0.69467,-0.52277 -1.56837,-0.78416 -2.62109,-0.78418 -1.21029,2e-5 -2.22364,0.29005 -3.04004,0.87012 -0.80925,0.58009 -1.37858,1.36069 -1.70801,2.3418 -0.32943,0.97396 -0.49414,1.98015 -0.49414,3.01855 0,1.3392 0.19336,2.5101 0.58008,3.5127 0.39388,0.99544 1.0026,1.74023 1.82617,2.23437 0.82356,0.49414 1.71516,0.74121 2.67481,0.74121 1.1673,0 2.15559,-0.33659 2.96484,-1.00976 0.80923,-0.67318 1.35708,-1.6722 1.64355,-2.99707"
         id="path3329" />
    </g>
    <g
       id="text86">
      <path
         d="m 218.8125,186 0,-15.74805 2.08398,0 0,6.4668 8.18555,0 0,-6.4668 2.08399,0 0,15.74805 -2.08399,0 0,-7.42285 -8.18555,0 0,7.42285 -2.08398,0"
         id="path3332" />
    </g>
    <g
       id="text88">
      <path
         d="m 253.85059,186 -6.10157,-15.74805 2.25586,0 4.09278,11.44043 c 0.32942,0.91667 0.60513,1.77605 0.82714,2.57813 0.24349,-0.85937 0.52636,-1.71875 0.84864,-2.57813 l 4.2539,-11.44043 2.12696,0 -6.16602,15.74805 -2.13769,0"
         id="path3335" />
    </g>
    <g
       id="text90">
      <path
         d="m 277.5127,178.33008 c -10e-6,-2.61392 0.70182,-4.65852 2.10546,-6.13379 1.40365,-1.48241 3.21549,-2.22362 5.43555,-2.22363 1.45377,1e-5 2.76431,0.34734 3.93164,1.04199 1.16731,0.69467 2.05533,1.66505 2.66406,2.91113 0.61587,1.23894 0.92382,2.64617 0.92383,4.22168 -10e-6,1.59701 -0.32228,3.02572 -0.96679,4.28613 -0.64455,1.26042 -1.55764,2.21648 -2.73926,2.86817 -1.18165,0.64453 -2.45639,0.96679 -3.82422,0.96679 -1.48243,0 -2.8073,-0.35807 -3.97461,-1.07421 -1.16732,-0.71615 -2.05176,-1.69369 -2.65332,-2.93262 -0.60156,-1.23893 -0.90235,-2.54947 -0.90234,-3.93164 m 2.14843,0.0322 c 0,1.8978 0.50846,3.39454 1.52539,4.49024 1.02409,1.08854 2.30599,1.63281 3.84571,1.63281 1.56835,0 2.85741,-0.55143 3.86718,-1.6543 1.01692,-1.10286 1.52538,-2.66763 1.52539,-4.69433 -1e-5,-1.28189 -0.21843,-2.39908 -0.65527,-3.35156 -0.4297,-0.95963 -1.06349,-1.70084 -1.90137,-2.22364 -0.83074,-0.52993 -1.76531,-0.7949 -2.80371,-0.79492 -1.47526,2e-5 -2.74642,0.50848 -3.81347,1.52539 -1.0599,1.00978 -1.58985,2.69988 -1.58985,5.07031"
         id="path3338" />
    </g>
    <g
       id="text92">
      <path
         d="m 308.78027,186 0,-15.74805 6.98243,0 c 1.40363,2e-5 2.47069,0.14325 3.20117,0.42969 0.73045,0.27931 1.31411,0.77703 1.75097,1.49316 0.43684,0.71616 0.65526,1.5075 0.65528,2.37403 -2e-5,1.1172 -0.36167,2.05893 -1.08496,2.82519 -0.72332,0.76629 -1.84051,1.25327 -3.35157,1.46094 0.55143,0.26498 0.97037,0.52637 1.25684,0.78418 0.60871,0.5586 1.18521,1.25684 1.72949,2.09473 l 2.73926,4.28613 -2.62109,0 -2.08399,-3.27637 c -0.60873,-0.94531 -1.11003,-1.66861 -1.5039,-2.16992 -0.39389,-0.5013 -0.74839,-0.85221 -1.06348,-1.05273 -0.30795,-0.20052 -0.62306,-0.34017 -0.94531,-0.41895 -0.23634,-0.0501 -0.62306,-0.0752 -1.16016,-0.0752 l -2.41699,0 0,6.99316 -2.08399,0 m 2.08399,-8.79785 4.47949,0 c 0.95246,10e-6 1.69726,-0.0967 2.23437,-0.29004 0.5371,-0.20051 0.94531,-0.51562 1.22461,-0.94531 0.27929,-0.43684 0.41894,-0.9095 0.41895,-1.41797 -10e-6,-0.74478 -0.27215,-1.35709 -0.81641,-1.83692 -0.53712,-0.4798 -1.38933,-0.71971 -2.55664,-0.71972 l -4.98437,0 0,5.20996"
         id="path3341" />
    </g>
    <g
       id="text94">
      <path
         d="m 340.13379,181.53125 1.87988,-0.25781 c 0.0501,1.20313 0.27572,2.02669 0.67676,2.4707 0.40104,0.44401 0.95605,0.66602 1.66504,0.66602 0.52278,0 0.97395,-0.11817 1.35351,-0.3545 0.37956,-0.24348 0.64095,-0.56933 0.78418,-0.97754 0.14323,-0.41536 0.21484,-1.07421 0.21485,-1.97656 l 0,-10.84961 2.08398,0 0,10.73145 c -10e-6,1.31771 -0.16114,2.33822 -0.4834,3.06152 -0.31511,0.72331 -0.81999,1.27474 -1.51464,1.6543 -0.68751,0.37956 -1.49676,0.56933 -2.42774,0.56933 -1.38216,0 -2.44206,-0.39746 -3.17969,-1.19238 -0.73047,-0.79492 -1.08138,-1.97656 -1.05273,-3.54492"
         id="path3344" />
    </g>
    <g
       id="text96">
      <path
         d="m 367.45898,186 0,-15.74805 3.13672,0 3.72754,11.15039 c 0.34374,1.03842 0.59439,1.81544 0.75196,2.33106 0.17902,-0.57292 0.45832,-1.41439 0.83789,-2.52442 l 3.7705,-10.95703 2.80371,0 0,15.74805 -2.00878,0 0,-13.18066 -4.57618,13.18066 -1.87988,0 -4.55469,-13.40625 0,13.40625 -2.00879,0"
         id="path3347" />
    </g>
    <g
       id="text98">
      <path
         d="m 68.8125,219.33333 0,-15.74805 2.083984,0 0,6.4668 8.185547,0 0,-6.4668 2.083985,0 0,15.74805 -2.083985,0 0,-7.42285 -8.185547,0 0,7.42285 -2.083984,0"
         id="path3350" />
    </g>
    <g
       id="text100">
      <path
         d="m 97.620117,219.33333 6.047853,-15.74805 2.24512,0 6.44531,15.74805 -2.37402,0 -1.83692,-4.76953 -6.58496,0 -1.729492,4.76953 -2.212891,0 m 4.543943,-6.4668 5.33887,0 -1.64355,-4.36133 c -0.50131,-1.32485 -0.87371,-2.41339 -1.11719,-3.26562 -0.20053,1.00978 -0.48341,2.01238 -0.84864,3.00781 l -1.72949,4.61914"
         id="path3353" />
    </g>
    <g
       id="text102">
      <path
         d="m 130.48828,219.33333 0,-15.74805 2.08399,0 0,13.88965 7.75585,0 0,1.8584 -9.83984,0"
         id="path3356" />
    </g>
    <g
       id="text104">
      <path
         d="m 159.26367,219.33333 0,-15.74805 5.9082,0 c 1.20312,2e-5 2.16634,0.16115 2.88965,0.4834 0.73046,0.31512 1.2998,0.80568 1.70801,1.47168 0.41535,0.65887 0.62304,1.34995 0.62305,2.07324 -1e-5,0.67319 -0.18263,1.30698 -0.54785,1.90137 -0.36525,0.59441 -0.91668,1.07423 -1.6543,1.43945 0.95246,0.27931 1.68293,0.75554 2.19141,1.42871 0.51561,0.67319 0.77342,1.46811 0.77343,2.38477 -1e-5,0.73763 -0.15756,1.42513 -0.47265,2.0625 -0.30796,0.63021 -0.6911,1.11719 -1.14942,1.46094 -0.45834,0.34375 -1.03484,0.60514 -1.72949,0.78418 -0.68751,0.17187 -1.53256,0.25781 -2.53516,0.25781 l -6.00488,0 m 2.08399,-9.13086 3.40527,0 c 0.92382,1e-5 1.58625,-0.0609 1.9873,-0.18262 0.52994,-0.15754 0.9274,-0.41893 1.19239,-0.78418 0.27212,-0.36522 0.40819,-0.82355 0.4082,-1.375 -1e-5,-0.52277 -0.12534,-0.98111 -0.37598,-1.375 -0.25066,-0.40103 -0.60873,-0.67316 -1.07422,-0.8164 -0.4655,-0.15038 -1.264,-0.22558 -2.3955,-0.22559 l -3.14746,0 0,4.75879 m 0,7.27246 3.92089,0 c 0.67317,0 1.14583,-0.0251 1.41797,-0.0752 0.47981,-0.0859 0.88085,-0.22916 1.20313,-0.42968 0.32225,-0.20052 0.58723,-0.49056 0.79492,-0.87012 0.20767,-0.38672 0.31151,-0.83073 0.31152,-1.33203 -1e-5,-0.58724 -0.1504,-1.0957 -0.45117,-1.52539 -0.30079,-0.43684 -0.71973,-0.74121 -1.25683,-0.91309 -0.52996,-0.17903 -1.29624,-0.26855 -2.29883,-0.26855 l -3.6416,0 0,5.41406"
         id="path3359" />
    </g>
    <g
       id="text106">
      <path
         d="m 200.08105,217.6468 c 0.96679,0.66602 1.85839,1.153 2.67481,1.46094 l -0.61231,1.4502 c -1.13152,-0.40821 -2.25945,-1.05274 -3.38378,-1.9336 -1.16733,0.6517 -2.45639,0.97754 -3.86719,0.97754 -1.42514,0 -2.71778,-0.34375 -3.87793,-1.03125 -1.16016,-0.6875 -2.05534,-1.65429 -2.68555,-2.90039 -0.62305,-1.24609 -0.93457,-2.64973 -0.93457,-4.21094 0,-1.55402 0.3151,-2.96841 0.94531,-4.24316 0.63021,-1.27473 1.52539,-2.2451 2.68555,-2.91113 1.16731,-0.666 2.4707,-0.99901 3.91016,-0.99903 1.45376,2e-5 2.76431,0.34735 3.93164,1.042 1.1673,0.68751 2.05532,1.65431 2.66406,2.90039 0.61587,1.23894 0.92381,2.639 0.92383,4.20019 -2e-5,1.29623 -0.19696,2.46355 -0.59082,3.50196 -0.3939,1.03125 -0.9883,1.93001 -1.78321,2.69628 m -4.58691,-2.66406 c 1.20312,0.33659 2.19498,0.8379 2.97559,1.50391 1.22459,-1.11718 1.8369,-2.79655 1.83691,-5.03809 -10e-6,-1.27473 -0.21844,-2.38833 -0.65527,-3.34082 -0.4297,-0.95246 -1.06349,-1.69009 -1.90137,-2.21289 -0.83074,-0.52993 -1.76531,-0.79491 -2.80371,-0.79492 -1.55404,1e-5 -2.84311,0.53354 -3.86719,1.60059 -1.02409,1.0599 -1.53613,2.64616 -1.53613,4.75878 0,2.04819 0.50488,3.62013 1.51465,4.71583 1.01692,1.0957 2.31314,1.64355 3.88867,1.64355 0.74478,0 1.4466,-0.13965 2.10547,-0.41895 -0.6517,-0.42252 -1.3392,-0.7233 -2.0625,-0.90234 l 0.50488,-1.51465"
         id="path3362" />
    </g>
    <g
       id="text108">
      <path
         d="m 218.71582,219.33333 0,-1.9336 8.06738,-10.08691 c 0.57291,-0.71613 1.11718,-1.33918 1.63282,-1.86914 l -8.78711,0 0,-1.8584 11.27929,0 0,1.8584 -8.84082,10.9248 -0.95605,1.10645 10.05469,0 0,1.8584 -12.4502,0"
         id="path3365" />
    </g>
    <g
       id="text110">
      <path
         d="m 249.07031,219.33333 -4.17871,-15.74805 2.1377,0 2.3955,10.32324 c 0.25781,1.08139 0.47982,2.15561 0.66602,3.22266 0.40104,-1.68294 0.63736,-2.65332 0.70898,-2.91113 l 2.99707,-10.63477 2.51368,0 2.25586,7.9707 c 0.56574,1.97657 0.97394,3.83497 1.22461,5.5752 0.2005,-0.99544 0.46189,-2.13769 0.78418,-3.42676 l 2.4707,-10.11914 2.09472,0 -4.31835,15.74805 -2.00879,0 -3.31934,-11.99903 c -0.27931,-1.00259 -0.44402,-1.61847 -0.49414,-1.84765 -0.16472,0.72332 -0.31869,1.3392 -0.46191,1.84765 l -3.34082,11.99903 -2.12696,0"
         id="path3368" />
    </g>
    <g
       id="text112">
      <path
         d="m 277.5127,211.66341 c -10e-6,-2.61393 0.70182,-4.65852 2.10546,-6.13379 1.40365,-1.48241 3.21549,-2.22362 5.43555,-2.22364 1.45377,2e-5 2.76431,0.34735 3.93164,1.042 1.16731,0.69467 2.05533,1.66505 2.66406,2.91113 0.61587,1.23894 0.92382,2.64617 0.92383,4.22168 -10e-6,1.59701 -0.32228,3.02572 -0.96679,4.28613 -0.64455,1.26042 -1.55764,2.21647 -2.73926,2.86817 -1.18165,0.64453 -2.45639,0.96679 -3.82422,0.96679 -1.48243,0 -2.8073,-0.35807 -3.97461,-1.07422 -1.16732,-0.71614 -2.05176,-1.69368 -2.65332,-2.93261 -0.60156,-1.23893 -0.90235,-2.54948 -0.90234,-3.93164 m 2.14843,0.0322 c 0,1.8978 0.50846,3.39454 1.52539,4.49024 1.02409,1.08854 2.30599,1.63281 3.84571,1.63281 1.56835,0 2.85741,-0.55143 3.86718,-1.6543 1.01692,-1.10286 1.52538,-2.66763 1.52539,-4.69433 -1e-5,-1.28189 -0.21843,-2.39908 -0.65527,-3.35157 -0.4297,-0.95962 -1.06349,-1.70083 -1.90137,-2.22363 -0.83074,-0.52993 -1.76531,-0.79491 -2.80371,-0.79492 -1.47526,1e-5 -2.74642,0.50848 -3.81347,1.52539 -1.0599,1.00978 -1.58985,2.69988 -1.58985,5.07031 m 2.33106,-9.07715 0,-2.20214 2.01953,0 0,2.20214 -2.01953,0 m 4.00683,0 0,-2.20214 2.01953,0 0,2.20214 -2.01953,0"
         id="path3371" />
    </g>
    <g
       id="text114">
      <path
         d="m 310.48828,219.33333 0,-15.74805 2.08399,0 0,13.88965 7.75585,0 0,1.8584 -9.83984,0"
         id="path3374" />
    </g>
    <g
       id="text116">
      <path
         d="m 340.08008,219.33333 0,-15.74805 10.62402,0 0,1.8584 -8.54004,0 0,4.87695 7.39063,0 0,1.8584 -7.39063,0 0,7.1543 -2.08398,0"
         id="path3377" />
    </g>
    <g
       id="text118">
      <path
         d="m 369.34961,219.33333 0,-15.74805 5.94043,0 c 1.04556,2e-5 1.84407,0.0502 2.39551,0.15039 0.77342,0.12892 1.42153,0.37599 1.94433,0.74121 0.52278,0.35809 0.94172,0.86297 1.25684,1.51465 0.32225,0.65171 0.48338,1.36785 0.4834,2.14844 -2e-5,1.3392 -0.42612,2.47429 -1.27832,3.40527 -0.85223,0.92384 -2.39194,1.38575 -4.61914,1.38574 l -4.03907,0 0,6.40235 -2.08398,0 m 2.08398,-8.26074 4.07129,0 c 1.34635,0 2.3024,-0.25065 2.86817,-0.75196 0.56574,-0.50129 0.84862,-1.20669 0.84863,-2.11621 -10e-6,-0.65884 -0.16831,-1.22101 -0.50488,-1.68652 -0.32944,-0.47264 -0.76629,-0.78417 -1.31055,-0.93457 -0.35092,-0.0931 -0.99903,-0.13964 -1.94434,-0.13965 l -4.02832,0 0,5.62891"
         id="path3380" />
    </g>
    <g
       id="text120">
      <path
         d="m 68.71582,252.66667 0,-1.93359 8.067383,-10.08692 c 0.572908,-0.71613 1.117178,-1.33918 1.632813,-1.86914 l -8.78711,0 0,-1.8584 11.279297,0 0,1.8584 -8.84082,10.92481 -0.956055,1.10644 10.054688,0 0,1.8584 -12.450196,0"
         id="path3383" />
    </g>
    <g
       id="text122">
      <path
         d="m 99.070312,252.66667 -4.17871,-15.74805 2.137695,0 2.395508,10.32325 c 0.257807,1.08138 0.479812,2.1556 0.666015,3.22265 0.40104,-1.68294 0.63736,-2.65331 0.70898,-2.91113 l 2.99708,-10.63477 2.51367,0 2.25586,7.97071 c 0.56574,1.97657 0.97394,3.83496 1.22461,5.57519 0.2005,-0.99544 0.46189,-2.13769 0.78418,-3.42675 l 2.4707,-10.11915 2.09473,0 -4.31836,15.74805 -2.00879,0 -3.31934,-11.99902 c -0.27931,-1.00259 -0.44402,-1.61848 -0.49414,-1.84766 -0.16472,0.72332 -0.31869,1.33921 -0.46191,1.84766 l -3.34082,11.99902 -2.126958,0"
         id="path3386" />
    </g>
    <g
       id="text124">
      <path
         d="m 129.39258,252.66667 0,-15.74805 11.38672,0 0,1.8584 -9.30274,0 0,4.82325 8.71192,0 0,1.84765 -8.71192,0 0,5.36035 9.66797,0 0,1.8584 -11.75195,0"
         id="path3389" />
    </g>
    <g
       id="text126">
      <path
         d="m 164.00098,252.66667 0,-15.74805 2.08398,0 0,15.74805 -2.08398,0"
         id="path3392" />
    </g>
    <g
       id="text128">
      <path
         d="m 188.72656,252.66667 0,-15.74805 2.1377,0 8.27148,12.36426 0,-12.36426 1.99805,0 0,15.74805 -2.1377,0 -8.27148,-12.375 0,12.375 -1.99805,0"
         id="path3395" />
    </g>
    <g
       id="text130">
      <path
         d="m 218.64062,247.6071 1.96583,-0.17187 c 0.0931,0.78776 0.30793,1.43587 0.64453,1.94433 0.34374,0.50131 0.87369,0.90951 1.58984,1.22461 0.71614,0.30795 1.5218,0.46192 2.41699,0.46192 0.79492,0 1.49674,-0.11817 2.10547,-0.3545 0.60871,-0.23632 1.05989,-0.55859 1.35352,-0.96679 0.30077,-0.41536 0.45116,-0.86654 0.45117,-1.35352 -1e-5,-0.49413 -0.14324,-0.92382 -0.42969,-1.28906 -0.28647,-0.37239 -0.75912,-0.68391 -1.41797,-0.93457 -0.42253,-0.16471 -1.3571,-0.41894 -2.80371,-0.7627 -1.44662,-0.3509 -2.45996,-0.68033 -3.04004,-0.98828 -0.75195,-0.39387 -1.31413,-0.88085 -1.68652,-1.46094 -0.36524,-0.58723 -0.54785,-1.2425 -0.54785,-1.96582 0,-0.79491 0.22558,-1.53612 0.67676,-2.22363 0.45116,-0.69465 1.11002,-1.22101 1.97656,-1.5791 0.86653,-0.35806 1.82974,-0.53709 2.88965,-0.53711 1.16731,2e-5 2.19497,0.18979 3.083,0.56934 0.89518,0.37241 1.58267,0.92384 2.0625,1.65429 0.47981,0.73048 0.73762,1.55763 0.77344,2.48145 l -1.99805,0.15039 c -0.10743,-0.99543 -0.47266,-1.74738 -1.0957,-2.25586 -0.61589,-0.50845 -1.52898,-0.76268 -2.73926,-0.7627 -1.26042,2e-5 -2.18067,0.23277 -2.76074,0.69825 -0.57292,0.45834 -0.85938,1.01336 -0.85937,1.66504 -1e-5,0.56576 0.20409,1.03126 0.6123,1.39648 0.40104,0.36524 1.44661,0.74122 3.13672,1.12793 1.69726,0.37957 2.86099,0.71257 3.49121,0.99902 0.91666,0.42254 1.59341,0.95965 2.03027,1.61133 0.43684,0.64454 0.65526,1.38933 0.65528,2.23438 -2e-5,0.83789 -0.23992,1.62923 -0.71973,2.37402 -0.47983,0.73763 -1.17091,1.31413 -2.07324,1.72949 -0.89519,0.4082 -1.90496,0.61231 -3.0293,0.61231 -1.42513,0 -2.6211,-0.20769 -3.58789,-0.62305 -0.95964,-0.41536 -1.71517,-1.03841 -2.2666,-1.86914 -0.54427,-0.83789 -0.83073,-1.7832 -0.85938,-2.83594"
         id="path3398" />
    </g>
    <g
       id="text132">
      <path
         d="m 254.00098,252.66667 0,-15.74805 2.08398,0 0,15.74805 -2.08398,0"
         id="path3401" />
    </g>
    <g
       id="text134">
      <path
         d="m 279.39258,252.66667 0,-15.74805 11.38672,0 0,1.8584 -9.30274,0 0,4.82325 8.71192,0 0,1.84765 -8.71192,0 0,5.36035 9.66797,0 0,1.8584 -11.75195,0"
         id="path3404" />
    </g>
    <g
       id="text136">
      <path
         d="m 309.26367,252.66667 0,-15.74805 5.9082,0 c 1.20312,2e-5 2.16634,0.16115 2.88965,0.4834 0.73046,0.31512 1.2998,0.80568 1.70801,1.47168 0.41535,0.65887 0.62304,1.34995 0.62305,2.07325 -1e-5,0.67318 -0.18263,1.30697 -0.54785,1.90136 -0.36525,0.59441 -0.91668,1.07423 -1.6543,1.43946 0.95246,0.2793 1.68293,0.75554 2.19141,1.42871 0.51561,0.67318 0.77342,1.4681 0.77343,2.38476 -10e-6,0.73764 -0.15756,1.42514 -0.47265,2.0625 -0.30796,0.63021 -0.6911,1.11719 -1.14942,1.46094 -0.45834,0.34375 -1.03484,0.60514 -1.72949,0.78418 -0.68751,0.17187 -1.53256,0.25781 -2.53516,0.25781 l -6.00488,0 m 2.08399,-9.13086 3.40527,0 c 0.92382,1e-5 1.58625,-0.0609 1.9873,-0.18261 0.52994,-0.15755 0.9274,-0.41894 1.19239,-0.78418 0.27212,-0.36523 0.40819,-0.82356 0.4082,-1.375 -1e-5,-0.52278 -0.12534,-0.98111 -0.37598,-1.375 -0.25066,-0.40103 -0.60873,-0.67317 -1.07422,-0.81641 -0.4655,-0.15038 -1.264,-0.22557 -2.3955,-0.22559 l -3.14746,0 0,4.75879 m 0,7.27246 3.92089,0 c 0.67317,1e-5 1.14583,-0.0251 1.41797,-0.0752 0.47981,-0.0859 0.88085,-0.22917 1.20313,-0.42969 0.32225,-0.20052 0.58723,-0.49056 0.79492,-0.87012 0.20767,-0.38671 0.31151,-0.83072 0.31152,-1.33203 -10e-6,-0.58723 -0.1504,-1.0957 -0.45117,-1.52539 -0.30079,-0.43684 -0.71973,-0.7412 -1.25683,-0.91308 -0.52996,-0.17903 -1.29624,-0.26855 -2.29883,-0.26856 l -3.6416,0 0,5.41406"
         id="path3407" />
    </g>
    <g
       id="text138">
      <path
         d="m 339.39258,252.66667 0,-15.74805 11.38672,0 0,1.8584 -9.30274,0 0,4.82325 8.71192,0 0,1.84765 -8.71192,0 0,5.36035 9.66797,0 0,1.8584 -11.75195,0"
         id="path3410" />
    </g>
    <g
       id="text140">
      <path
         d="m 368.72656,252.66667 0,-15.74805 2.1377,0 8.27148,12.36426 0,-12.36426 1.99805,0 0,15.74805 -2.1377,0 -8.27148,-12.375 0,12.375 -1.99805,0"
         id="path3413" />
    </g>
    <g
       id="text142">
      <path
         d="m 69.263672,286 0,-15.74805 2.083984,0 0,7.80957 7.820313,-7.80957 2.825195,0 -6.606445,6.38086 6.896484,9.36719 -2.75,0 -5.607422,-7.9707 -2.578125,2.51367 0,5.45703 -2.083984,0"
         id="path3416" />
    </g>
    <g
       id="text144">
      <path
         d="m 98.748047,286 0,-15.74805 5.424803,0 c 1.2246,2e-5 2.15917,0.0752 2.80371,0.22559 0.90234,0.2077 1.67219,0.58367 2.30957,1.12793 0.83072,0.70184 1.45018,1.6006 1.8584,2.69629 0.41535,1.08855 0.62303,2.33464 0.62305,3.73828 -2e-5,1.19597 -0.13966,2.25586 -0.41895,3.17969 -0.27931,0.92383 -0.63738,1.6901 -1.07422,2.29882 -0.43686,0.60157 -0.91667,1.07781 -1.43945,1.42872 -0.51564,0.34375 -1.14226,0.60514 -1.87988,0.78418 C 106.2246,285.91048 105.38313,286 104.43066,286 l -5.682613,0 m 2.083983,-1.8584 3.36231,0 c 1.0384,0 1.85122,-0.0967 2.43847,-0.29004 0.59439,-0.19335 1.06705,-0.46549 1.41797,-0.8164 0.49413,-0.49414 0.87727,-1.15658 1.14942,-1.98731 0.27928,-0.83788 0.41893,-1.85123 0.41894,-3.04004 -1e-5,-1.64712 -0.27215,-2.91112 -0.81641,-3.79199 -0.53712,-0.88801 -1.19239,-1.48241 -1.96582,-1.7832 -0.5586,-0.21483 -1.45736,-0.32225 -2.69628,-0.32227 l -3.3086,0 0,12.03125"
         id="path3419" />
    </g>
    <g
       id="text146">
      <path
         d="m 128.78027,286 0,-15.74805 6.98243,0 c 1.40363,2e-5 2.47069,0.14325 3.20117,0.42969 0.73045,0.27931 1.31411,0.77703 1.75097,1.49316 0.43684,0.71616 0.65526,1.5075 0.65528,2.37403 -2e-5,1.1172 -0.36167,2.05893 -1.08496,2.82519 -0.72332,0.76629 -1.84051,1.25327 -3.35157,1.46094 0.55143,0.26498 0.97037,0.52637 1.25684,0.78418 0.60871,0.5586 1.18521,1.25684 1.72949,2.09473 l 2.73926,4.28613 -2.62109,0 -2.08399,-3.27637 c -0.60873,-0.94531 -1.11003,-1.66861 -1.5039,-2.16992 -0.39389,-0.5013 -0.74839,-0.85221 -1.06348,-1.05273 -0.30795,-0.20052 -0.62306,-0.34017 -0.94531,-0.41895 -0.23634,-0.0501 -0.62306,-0.0752 -1.16016,-0.0752 l -2.41699,0 0,6.99316 -2.08399,0 m 2.08399,-8.79785 4.47949,0 c 0.95246,1e-5 1.69726,-0.0967 2.23437,-0.29004 0.5371,-0.20051 0.94531,-0.51562 1.22461,-0.94531 0.27929,-0.43684 0.41894,-0.9095 0.41895,-1.41797 -1e-5,-0.74478 -0.27215,-1.35709 -0.81641,-1.83692 -0.53712,-0.4798 -1.38933,-0.71971 -2.55664,-0.71972 l -4.98437,0 0,5.20996"
         id="path3422" />
    </g>
    <g
       id="text148">
      <path
         d="m 159.39258,286 0,-15.74805 11.38672,0 0,1.8584 -9.30274,0 0,4.82324 8.71192,0 0,1.84766 -8.71192,0 0,5.36035 9.66797,0 0,1.8584 -11.75195,0"
         id="path3425" />
    </g>
    <g
       id="text150">
      <path
         d="m 194.00098,286 0,-15.74805 2.08398,0 0,15.74805 -2.08398,0"
         id="path3428" />
    </g>
    <g
       id="text152">
      <path
         d="m 218.78027,286 0,-15.74805 6.98243,0 c 1.40363,2e-5 2.47069,0.14325 3.20117,0.42969 0.73045,0.27931 1.31411,0.77703 1.75097,1.49316 0.43684,0.71616 0.65526,1.5075 0.65528,2.37403 -2e-5,1.1172 -0.36167,2.05893 -1.08496,2.82519 -0.72332,0.76629 -1.84051,1.25327 -3.35157,1.46094 0.55143,0.26498 0.97037,0.52637 1.25684,0.78418 0.60871,0.5586 1.18521,1.25684 1.72949,2.09473 l 2.73926,4.28613 -2.62109,0 -2.08399,-3.27637 c -0.60873,-0.94531 -1.11003,-1.66861 -1.5039,-2.16992 -0.39389,-0.5013 -0.74839,-0.85221 -1.06348,-1.05273 -0.30795,-0.20052 -0.62306,-0.34017 -0.94531,-0.41895 -0.23634,-0.0501 -0.62306,-0.0752 -1.16016,-0.0752 l -2.41699,0 0,6.99316 -2.08399,0 m 2.08399,-8.79785 4.47949,0 c 0.95246,1e-5 1.69726,-0.0967 2.23437,-0.29004 0.5371,-0.20051 0.94531,-0.51562 1.22461,-0.94531 0.27929,-0.43684 0.41894,-0.9095 0.41895,-1.41797 -1e-5,-0.74478 -0.27215,-1.35709 -0.81641,-1.83692 -0.53712,-0.4798 -1.38933,-0.71971 -2.55664,-0.71972 l -4.98437,0 0,5.20996"
         id="path3431" />
    </g>
    <g
       id="text154">
      <path
         d="m 248.8125,286 0,-15.74805 2.08398,0 0,6.4668 8.18555,0 0,-6.4668 2.08399,0 0,15.74805 -2.08399,0 0,-7.42285 -8.18555,0 0,7.42285 -2.08398,0"
         id="path3434" />
    </g>
    <g
       id="text156">
      <path
         d="m 280.08008,286 0,-15.74805 10.62402,0 0,1.8584 -8.54004,0 0,4.87695 7.39063,0 0,1.8584 -7.39063,0 0,7.1543 -2.08398,0"
         id="path3437" />
    </g>
    <g
       id="text158">
      <path
         d="m 319.08203,270.25195 2.08399,0 0,9.09864 c -2e-5,1.58268 -0.17905,2.83952 -0.53711,3.7705 -0.35809,0.931 -1.0062,1.69011 -1.94434,2.27735 -0.931,0.58008 -2.15561,0.87011 -3.67383,0.87011 -1.47526,0 -2.68197,-0.25423 -3.62012,-0.76269 -0.93815,-0.50846 -1.60775,-1.24251 -2.00878,-2.20215 -0.40105,-0.96679 -0.60157,-2.2845 -0.60157,-3.95312 l 0,-9.09864 2.08399,0 0,9.08789 c -10e-6,1.36785 0.12532,2.37761 0.37597,3.0293 0.25781,0.64453 0.69466,1.14226 1.31055,1.49316 0.62304,0.35092 1.38216,0.52637 2.27734,0.52637 1.53255,0 2.62467,-0.34733 3.27637,-1.04199 0.65168,-0.69466 0.97753,-2.03027 0.97754,-4.00684 l 0,-9.08789 m -7.1543,-0.96679 0,-2.20215 2.01954,0 0,2.20215 -2.01954,0 m 4.00684,0 0,-2.20215 2.01953,0 0,2.20215 -2.01953,0"
         id="path3440" />
    </g>
    <g
       id="text160">
      <path
         d="m 338.72656,286 0,-15.74805 2.1377,0 8.27148,12.36426 0,-12.36426 1.99805,0 0,15.74805 -2.1377,0 -8.27148,-12.375 0,12.375 -1.99805,0"
         id="path3443" />
    </g>
    <g
       id="text162">
      <path
         d="m 370.08008,286 0,-15.74805 10.62402,0 0,1.8584 -8.54004,0 0,4.87695 7.39063,0 0,1.8584 -7.39063,0 0,7.1543 -2.08398,0"
         id="path3446" />
    </g>
    <g
       id="text164">
      <path
         d="m 69.392578,319.33334 0,-15.74804 11.386719,0 0,1.8584 -9.302735,0 0,4.82324 8.711915,0 0,1.84765 -8.711915,0 0,5.36036 9.667969,0 0,1.85839 -11.751953,0"
         id="path3449" />
    </g>
    <g
       id="text166">
      <path
         d="m 100.48828,319.33334 0,-15.74804 2.08399,0 0,13.88965 7.75586,0 0,1.85839 -9.83985,0"
         id="path3452" />
    </g>
    <g
       id="text168">
      <path
         d="m 130.08008,319.33334 0,-15.74804 10.62402,0 0,1.8584 -8.54004,0 0,4.87695 7.39063,0 0,1.8584 -7.39063,0 0,7.15429 -2.08398,0"
         id="path3455" />
    </g>
    <g
       id="text170">
      <path
         d="m 158.72656,319.33334 0,-15.74804 2.1377,0 8.27148,12.36425 0,-12.36425 1.99805,0 0,15.74804 -2.1377,0 -8.27148,-12.375 0,12.375 -1.99805,0"
         id="path3458" />
    </g>
    <g
       id="text172">
      <path
         d="m 189.39258,319.33334 0,-15.74804 11.38672,0 0,1.8584 -9.30274,0 0,4.82324 8.71192,0 0,1.84765 -8.71192,0 0,5.36036 9.66797,0 0,1.85839 -11.75195,0"
         id="path3461" />
    </g>
    <g
       id="text174">
      <path
         d="m 229.08203,303.5853 2.08399,0 0,9.09863 c -2e-5,1.58269 -0.17905,2.83952 -0.53711,3.77051 -0.35809,0.93099 -1.0062,1.6901 -1.94434,2.27734 -0.931,0.58008 -2.15561,0.87012 -3.67383,0.87012 -1.47526,0 -2.68197,-0.25423 -3.62012,-0.7627 -0.93815,-0.50846 -1.60775,-1.24251 -2.00878,-2.20215 -0.40105,-0.96679 -0.60157,-2.2845 -0.60157,-3.95312 l 0,-9.09863 2.08399,0 0,9.08789 c -1e-5,1.36784 0.12532,2.37761 0.37597,3.02929 0.25781,0.64454 0.69466,1.14226 1.31055,1.49317 0.62304,0.35091 1.38216,0.52637 2.27734,0.52637 1.53255,0 2.62467,-0.34733 3.27637,-1.042 0.65168,-0.69465 0.97753,-2.03027 0.97754,-4.00683 l 0,-9.08789"
         id="path3464" />
    </g>
    <g
       id="text176">
      <path
         d="m 248.72656,319.33334 0,-15.74804 2.1377,0 8.27148,12.36425 0,-12.36425 1.99805,0 0,15.74804 -2.1377,0 -8.27148,-12.375 0,12.375 -1.99805,0"
         id="path3467" />
    </g>
    <g
       id="text178">
      <path
         d="m 283.85059,319.33334 -6.10157,-15.74804 2.25586,0 4.09278,11.44043 c 0.32942,0.91667 0.60513,1.77604 0.82714,2.57812 0.24349,-0.85937 0.52636,-1.71875 0.84864,-2.57812 l 4.2539,-11.44043 2.12696,0 -6.16602,15.74804 -2.13769,0"
         id="path3470" />
    </g>
    <g
       id="text180">
      <path
         d="m 314.00098,319.33334 0,-15.74804 2.08398,0 0,15.74804 -2.08398,0"
         id="path3473" />
    </g>
    <g
       id="text182">
      <path
         d="m 339.39258,319.33334 0,-15.74804 11.38672,0 0,1.8584 -9.30274,0 0,4.82324 8.71192,0 0,1.84765 -8.71192,0 0,5.36036 9.66797,0 0,1.85839 -11.75195,0"
         id="path3476" />
    </g>
    <g
       id="text184">
      <path
         d="m 368.78027,319.33334 0,-15.74804 6.98243,0 c 1.40363,10e-6 2.47069,0.14324 3.20117,0.42968 0.73045,0.27932 1.31411,0.77704 1.75097,1.49317 0.43684,0.71616 0.65526,1.5075 0.65528,2.37402 -2e-5,1.1172 -0.36167,2.05893 -1.08496,2.8252 -0.72332,0.76628 -1.84051,1.25326 -3.35157,1.46093 0.55143,0.26499 0.97037,0.52638 1.25684,0.78418 0.60871,0.5586 1.18521,1.25685 1.72949,2.09473 l 2.73926,4.28613 -2.62109,0 -2.08399,-3.27636 c -0.60873,-0.94531 -1.11003,-1.66862 -1.5039,-2.16993 -0.39389,-0.50129 -0.74839,-0.8522 -1.06348,-1.05273 -0.30795,-0.20051 -0.62306,-0.34016 -0.94531,-0.41895 -0.23634,-0.0501 -0.62306,-0.0752 -1.16016,-0.0752 l -2.41699,0 0,6.99316 -2.08399,0 m 2.08399,-8.79785 4.47949,0 c 0.95246,10e-6 1.69726,-0.0967 2.23437,-0.29004 0.5371,-0.20051 0.94531,-0.51561 1.22461,-0.94531 0.27929,-0.43684 0.41894,-0.90949 0.41895,-1.41797 -10e-6,-0.74478 -0.27215,-1.35708 -0.81641,-1.83691 -0.53712,-0.47981 -1.38933,-0.71971 -2.55664,-0.71973 l -4.98437,0 0,5.20996"
         id="path3479" />
    </g>
    <g
       id="text186">
      <path
         d="m 69.070312,352.66666 -4.17871,-15.74805 2.137695,0 2.395508,10.32324 c 0.257807,1.08139 0.479812,2.1556 0.666015,3.22266 0.401036,-1.68294 0.637364,-2.65332 0.708985,-2.91113 l 2.99707,-10.63477 2.513672,0 2.255859,7.9707 c 0.565741,1.97657 0.973944,3.83497 1.22461,5.5752 0.200505,-0.99544 0.461898,-2.13769 0.784179,-3.42676 l 2.470703,-10.11914 2.094727,0 -4.318359,15.74805 -2.008789,0 -3.319336,-11.99903 C 75.214833,339.66504 75.05012,339.04916 75,338.81998 c -0.164724,0.72332 -0.318695,1.3392 -0.461914,1.84765 l -3.34082,11.99903 -2.126954,0"
         id="path3482" />
    </g>
    <g
       id="text188">
      <path
         d="m 97.620117,352.66666 6.047853,-15.74805 2.24512,0 6.44531,15.74805 -2.37402,0 -1.83692,-4.76953 -6.58496,0 -1.729492,4.76953 -2.212891,0 m 4.543943,-6.4668 5.33887,0 -1.64355,-4.36133 c -0.50131,-1.32486 -0.87371,-2.4134 -1.11719,-3.26562 -0.20053,1.00978 -0.48341,2.01238 -0.84864,3.00781 l -1.72949,4.61914"
         id="path3485" />
    </g>
    <g
       id="text190">
      <path
         d="m 139.98437,347.14517 2.08399,0.52637 c -0.43686,1.71159 -1.22462,3.01856 -2.36328,3.9209 -1.13152,0.89518 -2.51726,1.34277 -4.15723,1.34277 -1.69727,0 -3.07943,-0.34375 -4.14648,-1.03125 -1.0599,-0.69466 -1.86915,-1.69726 -2.42774,-3.00781 -0.55143,-1.31054 -0.82715,-2.71777 -0.82715,-4.22168 0,-1.63997 0.31153,-3.06867 0.93457,-4.28613 0.63021,-1.2246 1.52181,-2.15201 2.67481,-2.78223 1.16015,-0.63735 2.43489,-0.95604 3.82422,-0.95606 1.57551,2e-5 2.90038,0.40106 3.97461,1.20313 1.0742,0.8021 1.82257,1.93003 2.24511,3.38379 l -2.05175,0.4834 c -0.36525,-1.14582 -0.8952,-1.98013 -1.58985,-2.50293 -0.69467,-0.52277 -1.56837,-0.78417 -2.62109,-0.78418 -1.21029,10e-6 -2.22364,0.29005 -3.04004,0.87012 -0.80925,0.58009 -1.37858,1.36068 -1.70801,2.34179 -0.32943,0.97397 -0.49414,1.98015 -0.49414,3.01856 0,1.3392 0.19336,2.51009 0.58008,3.51269 0.39388,0.99545 1.0026,1.74024 1.82617,2.23438 0.82356,0.49414 1.71516,0.74121 2.67481,0.74121 1.1673,0 2.15559,-0.33659 2.96484,-1.00977 0.80923,-0.67317 1.35708,-1.67219 1.64355,-2.99707"
         id="path3488" />
    </g>
    <g
       id="text192">
      <path
         d="m 158.8125,352.66666 0,-15.74805 2.08398,0 0,6.4668 8.18555,0 0,-6.4668 2.08399,0 0,15.74805 -2.08399,0 0,-7.42286 -8.18555,0 0,7.42286 -2.08398,0"
         id="path3491" />
    </g>
    <g
       id="text194">
      <path
         d="m 193.97949,352.66666 0,-13.88965 -5.18847,0 0,-1.8584 12.48242,0 0,1.8584 -5.20996,0 0,13.88965 -2.08399,0"
         id="path3494" />
    </g>
    <g
       id="text196">
      <path
         d="m 218.71582,352.66666 0,-1.9336 8.06738,-10.08691 c 0.57291,-0.71613 1.11718,-1.33918 1.63282,-1.86914 l -8.78711,0 0,-1.8584 11.27929,0 0,1.8584 -8.84082,10.9248 -0.95605,1.10645 10.05469,0 0,1.8584 -12.4502,0"
         id="path3497" />
    </g>
    <g
       id="text198">
      <path
         d="m 249.39258,352.66666 0,-15.74805 11.38672,0 0,1.8584 -9.30274,0 0,4.82324 8.71192,0 0,1.84766 -8.71192,0 0,5.36035 9.66797,0 0,1.8584 -11.75195,0"
         id="path3500" />
    </g>
    <g
       id="text200">
      <path
         d="m 278.8125,352.66666 0,-15.74805 2.08398,0 0,6.4668 8.18555,0 0,-6.4668 2.08399,0 0,15.74805 -2.08399,0 0,-7.42286 -8.18555,0 0,7.42286 -2.08398,0"
         id="path3503" />
    </g>
    <g
       id="text202">
      <path
         d="m 308.72656,352.66666 0,-15.74805 2.1377,0 8.27148,12.36426 0,-12.36426 1.99805,0 0,15.74805 -2.1377,0 -8.27148,-12.375 0,12.375 -1.99805,0"
         id="path3506" />
    </g>
    <g
       id="text204">
      <path
         d="m 338.78027,352.66666 0,-15.74805 6.98243,0 c 1.40363,2e-5 2.47069,0.14324 3.20117,0.42969 0.73045,0.27931 1.31411,0.77703 1.75097,1.49316 0.43684,0.71616 0.65526,1.5075 0.65528,2.37402 -2e-5,1.1172 -0.36167,2.05893 -1.08496,2.8252 -0.72332,0.76628 -1.84051,1.25326 -3.35157,1.46094 0.55143,0.26498 0.97037,0.52637 1.25684,0.78418 0.60871,0.5586 1.18521,1.25684 1.72949,2.09472 l 2.73926,4.28614 -2.62109,0 -2.08399,-3.27637 c -0.60873,-0.94531 -1.11003,-1.66862 -1.5039,-2.16992 -0.39389,-0.5013 -0.74839,-0.85221 -1.06348,-1.05274 -0.30795,-0.20051 -0.62306,-0.34016 -0.94531,-0.41894 -0.23634,-0.0501 -0.62306,-0.0752 -1.16016,-0.0752 l -2.41699,0 0,6.99317 -2.08399,0 m 2.08399,-8.79786 4.47949,0 c 0.95246,10e-6 1.69726,-0.0967 2.23437,-0.29003 0.5371,-0.20052 0.94531,-0.51562 1.22461,-0.94532 0.27929,-0.43684 0.41894,-0.90949 0.41895,-1.41797 -10e-6,-0.74477 -0.27215,-1.35708 -0.81641,-1.83691 -0.53712,-0.4798 -1.38933,-0.71971 -2.55664,-0.71973 l -4.98437,0 0,5.20996"
         id="path3509" />
    </g>
    <g
       id="text206">
      <path
         d="m 368.64062,347.60709 1.96583,-0.17188 c 0.0931,0.78777 0.30793,1.43588 0.64453,1.94434 0.34374,0.5013 0.87369,0.9095 1.58984,1.22461 0.71614,0.30794 1.5218,0.46191 2.41699,0.46191 0.79492,0 1.49674,-0.11816 2.10547,-0.35449 0.60871,-0.23633 1.05989,-0.55859 1.35352,-0.9668 0.30077,-0.41536 0.45116,-0.86653 0.45117,-1.35351 -1e-5,-0.49414 -0.14324,-0.92383 -0.42969,-1.28907 -0.28647,-0.37239 -0.75912,-0.68391 -1.41797,-0.93457 -0.42253,-0.1647 -1.3571,-0.41894 -2.80371,-0.76269 -1.44662,-0.35091 -2.45996,-0.68033 -3.04004,-0.98828 -0.75195,-0.39388 -1.31413,-0.88085 -1.68652,-1.46094 -0.36524,-0.58723 -0.54785,-1.2425 -0.54785,-1.96582 0,-0.79491 0.22558,-1.53612 0.67676,-2.22363 0.45116,-0.69465 1.11002,-1.22102 1.97656,-1.57911 0.86653,-0.35805 1.82974,-0.53709 2.88965,-0.53711 1.16731,2e-5 2.19497,0.1898 3.083,0.56934 0.89518,0.37241 1.58267,0.92384 2.0625,1.6543 0.47981,0.73048 0.73762,1.55763 0.77344,2.48144 l -1.99805,0.15039 c -0.10743,-0.99543 -0.47266,-1.74738 -1.0957,-2.25586 -0.61589,-0.50845 -1.52898,-0.76268 -2.73926,-0.76269 -1.26042,1e-5 -2.18067,0.23276 -2.76074,0.69824 -0.57292,0.45835 -0.85938,1.01336 -0.85937,1.66504 -1e-5,0.56577 0.20409,1.03126 0.6123,1.39648 0.40104,0.36525 1.44661,0.74123 3.13672,1.12793 1.69726,0.37957 2.86099,0.71258 3.49121,0.99903 0.91666,0.42253 1.59341,0.95964 2.03027,1.61133 0.43684,0.64453 0.65526,1.38932 0.65528,2.23437 -2e-5,0.8379 -0.23992,1.62924 -0.71973,2.37402 -0.47983,0.73764 -1.17091,1.31413 -2.07324,1.7295 -0.89519,0.4082 -1.90496,0.6123 -3.0293,0.6123 -1.42513,0 -2.6211,-0.20768 -3.58789,-0.62305 -0.95964,-0.41536 -1.71517,-1.03841 -2.2666,-1.86914 -0.54427,-0.83788 -0.83073,-1.7832 -0.85938,-2.83593"
         id="path3512" />
    </g>
    <g
       id="text208">
      <path
         d="m 69.263672,386 0,-15.74805 5.908203,0 c 1.203116,2e-5 2.166331,0.16115 2.889648,0.4834 0.730458,0.31512 1.299793,0.80568 1.708008,1.47168 0.415352,0.65887 0.623034,1.34995 0.623047,2.07324 -1.3e-5,0.67319 -0.18263,1.30698 -0.547851,1.90137 -0.365247,0.59441 -0.916678,1.07423 -1.654297,1.43945 0.952462,0.27931 1.68293,0.75555 2.191406,1.42871 0.515612,0.67319 0.773424,1.46811 0.773437,2.38477 -1.3e-5,0.73763 -0.157565,1.42513 -0.472656,2.0625 -0.307955,0.63021 -0.691093,1.11719 -1.149414,1.46094 -0.458345,0.34375 -1.034841,0.60514 -1.729492,0.78418 C 77.116201,385.91406 76.27115,386 75.268555,386 l -6.004883,0 m 2.083984,-9.13086 3.405274,0 c 0.92382,10e-6 1.586254,-0.0609 1.987304,-0.18262 0.529939,-0.15754 0.927399,-0.41893 1.192383,-0.78418 0.272125,-0.36522 0.408193,-0.82355 0.408203,-1.375 -10e-6,-0.52277 -0.125336,-0.9811 -0.375976,-1.375 -0.250661,-0.40102 -0.608734,-0.67316 -1.074219,-0.8164 -0.465504,-0.15038 -1.264005,-0.22557 -2.395508,-0.22559 l -3.147461,0 0,4.75879 m 0,7.27246 3.920899,0 c 0.673168,0 1.145824,-0.0251 1.417968,-0.0752 0.479809,-0.0859 0.88085,-0.22917 1.203125,-0.42969 0.322256,-0.20052 0.587229,-0.49056 0.794922,-0.87012 0.207671,-0.38671 0.311512,-0.83072 0.311524,-1.33203 -1.2e-5,-0.58723 -0.150402,-1.0957 -0.451172,-1.52539 -0.300792,-0.43684 -0.719737,-0.7412 -1.256836,-0.91309 -0.529957,-0.17903 -1.296232,-0.26854 -2.298828,-0.26855 l -3.641602,0 0,5.41406"
         id="path3515" />
    </g>
    <g
       id="text210">
      <path
         d="m 98.640625,380.94043 1.965825,-0.17188 c 0.0931,0.78777 0.30793,1.43588 0.64453,1.94434 0.34374,0.50131 0.87369,0.90951 1.58984,1.22461 0.71614,0.30794 1.5218,0.46192 2.41699,0.46191 0.79492,1e-5 1.49674,-0.11816 2.10547,-0.35449 0.60871,-0.23632 1.05989,-0.55859 1.35352,-0.9668 0.30077,-0.41536 0.45116,-0.86653 0.45117,-1.35351 -1e-5,-0.49414 -0.14324,-0.92382 -0.42969,-1.28906 -0.28647,-0.37239 -0.75912,-0.68392 -1.41797,-0.93457 -0.42253,-0.16471 -1.3571,-0.41894 -2.80371,-0.7627 -1.44662,-0.3509 -2.45996,-0.68033 -3.04004,-0.98828 -0.75195,-0.39387 -1.31413,-0.88085 -1.686521,-1.46094 -0.365236,-0.58723 -0.547853,-1.2425 -0.547852,-1.96582 -10e-7,-0.79491 0.225585,-1.53612 0.676758,-2.22363 0.451165,-0.69465 1.110025,-1.22101 1.976565,-1.5791 0.86653,-0.35806 1.82974,-0.5371 2.88965,-0.53711 1.16731,10e-6 2.19497,0.18979 3.083,0.56933 0.89518,0.37242 1.58267,0.92385 2.0625,1.6543 0.47981,0.73048 0.73762,1.55763 0.77344,2.48145 l -1.99805,0.15039 c -0.10743,-0.99543 -0.47266,-1.74739 -1.0957,-2.25586 -0.61589,-0.50845 -1.52898,-0.76268 -2.73926,-0.7627 -1.26042,2e-5 -2.18067,0.23276 -2.76074,0.69824 -0.57292,0.45835 -0.85938,1.01336 -0.85937,1.66504 -1e-5,0.56577 0.20409,1.03126 0.6123,1.39649 0.40104,0.36524 1.44661,0.74122 3.13672,1.12793 1.69726,0.37956 2.86099,0.71257 3.49121,0.99902 0.91666,0.42254 1.59341,0.95964 2.03027,1.61133 0.43684,0.64454 0.65526,1.38933 0.65528,2.23437 -2e-5,0.8379 -0.23992,1.62924 -0.71973,2.37403 -0.47983,0.73763 -1.17091,1.31413 -2.07324,1.72949 -0.89519,0.4082 -1.90496,0.6123 -3.0293,0.6123 -1.42513,0 -2.6211,-0.20768 -3.58789,-0.62304 -0.95964,-0.41537 -1.71517,-1.03841 -2.2666,-1.86914 -0.544272,-0.83789 -0.83073,-1.7832 -0.859375,-2.83594"
         id="path3518" />
    </g>
    <g
       id="text212">
      <path
         d="m 129.39258,386 0,-15.74805 11.38672,0 0,1.8584 -9.30274,0 0,4.82324 8.71192,0 0,1.84766 -8.71192,0 0,5.36035 9.66797,0 0,1.8584 -11.75195,0"
         id="path3521" />
    </g>
    <g
       id="text214">
      <path
         d="m 169.98437,380.47852 2.08399,0.52636 c -0.43686,1.71159 -1.22462,3.01856 -2.36328,3.9209 -1.13152,0.89518 -2.51726,1.34277 -4.15723,1.34277 -1.69727,0 -3.07943,-0.34375 -4.14648,-1.03125 -1.0599,-0.69466 -1.86915,-1.69726 -2.42774,-3.00781 -0.55143,-1.31054 -0.82715,-2.71776 -0.82715,-4.22168 0,-1.63996 0.31153,-3.06867 0.93457,-4.28613 0.63021,-1.2246 1.52181,-2.152 2.67481,-2.78223 1.16015,-0.63735 2.43489,-0.95604 3.82422,-0.95605 1.57551,10e-6 2.90038,0.40106 3.97461,1.20312 1.0742,0.8021 1.82257,1.93003 2.24511,3.38379 l -2.05175,0.4834 c -0.36525,-1.14582 -0.8952,-1.98013 -1.58985,-2.50293 -0.69467,-0.52277 -1.56837,-0.78416 -2.62109,-0.78418 -1.21029,2e-5 -2.22364,0.29005 -3.04004,0.87012 -0.80925,0.58009 -1.37858,1.36069 -1.70801,2.3418 -0.32943,0.97396 -0.49414,1.98015 -0.49414,3.01855 0,1.3392 0.19336,2.5101 0.58008,3.5127 0.39388,0.99544 1.0026,1.74023 1.82617,2.23437 0.82356,0.49414 1.71516,0.74121 2.67481,0.74121 1.1673,0 2.15559,-0.33659 2.96484,-1.00976 0.80923,-0.67318 1.35708,-1.6722 1.64355,-2.99707"
         id="path3524" />
    </g>
    <g
       id="text216">
      <path
         d="m 188.8125,386 0,-15.74805 2.08398,0 0,6.4668 8.18555,0 0,-6.4668 2.08399,0 0,15.74805 -2.08399,0 0,-7.42285 -8.18555,0 0,7.42285 -2.08398,0"
         id="path3527" />
    </g>
    <g
       id="text218">
      <path
         d="m 218.64062,380.94043 1.96583,-0.17188 c 0.0931,0.78777 0.30793,1.43588 0.64453,1.94434 0.34374,0.50131 0.87369,0.90951 1.58984,1.22461 0.71614,0.30794 1.5218,0.46192 2.41699,0.46191 0.79492,1e-5 1.49674,-0.11816 2.10547,-0.35449 0.60871,-0.23632 1.05989,-0.55859 1.35352,-0.9668 0.30077,-0.41536 0.45116,-0.86653 0.45117,-1.35351 -1e-5,-0.49414 -0.14324,-0.92382 -0.42969,-1.28906 -0.28647,-0.37239 -0.75912,-0.68392 -1.41797,-0.93457 -0.42253,-0.16471 -1.3571,-0.41894 -2.80371,-0.7627 -1.44662,-0.3509 -2.45996,-0.68033 -3.04004,-0.98828 -0.75195,-0.39387 -1.31413,-0.88085 -1.68652,-1.46094 -0.36524,-0.58723 -0.54785,-1.2425 -0.54785,-1.96582 0,-0.79491 0.22558,-1.53612 0.67676,-2.22363 0.45116,-0.69465 1.11002,-1.22101 1.97656,-1.5791 0.86653,-0.35806 1.82974,-0.5371 2.88965,-0.53711 1.16731,10e-6 2.19497,0.18979 3.083,0.56933 0.89518,0.37242 1.58267,0.92385 2.0625,1.6543 0.47981,0.73048 0.73762,1.55763 0.77344,2.48145 l -1.99805,0.15039 c -0.10743,-0.99543 -0.47266,-1.74739 -1.0957,-2.25586 -0.61589,-0.50845 -1.52898,-0.76268 -2.73926,-0.7627 -1.26042,2e-5 -2.18067,0.23276 -2.76074,0.69824 -0.57292,0.45835 -0.85938,1.01336 -0.85937,1.66504 -1e-5,0.56577 0.20409,1.03126 0.6123,1.39649 0.40104,0.36524 1.44661,0.74122 3.13672,1.12793 1.69726,0.37956 2.86099,0.71257 3.49121,0.99902 0.91666,0.42254 1.59341,0.95964 2.03027,1.61133 0.43684,0.64454 0.65526,1.38933 0.65528,2.23437 -2e-5,0.8379 -0.23992,1.62924 -0.71973,2.37403 -0.47983,0.73763 -1.17091,1.31413 -2.07324,1.72949 -0.89519,0.4082 -1.90496,0.6123 -3.0293,0.6123 -1.42513,0 -2.6211,-0.20768 -3.58789,-0.62304 -0.95964,-0.41537 -1.71517,-1.03841 -2.2666,-1.86914 -0.54427,-0.83789 -0.83073,-1.7832 -0.85938,-2.83594"
         id="path3530" />
    </g>
    <g
       id="text220">
      <path
         d="m 250.08008,386 0,-15.74805 10.62402,0 0,1.8584 -8.54004,0 0,4.87695 7.39063,0 0,1.8584 -7.39063,0 0,7.1543 -2.08398,0"
         id="path3533" />
    </g>
    <g
       id="text222">
      <path
         d="m 277.45898,386 0,-15.74805 3.13672,0 3.72754,11.15039 c 0.34374,1.03842 0.59439,1.81544 0.75196,2.33106 0.17902,-0.57292 0.45832,-1.41439 0.83789,-2.52442 l 3.7705,-10.95703 2.80371,0 0,15.74805 -2.00878,0 0,-13.18066 -4.57618,13.18066 -1.87988,0 -4.55469,-13.40625 0,13.40625 -2.00879,0"
         id="path3536" />
    </g>
    <g
       id="text224">
      <path
         d="m 319.08203,370.25195 2.08399,0 0,9.09864 c -2e-5,1.58268 -0.17905,2.83952 -0.53711,3.7705 -0.35809,0.931 -1.0062,1.69011 -1.94434,2.27735 -0.931,0.58008 -2.15561,0.87011 -3.67383,0.87011 -1.47526,0 -2.68197,-0.25423 -3.62012,-0.76269 -0.93815,-0.50846 -1.60775,-1.24251 -2.00878,-2.20215 -0.40105,-0.96679 -0.60157,-2.2845 -0.60157,-3.95312 l 0,-9.09864 2.08399,0 0,9.08789 c -10e-6,1.36785 0.12532,2.37761 0.37597,3.0293 0.25781,0.64453 0.69466,1.14226 1.31055,1.49316 0.62304,0.35092 1.38216,0.52637 2.27734,0.52637 1.53255,0 2.62467,-0.34733 3.27637,-1.04199 0.65168,-0.69466 0.97753,-2.03027 0.97754,-4.00684 l 0,-9.08789"
         id="path3539" />
    </g>
    <g
       id="text226">
      <path
         d="m 338.8125,386 0,-15.74805 2.08398,0 0,6.4668 8.18555,0 0,-6.4668 2.08399,0 0,15.74805 -2.08399,0 0,-7.42285 -8.18555,0 0,7.42285 -2.08398,0"
         id="path3542" />
    </g>
    <g
       id="text228">
      <path
         d="m 368.78027,386 0,-15.74805 6.98243,0 c 1.40363,2e-5 2.47069,0.14325 3.20117,0.42969 0.73045,0.27931 1.31411,0.77703 1.75097,1.49316 0.43684,0.71616 0.65526,1.5075 0.65528,2.37403 -2e-5,1.1172 -0.36167,2.05893 -1.08496,2.82519 -0.72332,0.76629 -1.84051,1.25327 -3.35157,1.46094 0.55143,0.26498 0.97037,0.52637 1.25684,0.78418 0.60871,0.5586 1.18521,1.25684 1.72949,2.09473 l 2.73926,4.28613 -2.62109,0 -2.08399,-3.27637 c -0.60873,-0.94531 -1.11003,-1.66861 -1.5039,-2.16992 -0.39389,-0.5013 -0.74839,-0.85221 -1.06348,-1.05273 -0.30795,-0.20052 -0.62306,-0.34017 -0.94531,-0.41895 -0.23634,-0.0501 -0.62306,-0.0752 -1.16016,-0.0752 l -2.41699,0 0,6.99316 -2.08399,0 m 2.08399,-8.79785 4.47949,0 c 0.95246,1e-5 1.69726,-0.0967 2.23437,-0.29004 0.5371,-0.20051 0.94531,-0.51562 1.22461,-0.94531 0.27929,-0.43684 0.41894,-0.9095 0.41895,-1.41797 -10e-6,-0.74478 -0.27215,-1.35709 -0.81641,-1.83692 -0.53712,-0.4798 -1.38933,-0.71971 -2.55664,-0.71972 l -4.98437,0 0,5.20996"
         id="path3545" />
    </g>
    <path
       d="m 22.5,20 c 0,1.380712 -1.119288,2.5 -2.5,2.5 -1.380712,0 -2.5,-1.119288 -2.5,-2.5 0,-1.380712 1.119288,-2.5 2.5,-2.5 1.380712,0 2.5,1.119288 2.5,2.5 z"
       id="circle230"
       style="fill:#ffffff" />
    <path
       d="m 432.5,20 c 0,1.380712 -1.11929,2.5 -2.5,2.5 -1.38071,0 -2.5,-1.119288 -2.5,-2.5 0,-1.380712 1.11929,-2.5 2.5,-2.5 1.38071,0 2.5,1.119288 2.5,2.5 z"
       id="circle232"
       style="fill:#ffffff" />
    <path
       d="m 22.5,430 c 0,1.38071 -1.119288,2.5 -2.5,2.5 -1.380712,0 -2.5,-1.11929 -2.5,-2.5 0,-1.38071 1.119288,-2.5 2.5,-2.5 1.380712,0 2.5,1.11929 2.5,2.5 z"
       id="circle234"
       style="fill:#ffffff" />
    <path
       d="m 432.5,430 c 0,1.38071 -1.11929,2.5 -2.5,2.5 -1.38071,0 -2.5,-1.11929 -2.5,-2.5 0,-1.38071 1.11929,-2.5 2.5,-2.5 1.38071,0 2.5,1.11929 2.5,2.5 z"
       id="circle236"
       style="fill:#ffffff" />
  </g>
</svg>
