<?xml version="1.0" encoding="utf-8" ?>
<svg baseProfile="full" height="450.0mm" version="1.1" viewBox="0 0 450.0 450.0" width="450.0mm" xmlns="http://www.w3.org/2000/svg" xmlns:ev="http://www.w3.org/2001/xml-events" xmlns:xlink="http://www.w3.org/1999/xlink"><defs /><rect fill="rgb(0,0,0)" height="100%" width="100%" x="0" y="0" /><g style="text-anchor:middle;fill:rgb(255,255,255);font-family:Arial;font-size:22"><text x="75.0" y="86.0">E</text><text x="105.0" y="86.0">S</text><text x="135.0" y="86.0">K</text><text x="165.0" y="86.0">I</text><text x="195.0" y="86.0">S</text><text x="225.0" y="86.0">T</text><text x="255.0" y="86.0">L</text><text x="285.0" y="86.0">F</text><text x="315.0" y="86.0">Ü</text><text x="345.0" y="86.0">N</text><text x="375.0" y="86.0">F</text><text x="75.0" y="119.333333333">Z</text><text x="105.0" y="119.333333333">E</text><text x="135.0" y="119.333333333">H</text><text x="165.0" y="119.333333333">N</text><text x="195.0" y="119.333333333">Z</text><text x="225.0" y="119.333333333">W</text><text x="255.0" y="119.333333333">A</text><text x="285.0" y="119.333333333">N</text><text x="315.0" y="119.333333333">Z</text><text x="345.0" y="119.333333333">I</text><text x="375.0" y="119.333333333">G</text><text x="75.0" y="152.666666667">D</text><text x="105.0" y="152.666666667">R</text><text x="135.0" y="152.666666667">E</text><text x="165.0" y="152.666666667">I</text><text x="195.0" y="152.666666667">V</text><text x="225.0" y="152.666666667">I</text><text x="255.0" y="152.666666667">E</text><text x="285.0" y="152.666666667">R</text><text x="315.0" y="152.666666667">T</text><text x="345.0" y="152.666666667">E</text><text x="375.0" y="152.666666667">L</text><text x="75.0" y="186.0">T</text><text x="105.0" y="186.0">G</text><text x="135.0" y="186.0">N</text><text x="165.0" y="186.0">A</text><text x="195.0" y="186.0">C</text><text x="225.0" y="186.0">H</text><text x="255.0" y="186.0">V</text><text x="285.0" y="186.0">O</text><text x="315.0" y="186.0">R</text><text x="345.0" y="186.0">J</text><text x="375.0" y="186.0">M</text><text x="75.0" y="219.333333333">H</text><text x="105.0" y="219.333333333">A</text><text x="135.0" y="219.333333333">L</text><text x="165.0" y="219.333333333">B</text><text x="195.0" y="219.333333333">Q</text><text x="225.0" y="219.333333333">Z</text><text x="255.0" y="219.333333333">W</text><text x="285.0" y="219.333333333">Ö</text><text x="315.0" y="219.333333333">L</text><text x="345.0" y="219.333333333">F</text><text x="375.0" y="219.333333333">P</text><text x="75.0" y="252.666666667">Z</text><text x="105.0" y="252.666666667">W</text><text x="135.0" y="252.666666667">E</text><text x="165.0" y="252.666666667">I</text><text x="195.0" y="252.666666667">N</text><text x="225.0" y="252.666666667">S</text><text x="255.0" y="252.666666667">I</text><text x="285.0" y="252.666666667">E</text><text x="315.0" y="252.666666667">B</text><text x="345.0" y="252.666666667">E</text><text x="375.0" y="252.666666667">N</text><text x="75.0" y="286.0">K</text><text x="105.0" y="286.0">D</text><text x="135.0" y="286.0">R</text><text x="165.0" y="286.0">E</text><text x="195.0" y="286.0">I</text><text x="225.0" y="286.0">R</text><text x="255.0" y="286.0">H</text><text x="285.0" y="286.0">F</text><text x="315.0" y="286.0">Ü</text><text x="345.0" y="286.0">N</text><text x="375.0" y="286.0">F</text><text x="75.0" y="319.333333333">E</text><text x="105.0" y="319.333333333">L</text><text x="135.0" y="319.333333333">F</text><text x="165.0" y="319.333333333">N</text><text x="195.0" y="319.333333333">E</text><text x="225.0" y="319.333333333">U</text><text x="255.0" y="319.333333333">N</text><text x="285.0" y="319.333333333">V</text><text x="315.0" y="319.333333333">I</text><text x="345.0" y="319.333333333">E</text><text x="375.0" y="319.333333333">R</text><text x="75.0" y="352.666666667">W</text><text x="105.0" y="352.666666667">A</text><text x="135.0" y="352.666666667">C</text><text x="165.0" y="352.666666667">H</text><text x="195.0" y="352.666666667">T</text><text x="225.0" y="352.666666667">Z</text><text x="255.0" y="352.666666667">E</text><text x="285.0" y="352.666666667">H</text><text x="315.0" y="352.666666667">N</text><text x="345.0" y="352.666666667">R</text><text x="375.0" y="352.666666667">S</text><text x="75.0" y="386.0">B</text><text x="105.0" y="386.0">S</text><text x="135.0" y="386.0">E</text><text x="165.0" y="386.0">C</text><text x="195.0" y="386.0">H</text><text x="225.0" y="386.0">S</text><text x="255.0" y="386.0">F</text><text x="285.0" y="386.0">M</text><text x="315.0" y="386.0">U</text><text x="345.0" y="386.0">H</text><text x="375.0" y="386.0">R</text><circle cx="20.0" cy="20.0" fill="rgb(255,255,255)" r="2.5" /><circle cx="430.0" cy="20.0" fill="rgb(255,255,255)" r="2.5" /><circle cx="20.0" cy="430.0" fill="rgb(255,255,255)" r="2.5" /><circle cx="430.0" cy="430.0" fill="rgb(255,255,255)" r="2.5" /></g></svg>