<?xml version="1.0" encoding="utf-8" ?>
<svg baseProfile="full" height="450.0mm" version="1.1" viewBox="0 0 450.0 450.0" width="450.0mm" xmlns="http://www.w3.org/2000/svg" xmlns:ev="http://www.w3.org/2001/xml-events" xmlns:xlink="http://www.w3.org/1999/xlink"><defs /><rect fill="rgb(255,255,255)" height="100%" width="100%" x="0" y="0" /><text style="text-anchor:middle;fill:rgb(0,255,0);font-family:Arial;font-size: 10" x="225.0" y="20.0">german --- back-view --- christians_wiring</text><g style="text-anchor:middle;fill:rgb(0,0,0);font-family:Arial;font-size:6"><line stroke="rgb(255,0,0)" x1="75.0" x2="105.0" y1="375.0" y2="375.0" /><line stroke="rgb(255,0,0)" x1="105.0" x2="135.0" y1="375.0" y2="375.0" /><line stroke="rgb(255,0,0)" x1="135.0" x2="165.0" y1="375.0" y2="375.0" /><line stroke="rgb(255,0,0)" x1="165.0" x2="195.0" y1="375.0" y2="375.0" /><line stroke="rgb(255,0,0)" x1="195.0" x2="225.0" y1="375.0" y2="375.0" /><line stroke="rgb(255,0,0)" x1="225.0" x2="255.0" y1="375.0" y2="375.0" /><line stroke="rgb(255,0,0)" x1="255.0" x2="285.0" y1="375.0" y2="375.0" /><line stroke="rgb(255,0,0)" x1="285.0" x2="315.0" y1="375.0" y2="375.0" /><line stroke="rgb(255,0,0)" x1="315.0" x2="345.0" y1="375.0" y2="375.0" /><line stroke="rgb(255,0,0)" x1="345.0" x2="375.0" y1="375.0" y2="375.0" /><line stroke="rgb(255,0,0)" x1="375.0" x2="375.0" y1="375.0" y2="341.666666667" /><line stroke="rgb(255,0,0)" x1="375.0" x2="345.0" y1="341.666666667" y2="341.666666667" /><line stroke="rgb(255,0,0)" x1="345.0" x2="315.0" y1="341.666666667" y2="341.666666667" /><line stroke="rgb(255,0,0)" x1="315.0" x2="285.0" y1="341.666666667" y2="341.666666667" /><line stroke="rgb(255,0,0)" x1="285.0" x2="255.0" y1="341.666666667" y2="341.666666667" /><line stroke="rgb(255,0,0)" x1="255.0" x2="225.0" y1="341.666666667" y2="341.666666667" /><line stroke="rgb(255,0,0)" x1="225.0" x2="195.0" y1="341.666666667" y2="341.666666667" /><line stroke="rgb(255,0,0)" x1="195.0" x2="165.0" y1="341.666666667" y2="341.666666667" /><line stroke="rgb(255,0,0)" x1="165.0" x2="135.0" y1="341.666666667" y2="341.666666667" /><line stroke="rgb(255,0,0)" x1="135.0" x2="105.0" y1="341.666666667" y2="341.666666667" /><line stroke="rgb(255,0,0)" x1="105.0" x2="75.0" y1="341.666666667" y2="341.666666667" /><line stroke="rgb(255,0,0)" x1="75.0" x2="75.0" y1="341.666666667" y2="308.333333333" /><line stroke="rgb(255,0,0)" x1="75.0" x2="105.0" y1="308.333333333" y2="308.333333333" /><line stroke="rgb(255,0,0)" x1="105.0" x2="135.0" y1="308.333333333" y2="308.333333333" /><line stroke="rgb(255,0,0)" x1="135.0" x2="165.0" y1="308.333333333" y2="308.333333333" /><line stroke="rgb(255,0,0)" x1="165.0" x2="195.0" y1="308.333333333" y2="308.333333333" /><line stroke="rgb(255,0,0)" x1="195.0" x2="225.0" y1="308.333333333" y2="308.333333333" /><line stroke="rgb(255,0,0)" x1="225.0" x2="255.0" y1="308.333333333" y2="308.333333333" /><line stroke="rgb(255,0,0)" x1="255.0" x2="285.0" y1="308.333333333" y2="308.333333333" /><line stroke="rgb(255,0,0)" x1="285.0" x2="315.0" y1="308.333333333" y2="308.333333333" /><line stroke="rgb(255,0,0)" x1="315.0" x2="345.0" y1="308.333333333" y2="308.333333333" /><line stroke="rgb(255,0,0)" x1="345.0" x2="375.0" y1="308.333333333" y2="308.333333333" /><line stroke="rgb(255,0,0)" x1="375.0" x2="375.0" y1="308.333333333" y2="275.0" /><line stroke="rgb(255,0,0)" x1="375.0" x2="345.0" y1="275.0" y2="275.0" /><line stroke="rgb(255,0,0)" x1="345.0" x2="315.0" y1="275.0" y2="275.0" /><line stroke="rgb(255,0,0)" x1="315.0" x2="285.0" y1="275.0" y2="275.0" /><line stroke="rgb(255,0,0)" x1="285.0" x2="255.0" y1="275.0" y2="275.0" /><line stroke="rgb(255,0,0)" x1="255.0" x2="225.0" y1="275.0" y2="275.0" /><line stroke="rgb(255,0,0)" x1="225.0" x2="195.0" y1="275.0" y2="275.0" /><line stroke="rgb(255,0,0)" x1="195.0" x2="165.0" y1="275.0" y2="275.0" /><line stroke="rgb(255,0,0)" x1="165.0" x2="135.0" y1="275.0" y2="275.0" /><line stroke="rgb(255,0,0)" x1="135.0" x2="105.0" y1="275.0" y2="275.0" /><line stroke="rgb(255,0,0)" x1="105.0" x2="75.0" y1="275.0" y2="275.0" /><line stroke="rgb(255,0,0)" x1="75.0" x2="75.0" y1="275.0" y2="241.666666667" /><line stroke="rgb(255,0,0)" x1="75.0" x2="105.0" y1="241.666666667" y2="241.666666667" /><line stroke="rgb(255,0,0)" x1="105.0" x2="135.0" y1="241.666666667" y2="241.666666667" /><line stroke="rgb(255,0,0)" x1="135.0" x2="165.0" y1="241.666666667" y2="241.666666667" /><line stroke="rgb(255,0,0)" x1="165.0" x2="195.0" y1="241.666666667" y2="241.666666667" /><line stroke="rgb(255,0,0)" x1="195.0" x2="225.0" y1="241.666666667" y2="241.666666667" /><line stroke="rgb(255,0,0)" x1="225.0" x2="255.0" y1="241.666666667" y2="241.666666667" /><line stroke="rgb(255,0,0)" x1="255.0" x2="285.0" y1="241.666666667" y2="241.666666667" /><line stroke="rgb(255,0,0)" x1="285.0" x2="315.0" y1="241.666666667" y2="241.666666667" /><line stroke="rgb(255,0,0)" x1="315.0" x2="345.0" y1="241.666666667" y2="241.666666667" /><line stroke="rgb(255,0,0)" x1="345.0" x2="375.0" y1="241.666666667" y2="241.666666667" /><line stroke="rgb(255,0,0)" x1="375.0" x2="375.0" y1="241.666666667" y2="208.333333333" /><line stroke="rgb(255,0,0)" x1="375.0" x2="345.0" y1="208.333333333" y2="208.333333333" /><line stroke="rgb(255,0,0)" x1="345.0" x2="315.0" y1="208.333333333" y2="208.333333333" /><line stroke="rgb(255,0,0)" x1="315.0" x2="285.0" y1="208.333333333" y2="208.333333333" /><line stroke="rgb(255,0,0)" x1="285.0" x2="255.0" y1="208.333333333" y2="208.333333333" /><line stroke="rgb(255,0,0)" x1="255.0" x2="225.0" y1="208.333333333" y2="208.333333333" /><line stroke="rgb(255,0,0)" x1="225.0" x2="195.0" y1="208.333333333" y2="208.333333333" /><line stroke="rgb(255,0,0)" x1="195.0" x2="165.0" y1="208.333333333" y2="208.333333333" /><line stroke="rgb(255,0,0)" x1="165.0" x2="135.0" y1="208.333333333" y2="208.333333333" /><line stroke="rgb(255,0,0)" x1="135.0" x2="105.0" y1="208.333333333" y2="208.333333333" /><line stroke="rgb(255,0,0)" x1="105.0" x2="75.0" y1="208.333333333" y2="208.333333333" /><line stroke="rgb(255,0,0)" x1="75.0" x2="75.0" y1="208.333333333" y2="175.0" /><line stroke="rgb(255,0,0)" x1="75.0" x2="105.0" y1="175.0" y2="175.0" /><line stroke="rgb(255,0,0)" x1="105.0" x2="135.0" y1="175.0" y2="175.0" /><line stroke="rgb(255,0,0)" x1="135.0" x2="165.0" y1="175.0" y2="175.0" /><line stroke="rgb(255,0,0)" x1="165.0" x2="195.0" y1="175.0" y2="175.0" /><line stroke="rgb(255,0,0)" x1="195.0" x2="225.0" y1="175.0" y2="175.0" /><line stroke="rgb(255,0,0)" x1="225.0" x2="255.0" y1="175.0" y2="175.0" /><line stroke="rgb(255,0,0)" x1="255.0" x2="285.0" y1="175.0" y2="175.0" /><line stroke="rgb(255,0,0)" x1="285.0" x2="315.0" y1="175.0" y2="175.0" /><line stroke="rgb(255,0,0)" x1="315.0" x2="345.0" y1="175.0" y2="175.0" /><line stroke="rgb(255,0,0)" x1="345.0" x2="375.0" y1="175.0" y2="175.0" /><line stroke="rgb(255,0,0)" x1="375.0" x2="375.0" y1="175.0" y2="141.666666667" /><line stroke="rgb(255,0,0)" x1="375.0" x2="345.0" y1="141.666666667" y2="141.666666667" /><line stroke="rgb(255,0,0)" x1="345.0" x2="315.0" y1="141.666666667" y2="141.666666667" /><line stroke="rgb(255,0,0)" x1="315.0" x2="285.0" y1="141.666666667" y2="141.666666667" /><line stroke="rgb(255,0,0)" x1="285.0" x2="255.0" y1="141.666666667" y2="141.666666667" /><line stroke="rgb(255,0,0)" x1="255.0" x2="225.0" y1="141.666666667" y2="141.666666667" /><line stroke="rgb(255,0,0)" x1="225.0" x2="195.0" y1="141.666666667" y2="141.666666667" /><line stroke="rgb(255,0,0)" x1="195.0" x2="165.0" y1="141.666666667" y2="141.666666667" /><line stroke="rgb(255,0,0)" x1="165.0" x2="135.0" y1="141.666666667" y2="141.666666667" /><line stroke="rgb(255,0,0)" x1="135.0" x2="105.0" y1="141.666666667" y2="141.666666667" /><line stroke="rgb(255,0,0)" x1="105.0" x2="75.0" y1="141.666666667" y2="141.666666667" /><line stroke="rgb(255,0,0)" x1="75.0" x2="75.0" y1="141.666666667" y2="108.333333333" /><line stroke="rgb(255,0,0)" x1="75.0" x2="105.0" y1="108.333333333" y2="108.333333333" /><line stroke="rgb(255,0,0)" x1="105.0" x2="135.0" y1="108.333333333" y2="108.333333333" /><line stroke="rgb(255,0,0)" x1="135.0" x2="165.0" y1="108.333333333" y2="108.333333333" /><line stroke="rgb(255,0,0)" x1="165.0" x2="195.0" y1="108.333333333" y2="108.333333333" /><line stroke="rgb(255,0,0)" x1="195.0" x2="225.0" y1="108.333333333" y2="108.333333333" /><line stroke="rgb(255,0,0)" x1="225.0" x2="255.0" y1="108.333333333" y2="108.333333333" /><line stroke="rgb(255,0,0)" x1="255.0" x2="285.0" y1="108.333333333" y2="108.333333333" /><line stroke="rgb(255,0,0)" x1="285.0" x2="315.0" y1="108.333333333" y2="108.333333333" /><line stroke="rgb(255,0,0)" x1="315.0" x2="345.0" y1="108.333333333" y2="108.333333333" /><line stroke="rgb(255,0,0)" x1="345.0" x2="375.0" y1="108.333333333" y2="108.333333333" /><line stroke="rgb(255,0,0)" x1="375.0" x2="375.0" y1="108.333333333" y2="75.0" /><line stroke="rgb(255,0,0)" x1="375.0" x2="345.0" y1="75.0" y2="75.0" /><line stroke="rgb(255,0,0)" x1="345.0" x2="315.0" y1="75.0" y2="75.0" /><line stroke="rgb(255,0,0)" x1="315.0" x2="285.0" y1="75.0" y2="75.0" /><line stroke="rgb(255,0,0)" x1="285.0" x2="255.0" y1="75.0" y2="75.0" /><line stroke="rgb(255,0,0)" x1="255.0" x2="225.0" y1="75.0" y2="75.0" /><line stroke="rgb(255,0,0)" x1="225.0" x2="195.0" y1="75.0" y2="75.0" /><line stroke="rgb(255,0,0)" x1="195.0" x2="165.0" y1="75.0" y2="75.0" /><line stroke="rgb(255,0,0)" x1="165.0" x2="135.0" y1="75.0" y2="75.0" /><line stroke="rgb(255,0,0)" x1="135.0" x2="105.0" y1="75.0" y2="75.0" /><line stroke="rgb(255,0,0)" x1="105.0" x2="75.0" y1="75.0" y2="75.0" /><line stroke="rgb(255,0,0)" x1="75.0" x2="430.0" y1="75.0" y2="20.0" /><line stroke="rgb(255,0,0)" x1="430.0" x2="20.0" y1="20.0" y2="20.0" /><line stroke="rgb(255,0,0)" x1="20.0" x2="430.0" y1="20.0" y2="430.0" /><line stroke="rgb(255,0,0)" x1="430.0" x2="20.0" y1="430.0" y2="430.0" /><text x="369.0" y="68.3333333333">E</text><text x="381.0" y="68.3333333333">0</text><text x="369.0" y="81.6666666667">(0,0)</text><line stroke="rgb(0,0,0)" x1="375.0" x2="375.0" y1="68.3333333333" y2="81.6666666667" /><line stroke="rgb(0,0,0)" x1="369.0" x2="381.0" y1="75.0" y2="75.0" /><text x="339.0" y="68.3333333333">S</text><text x="351.0" y="68.3333333333">1</text><text x="339.0" y="81.6666666667">(1,0)</text><line stroke="rgb(0,0,0)" x1="345.0" x2="345.0" y1="68.3333333333" y2="81.6666666667" /><line stroke="rgb(0,0,0)" x1="339.0" x2="351.0" y1="75.0" y2="75.0" /><text x="309.0" y="68.3333333333">K</text><text x="321.0" y="68.3333333333">2</text><text x="309.0" y="81.6666666667">(2,0)</text><line stroke="rgb(0,0,0)" x1="315.0" x2="315.0" y1="68.3333333333" y2="81.6666666667" /><line stroke="rgb(0,0,0)" x1="309.0" x2="321.0" y1="75.0" y2="75.0" /><text x="279.0" y="68.3333333333">I</text><text x="291.0" y="68.3333333333">3</text><text x="279.0" y="81.6666666667">(3,0)</text><line stroke="rgb(0,0,0)" x1="285.0" x2="285.0" y1="68.3333333333" y2="81.6666666667" /><line stroke="rgb(0,0,0)" x1="279.0" x2="291.0" y1="75.0" y2="75.0" /><text x="249.0" y="68.3333333333">S</text><text x="261.0" y="68.3333333333">4</text><text x="249.0" y="81.6666666667">(4,0)</text><line stroke="rgb(0,0,0)" x1="255.0" x2="255.0" y1="68.3333333333" y2="81.6666666667" /><line stroke="rgb(0,0,0)" x1="249.0" x2="261.0" y1="75.0" y2="75.0" /><text x="219.0" y="68.3333333333">T</text><text x="231.0" y="68.3333333333">5</text><text x="219.0" y="81.6666666667">(5,0)</text><line stroke="rgb(0,0,0)" x1="225.0" x2="225.0" y1="68.3333333333" y2="81.6666666667" /><line stroke="rgb(0,0,0)" x1="219.0" x2="231.0" y1="75.0" y2="75.0" /><text x="189.0" y="68.3333333333">L</text><text x="201.0" y="68.3333333333">6</text><text x="189.0" y="81.6666666667">(6,0)</text><line stroke="rgb(0,0,0)" x1="195.0" x2="195.0" y1="68.3333333333" y2="81.6666666667" /><line stroke="rgb(0,0,0)" x1="189.0" x2="201.0" y1="75.0" y2="75.0" /><text x="159.0" y="68.3333333333">F</text><text x="171.0" y="68.3333333333">7</text><text x="159.0" y="81.6666666667">(7,0)</text><line stroke="rgb(0,0,0)" x1="165.0" x2="165.0" y1="68.3333333333" y2="81.6666666667" /><line stroke="rgb(0,0,0)" x1="159.0" x2="171.0" y1="75.0" y2="75.0" /><text x="129.0" y="68.3333333333">Ü</text><text x="141.0" y="68.3333333333">8</text><text x="129.0" y="81.6666666667">(8,0)</text><line stroke="rgb(0,0,0)" x1="135.0" x2="135.0" y1="68.3333333333" y2="81.6666666667" /><line stroke="rgb(0,0,0)" x1="129.0" x2="141.0" y1="75.0" y2="75.0" /><text x="99.0" y="68.3333333333">N</text><text x="111.0" y="68.3333333333">9</text><text x="99.0" y="81.6666666667">(9,0)</text><line stroke="rgb(0,0,0)" x1="105.0" x2="105.0" y1="68.3333333333" y2="81.6666666667" /><line stroke="rgb(0,0,0)" x1="99.0" x2="111.0" y1="75.0" y2="75.0" /><text x="69.0" y="68.3333333333">F</text><text x="81.0" y="68.3333333333">10</text><text x="69.0" y="81.6666666667">(10,0)</text><line stroke="rgb(0,0,0)" x1="75.0" x2="75.0" y1="68.3333333333" y2="81.6666666667" /><line stroke="rgb(0,0,0)" x1="69.0" x2="81.0" y1="75.0" y2="75.0" /><text x="369.0" y="101.666666667">Z</text><text x="381.0" y="101.666666667">11</text><text x="369.0" y="115.0">(0,1)</text><line stroke="rgb(0,0,0)" x1="375.0" x2="375.0" y1="101.666666667" y2="115.0" /><line stroke="rgb(0,0,0)" x1="369.0" x2="381.0" y1="108.333333333" y2="108.333333333" /><text x="339.0" y="101.666666667">E</text><text x="351.0" y="101.666666667">12</text><text x="339.0" y="115.0">(1,1)</text><line stroke="rgb(0,0,0)" x1="345.0" x2="345.0" y1="101.666666667" y2="115.0" /><line stroke="rgb(0,0,0)" x1="339.0" x2="351.0" y1="108.333333333" y2="108.333333333" /><text x="309.0" y="101.666666667">H</text><text x="321.0" y="101.666666667">13</text><text x="309.0" y="115.0">(2,1)</text><line stroke="rgb(0,0,0)" x1="315.0" x2="315.0" y1="101.666666667" y2="115.0" /><line stroke="rgb(0,0,0)" x1="309.0" x2="321.0" y1="108.333333333" y2="108.333333333" /><text x="279.0" y="101.666666667">N</text><text x="291.0" y="101.666666667">14</text><text x="279.0" y="115.0">(3,1)</text><line stroke="rgb(0,0,0)" x1="285.0" x2="285.0" y1="101.666666667" y2="115.0" /><line stroke="rgb(0,0,0)" x1="279.0" x2="291.0" y1="108.333333333" y2="108.333333333" /><text x="249.0" y="101.666666667">Z</text><text x="261.0" y="101.666666667">15</text><text x="249.0" y="115.0">(4,1)</text><line stroke="rgb(0,0,0)" x1="255.0" x2="255.0" y1="101.666666667" y2="115.0" /><line stroke="rgb(0,0,0)" x1="249.0" x2="261.0" y1="108.333333333" y2="108.333333333" /><text x="219.0" y="101.666666667">W</text><text x="231.0" y="101.666666667">16</text><text x="219.0" y="115.0">(5,1)</text><line stroke="rgb(0,0,0)" x1="225.0" x2="225.0" y1="101.666666667" y2="115.0" /><line stroke="rgb(0,0,0)" x1="219.0" x2="231.0" y1="108.333333333" y2="108.333333333" /><text x="189.0" y="101.666666667">A</text><text x="201.0" y="101.666666667">17</text><text x="189.0" y="115.0">(6,1)</text><line stroke="rgb(0,0,0)" x1="195.0" x2="195.0" y1="101.666666667" y2="115.0" /><line stroke="rgb(0,0,0)" x1="189.0" x2="201.0" y1="108.333333333" y2="108.333333333" /><text x="159.0" y="101.666666667">N</text><text x="171.0" y="101.666666667">18</text><text x="159.0" y="115.0">(7,1)</text><line stroke="rgb(0,0,0)" x1="165.0" x2="165.0" y1="101.666666667" y2="115.0" /><line stroke="rgb(0,0,0)" x1="159.0" x2="171.0" y1="108.333333333" y2="108.333333333" /><text x="129.0" y="101.666666667">Z</text><text x="141.0" y="101.666666667">19</text><text x="129.0" y="115.0">(8,1)</text><line stroke="rgb(0,0,0)" x1="135.0" x2="135.0" y1="101.666666667" y2="115.0" /><line stroke="rgb(0,0,0)" x1="129.0" x2="141.0" y1="108.333333333" y2="108.333333333" /><text x="99.0" y="101.666666667">I</text><text x="111.0" y="101.666666667">20</text><text x="99.0" y="115.0">(9,1)</text><line stroke="rgb(0,0,0)" x1="105.0" x2="105.0" y1="101.666666667" y2="115.0" /><line stroke="rgb(0,0,0)" x1="99.0" x2="111.0" y1="108.333333333" y2="108.333333333" /><text x="69.0" y="101.666666667">G</text><text x="81.0" y="101.666666667">21</text><text x="69.0" y="115.0">(10,1)</text><line stroke="rgb(0,0,0)" x1="75.0" x2="75.0" y1="101.666666667" y2="115.0" /><line stroke="rgb(0,0,0)" x1="69.0" x2="81.0" y1="108.333333333" y2="108.333333333" /><text x="369.0" y="135.0">D</text><text x="381.0" y="135.0">22</text><text x="369.0" y="148.333333333">(0,2)</text><line stroke="rgb(0,0,0)" x1="375.0" x2="375.0" y1="135.0" y2="148.333333333" /><line stroke="rgb(0,0,0)" x1="369.0" x2="381.0" y1="141.666666667" y2="141.666666667" /><text x="339.0" y="135.0">R</text><text x="351.0" y="135.0">23</text><text x="339.0" y="148.333333333">(1,2)</text><line stroke="rgb(0,0,0)" x1="345.0" x2="345.0" y1="135.0" y2="148.333333333" /><line stroke="rgb(0,0,0)" x1="339.0" x2="351.0" y1="141.666666667" y2="141.666666667" /><text x="309.0" y="135.0">E</text><text x="321.0" y="135.0">24</text><text x="309.0" y="148.333333333">(2,2)</text><line stroke="rgb(0,0,0)" x1="315.0" x2="315.0" y1="135.0" y2="148.333333333" /><line stroke="rgb(0,0,0)" x1="309.0" x2="321.0" y1="141.666666667" y2="141.666666667" /><text x="279.0" y="135.0">I</text><text x="291.0" y="135.0">25</text><text x="279.0" y="148.333333333">(3,2)</text><line stroke="rgb(0,0,0)" x1="285.0" x2="285.0" y1="135.0" y2="148.333333333" /><line stroke="rgb(0,0,0)" x1="279.0" x2="291.0" y1="141.666666667" y2="141.666666667" /><text x="249.0" y="135.0">V</text><text x="261.0" y="135.0">26</text><text x="249.0" y="148.333333333">(4,2)</text><line stroke="rgb(0,0,0)" x1="255.0" x2="255.0" y1="135.0" y2="148.333333333" /><line stroke="rgb(0,0,0)" x1="249.0" x2="261.0" y1="141.666666667" y2="141.666666667" /><text x="219.0" y="135.0">I</text><text x="231.0" y="135.0">27</text><text x="219.0" y="148.333333333">(5,2)</text><line stroke="rgb(0,0,0)" x1="225.0" x2="225.0" y1="135.0" y2="148.333333333" /><line stroke="rgb(0,0,0)" x1="219.0" x2="231.0" y1="141.666666667" y2="141.666666667" /><text x="189.0" y="135.0">E</text><text x="201.0" y="135.0">28</text><text x="189.0" y="148.333333333">(6,2)</text><line stroke="rgb(0,0,0)" x1="195.0" x2="195.0" y1="135.0" y2="148.333333333" /><line stroke="rgb(0,0,0)" x1="189.0" x2="201.0" y1="141.666666667" y2="141.666666667" /><text x="159.0" y="135.0">R</text><text x="171.0" y="135.0">29</text><text x="159.0" y="148.333333333">(7,2)</text><line stroke="rgb(0,0,0)" x1="165.0" x2="165.0" y1="135.0" y2="148.333333333" /><line stroke="rgb(0,0,0)" x1="159.0" x2="171.0" y1="141.666666667" y2="141.666666667" /><text x="129.0" y="135.0">T</text><text x="141.0" y="135.0">30</text><text x="129.0" y="148.333333333">(8,2)</text><line stroke="rgb(0,0,0)" x1="135.0" x2="135.0" y1="135.0" y2="148.333333333" /><line stroke="rgb(0,0,0)" x1="129.0" x2="141.0" y1="141.666666667" y2="141.666666667" /><text x="99.0" y="135.0">E</text><text x="111.0" y="135.0">31</text><text x="99.0" y="148.333333333">(9,2)</text><line stroke="rgb(0,0,0)" x1="105.0" x2="105.0" y1="135.0" y2="148.333333333" /><line stroke="rgb(0,0,0)" x1="99.0" x2="111.0" y1="141.666666667" y2="141.666666667" /><text x="69.0" y="135.0">L</text><text x="81.0" y="135.0">32</text><text x="69.0" y="148.333333333">(10,2)</text><line stroke="rgb(0,0,0)" x1="75.0" x2="75.0" y1="135.0" y2="148.333333333" /><line stroke="rgb(0,0,0)" x1="69.0" x2="81.0" y1="141.666666667" y2="141.666666667" /><text x="369.0" y="168.333333333">T</text><text x="381.0" y="168.333333333">33</text><text x="369.0" y="181.666666667">(0,3)</text><line stroke="rgb(0,0,0)" x1="375.0" x2="375.0" y1="168.333333333" y2="181.666666667" /><line stroke="rgb(0,0,0)" x1="369.0" x2="381.0" y1="175.0" y2="175.0" /><text x="339.0" y="168.333333333">G</text><text x="351.0" y="168.333333333">34</text><text x="339.0" y="181.666666667">(1,3)</text><line stroke="rgb(0,0,0)" x1="345.0" x2="345.0" y1="168.333333333" y2="181.666666667" /><line stroke="rgb(0,0,0)" x1="339.0" x2="351.0" y1="175.0" y2="175.0" /><text x="309.0" y="168.333333333">N</text><text x="321.0" y="168.333333333">35</text><text x="309.0" y="181.666666667">(2,3)</text><line stroke="rgb(0,0,0)" x1="315.0" x2="315.0" y1="168.333333333" y2="181.666666667" /><line stroke="rgb(0,0,0)" x1="309.0" x2="321.0" y1="175.0" y2="175.0" /><text x="279.0" y="168.333333333">A</text><text x="291.0" y="168.333333333">36</text><text x="279.0" y="181.666666667">(3,3)</text><line stroke="rgb(0,0,0)" x1="285.0" x2="285.0" y1="168.333333333" y2="181.666666667" /><line stroke="rgb(0,0,0)" x1="279.0" x2="291.0" y1="175.0" y2="175.0" /><text x="249.0" y="168.333333333">C</text><text x="261.0" y="168.333333333">37</text><text x="249.0" y="181.666666667">(4,3)</text><line stroke="rgb(0,0,0)" x1="255.0" x2="255.0" y1="168.333333333" y2="181.666666667" /><line stroke="rgb(0,0,0)" x1="249.0" x2="261.0" y1="175.0" y2="175.0" /><text x="219.0" y="168.333333333">H</text><text x="231.0" y="168.333333333">38</text><text x="219.0" y="181.666666667">(5,3)</text><line stroke="rgb(0,0,0)" x1="225.0" x2="225.0" y1="168.333333333" y2="181.666666667" /><line stroke="rgb(0,0,0)" x1="219.0" x2="231.0" y1="175.0" y2="175.0" /><text x="189.0" y="168.333333333">V</text><text x="201.0" y="168.333333333">39</text><text x="189.0" y="181.666666667">(6,3)</text><line stroke="rgb(0,0,0)" x1="195.0" x2="195.0" y1="168.333333333" y2="181.666666667" /><line stroke="rgb(0,0,0)" x1="189.0" x2="201.0" y1="175.0" y2="175.0" /><text x="159.0" y="168.333333333">O</text><text x="171.0" y="168.333333333">40</text><text x="159.0" y="181.666666667">(7,3)</text><line stroke="rgb(0,0,0)" x1="165.0" x2="165.0" y1="168.333333333" y2="181.666666667" /><line stroke="rgb(0,0,0)" x1="159.0" x2="171.0" y1="175.0" y2="175.0" /><text x="129.0" y="168.333333333">R</text><text x="141.0" y="168.333333333">41</text><text x="129.0" y="181.666666667">(8,3)</text><line stroke="rgb(0,0,0)" x1="135.0" x2="135.0" y1="168.333333333" y2="181.666666667" /><line stroke="rgb(0,0,0)" x1="129.0" x2="141.0" y1="175.0" y2="175.0" /><text x="99.0" y="168.333333333">J</text><text x="111.0" y="168.333333333">42</text><text x="99.0" y="181.666666667">(9,3)</text><line stroke="rgb(0,0,0)" x1="105.0" x2="105.0" y1="168.333333333" y2="181.666666667" /><line stroke="rgb(0,0,0)" x1="99.0" x2="111.0" y1="175.0" y2="175.0" /><text x="69.0" y="168.333333333">M</text><text x="81.0" y="168.333333333">43</text><text x="69.0" y="181.666666667">(10,3)</text><line stroke="rgb(0,0,0)" x1="75.0" x2="75.0" y1="168.333333333" y2="181.666666667" /><line stroke="rgb(0,0,0)" x1="69.0" x2="81.0" y1="175.0" y2="175.0" /><text x="369.0" y="201.666666667">H</text><text x="381.0" y="201.666666667">44</text><text x="369.0" y="215.0">(0,4)</text><line stroke="rgb(0,0,0)" x1="375.0" x2="375.0" y1="201.666666667" y2="215.0" /><line stroke="rgb(0,0,0)" x1="369.0" x2="381.0" y1="208.333333333" y2="208.333333333" /><text x="339.0" y="201.666666667">A</text><text x="351.0" y="201.666666667">45</text><text x="339.0" y="215.0">(1,4)</text><line stroke="rgb(0,0,0)" x1="345.0" x2="345.0" y1="201.666666667" y2="215.0" /><line stroke="rgb(0,0,0)" x1="339.0" x2="351.0" y1="208.333333333" y2="208.333333333" /><text x="309.0" y="201.666666667">L</text><text x="321.0" y="201.666666667">46</text><text x="309.0" y="215.0">(2,4)</text><line stroke="rgb(0,0,0)" x1="315.0" x2="315.0" y1="201.666666667" y2="215.0" /><line stroke="rgb(0,0,0)" x1="309.0" x2="321.0" y1="208.333333333" y2="208.333333333" /><text x="279.0" y="201.666666667">B</text><text x="291.0" y="201.666666667">47</text><text x="279.0" y="215.0">(3,4)</text><line stroke="rgb(0,0,0)" x1="285.0" x2="285.0" y1="201.666666667" y2="215.0" /><line stroke="rgb(0,0,0)" x1="279.0" x2="291.0" y1="208.333333333" y2="208.333333333" /><text x="249.0" y="201.666666667">Q</text><text x="261.0" y="201.666666667">48</text><text x="249.0" y="215.0">(4,4)</text><line stroke="rgb(0,0,0)" x1="255.0" x2="255.0" y1="201.666666667" y2="215.0" /><line stroke="rgb(0,0,0)" x1="249.0" x2="261.0" y1="208.333333333" y2="208.333333333" /><text x="219.0" y="201.666666667">Z</text><text x="231.0" y="201.666666667">49</text><text x="219.0" y="215.0">(5,4)</text><line stroke="rgb(0,0,0)" x1="225.0" x2="225.0" y1="201.666666667" y2="215.0" /><line stroke="rgb(0,0,0)" x1="219.0" x2="231.0" y1="208.333333333" y2="208.333333333" /><text x="189.0" y="201.666666667">W</text><text x="201.0" y="201.666666667">50</text><text x="189.0" y="215.0">(6,4)</text><line stroke="rgb(0,0,0)" x1="195.0" x2="195.0" y1="201.666666667" y2="215.0" /><line stroke="rgb(0,0,0)" x1="189.0" x2="201.0" y1="208.333333333" y2="208.333333333" /><text x="159.0" y="201.666666667">Ö</text><text x="171.0" y="201.666666667">51</text><text x="159.0" y="215.0">(7,4)</text><line stroke="rgb(0,0,0)" x1="165.0" x2="165.0" y1="201.666666667" y2="215.0" /><line stroke="rgb(0,0,0)" x1="159.0" x2="171.0" y1="208.333333333" y2="208.333333333" /><text x="129.0" y="201.666666667">L</text><text x="141.0" y="201.666666667">52</text><text x="129.0" y="215.0">(8,4)</text><line stroke="rgb(0,0,0)" x1="135.0" x2="135.0" y1="201.666666667" y2="215.0" /><line stroke="rgb(0,0,0)" x1="129.0" x2="141.0" y1="208.333333333" y2="208.333333333" /><text x="99.0" y="201.666666667">F</text><text x="111.0" y="201.666666667">53</text><text x="99.0" y="215.0">(9,4)</text><line stroke="rgb(0,0,0)" x1="105.0" x2="105.0" y1="201.666666667" y2="215.0" /><line stroke="rgb(0,0,0)" x1="99.0" x2="111.0" y1="208.333333333" y2="208.333333333" /><text x="69.0" y="201.666666667">P</text><text x="81.0" y="201.666666667">54</text><text x="69.0" y="215.0">(10,4)</text><line stroke="rgb(0,0,0)" x1="75.0" x2="75.0" y1="201.666666667" y2="215.0" /><line stroke="rgb(0,0,0)" x1="69.0" x2="81.0" y1="208.333333333" y2="208.333333333" /><text x="369.0" y="235.0">Z</text><text x="381.0" y="235.0">55</text><text x="369.0" y="248.333333333">(0,5)</text><line stroke="rgb(0,0,0)" x1="375.0" x2="375.0" y1="235.0" y2="248.333333333" /><line stroke="rgb(0,0,0)" x1="369.0" x2="381.0" y1="241.666666667" y2="241.666666667" /><text x="339.0" y="235.0">W</text><text x="351.0" y="235.0">56</text><text x="339.0" y="248.333333333">(1,5)</text><line stroke="rgb(0,0,0)" x1="345.0" x2="345.0" y1="235.0" y2="248.333333333" /><line stroke="rgb(0,0,0)" x1="339.0" x2="351.0" y1="241.666666667" y2="241.666666667" /><text x="309.0" y="235.0">E</text><text x="321.0" y="235.0">57</text><text x="309.0" y="248.333333333">(2,5)</text><line stroke="rgb(0,0,0)" x1="315.0" x2="315.0" y1="235.0" y2="248.333333333" /><line stroke="rgb(0,0,0)" x1="309.0" x2="321.0" y1="241.666666667" y2="241.666666667" /><text x="279.0" y="235.0">I</text><text x="291.0" y="235.0">58</text><text x="279.0" y="248.333333333">(3,5)</text><line stroke="rgb(0,0,0)" x1="285.0" x2="285.0" y1="235.0" y2="248.333333333" /><line stroke="rgb(0,0,0)" x1="279.0" x2="291.0" y1="241.666666667" y2="241.666666667" /><text x="249.0" y="235.0">N</text><text x="261.0" y="235.0">59</text><text x="249.0" y="248.333333333">(4,5)</text><line stroke="rgb(0,0,0)" x1="255.0" x2="255.0" y1="235.0" y2="248.333333333" /><line stroke="rgb(0,0,0)" x1="249.0" x2="261.0" y1="241.666666667" y2="241.666666667" /><text x="219.0" y="235.0">S</text><text x="231.0" y="235.0">60</text><text x="219.0" y="248.333333333">(5,5)</text><line stroke="rgb(0,0,0)" x1="225.0" x2="225.0" y1="235.0" y2="248.333333333" /><line stroke="rgb(0,0,0)" x1="219.0" x2="231.0" y1="241.666666667" y2="241.666666667" /><text x="189.0" y="235.0">I</text><text x="201.0" y="235.0">61</text><text x="189.0" y="248.333333333">(6,5)</text><line stroke="rgb(0,0,0)" x1="195.0" x2="195.0" y1="235.0" y2="248.333333333" /><line stroke="rgb(0,0,0)" x1="189.0" x2="201.0" y1="241.666666667" y2="241.666666667" /><text x="159.0" y="235.0">E</text><text x="171.0" y="235.0">62</text><text x="159.0" y="248.333333333">(7,5)</text><line stroke="rgb(0,0,0)" x1="165.0" x2="165.0" y1="235.0" y2="248.333333333" /><line stroke="rgb(0,0,0)" x1="159.0" x2="171.0" y1="241.666666667" y2="241.666666667" /><text x="129.0" y="235.0">B</text><text x="141.0" y="235.0">63</text><text x="129.0" y="248.333333333">(8,5)</text><line stroke="rgb(0,0,0)" x1="135.0" x2="135.0" y1="235.0" y2="248.333333333" /><line stroke="rgb(0,0,0)" x1="129.0" x2="141.0" y1="241.666666667" y2="241.666666667" /><text x="99.0" y="235.0">E</text><text x="111.0" y="235.0">64</text><text x="99.0" y="248.333333333">(9,5)</text><line stroke="rgb(0,0,0)" x1="105.0" x2="105.0" y1="235.0" y2="248.333333333" /><line stroke="rgb(0,0,0)" x1="99.0" x2="111.0" y1="241.666666667" y2="241.666666667" /><text x="69.0" y="235.0">N</text><text x="81.0" y="235.0">65</text><text x="69.0" y="248.333333333">(10,5)</text><line stroke="rgb(0,0,0)" x1="75.0" x2="75.0" y1="235.0" y2="248.333333333" /><line stroke="rgb(0,0,0)" x1="69.0" x2="81.0" y1="241.666666667" y2="241.666666667" /><text x="369.0" y="268.333333333">K</text><text x="381.0" y="268.333333333">66</text><text x="369.0" y="281.666666667">(0,6)</text><line stroke="rgb(0,0,0)" x1="375.0" x2="375.0" y1="268.333333333" y2="281.666666667" /><line stroke="rgb(0,0,0)" x1="369.0" x2="381.0" y1="275.0" y2="275.0" /><text x="339.0" y="268.333333333">D</text><text x="351.0" y="268.333333333">67</text><text x="339.0" y="281.666666667">(1,6)</text><line stroke="rgb(0,0,0)" x1="345.0" x2="345.0" y1="268.333333333" y2="281.666666667" /><line stroke="rgb(0,0,0)" x1="339.0" x2="351.0" y1="275.0" y2="275.0" /><text x="309.0" y="268.333333333">R</text><text x="321.0" y="268.333333333">68</text><text x="309.0" y="281.666666667">(2,6)</text><line stroke="rgb(0,0,0)" x1="315.0" x2="315.0" y1="268.333333333" y2="281.666666667" /><line stroke="rgb(0,0,0)" x1="309.0" x2="321.0" y1="275.0" y2="275.0" /><text x="279.0" y="268.333333333">E</text><text x="291.0" y="268.333333333">69</text><text x="279.0" y="281.666666667">(3,6)</text><line stroke="rgb(0,0,0)" x1="285.0" x2="285.0" y1="268.333333333" y2="281.666666667" /><line stroke="rgb(0,0,0)" x1="279.0" x2="291.0" y1="275.0" y2="275.0" /><text x="249.0" y="268.333333333">I</text><text x="261.0" y="268.333333333">70</text><text x="249.0" y="281.666666667">(4,6)</text><line stroke="rgb(0,0,0)" x1="255.0" x2="255.0" y1="268.333333333" y2="281.666666667" /><line stroke="rgb(0,0,0)" x1="249.0" x2="261.0" y1="275.0" y2="275.0" /><text x="219.0" y="268.333333333">R</text><text x="231.0" y="268.333333333">71</text><text x="219.0" y="281.666666667">(5,6)</text><line stroke="rgb(0,0,0)" x1="225.0" x2="225.0" y1="268.333333333" y2="281.666666667" /><line stroke="rgb(0,0,0)" x1="219.0" x2="231.0" y1="275.0" y2="275.0" /><text x="189.0" y="268.333333333">H</text><text x="201.0" y="268.333333333">72</text><text x="189.0" y="281.666666667">(6,6)</text><line stroke="rgb(0,0,0)" x1="195.0" x2="195.0" y1="268.333333333" y2="281.666666667" /><line stroke="rgb(0,0,0)" x1="189.0" x2="201.0" y1="275.0" y2="275.0" /><text x="159.0" y="268.333333333">F</text><text x="171.0" y="268.333333333">73</text><text x="159.0" y="281.666666667">(7,6)</text><line stroke="rgb(0,0,0)" x1="165.0" x2="165.0" y1="268.333333333" y2="281.666666667" /><line stroke="rgb(0,0,0)" x1="159.0" x2="171.0" y1="275.0" y2="275.0" /><text x="129.0" y="268.333333333">Ü</text><text x="141.0" y="268.333333333">74</text><text x="129.0" y="281.666666667">(8,6)</text><line stroke="rgb(0,0,0)" x1="135.0" x2="135.0" y1="268.333333333" y2="281.666666667" /><line stroke="rgb(0,0,0)" x1="129.0" x2="141.0" y1="275.0" y2="275.0" /><text x="99.0" y="268.333333333">N</text><text x="111.0" y="268.333333333">75</text><text x="99.0" y="281.666666667">(9,6)</text><line stroke="rgb(0,0,0)" x1="105.0" x2="105.0" y1="268.333333333" y2="281.666666667" /><line stroke="rgb(0,0,0)" x1="99.0" x2="111.0" y1="275.0" y2="275.0" /><text x="69.0" y="268.333333333">F</text><text x="81.0" y="268.333333333">76</text><text x="69.0" y="281.666666667">(10,6)</text><line stroke="rgb(0,0,0)" x1="75.0" x2="75.0" y1="268.333333333" y2="281.666666667" /><line stroke="rgb(0,0,0)" x1="69.0" x2="81.0" y1="275.0" y2="275.0" /><text x="369.0" y="301.666666667">E</text><text x="381.0" y="301.666666667">77</text><text x="369.0" y="315.0">(0,7)</text><line stroke="rgb(0,0,0)" x1="375.0" x2="375.0" y1="301.666666667" y2="315.0" /><line stroke="rgb(0,0,0)" x1="369.0" x2="381.0" y1="308.333333333" y2="308.333333333" /><text x="339.0" y="301.666666667">L</text><text x="351.0" y="301.666666667">78</text><text x="339.0" y="315.0">(1,7)</text><line stroke="rgb(0,0,0)" x1="345.0" x2="345.0" y1="301.666666667" y2="315.0" /><line stroke="rgb(0,0,0)" x1="339.0" x2="351.0" y1="308.333333333" y2="308.333333333" /><text x="309.0" y="301.666666667">F</text><text x="321.0" y="301.666666667">79</text><text x="309.0" y="315.0">(2,7)</text><line stroke="rgb(0,0,0)" x1="315.0" x2="315.0" y1="301.666666667" y2="315.0" /><line stroke="rgb(0,0,0)" x1="309.0" x2="321.0" y1="308.333333333" y2="308.333333333" /><text x="279.0" y="301.666666667">N</text><text x="291.0" y="301.666666667">80</text><text x="279.0" y="315.0">(3,7)</text><line stroke="rgb(0,0,0)" x1="285.0" x2="285.0" y1="301.666666667" y2="315.0" /><line stroke="rgb(0,0,0)" x1="279.0" x2="291.0" y1="308.333333333" y2="308.333333333" /><text x="249.0" y="301.666666667">E</text><text x="261.0" y="301.666666667">81</text><text x="249.0" y="315.0">(4,7)</text><line stroke="rgb(0,0,0)" x1="255.0" x2="255.0" y1="301.666666667" y2="315.0" /><line stroke="rgb(0,0,0)" x1="249.0" x2="261.0" y1="308.333333333" y2="308.333333333" /><text x="219.0" y="301.666666667">U</text><text x="231.0" y="301.666666667">82</text><text x="219.0" y="315.0">(5,7)</text><line stroke="rgb(0,0,0)" x1="225.0" x2="225.0" y1="301.666666667" y2="315.0" /><line stroke="rgb(0,0,0)" x1="219.0" x2="231.0" y1="308.333333333" y2="308.333333333" /><text x="189.0" y="301.666666667">N</text><text x="201.0" y="301.666666667">83</text><text x="189.0" y="315.0">(6,7)</text><line stroke="rgb(0,0,0)" x1="195.0" x2="195.0" y1="301.666666667" y2="315.0" /><line stroke="rgb(0,0,0)" x1="189.0" x2="201.0" y1="308.333333333" y2="308.333333333" /><text x="159.0" y="301.666666667">V</text><text x="171.0" y="301.666666667">84</text><text x="159.0" y="315.0">(7,7)</text><line stroke="rgb(0,0,0)" x1="165.0" x2="165.0" y1="301.666666667" y2="315.0" /><line stroke="rgb(0,0,0)" x1="159.0" x2="171.0" y1="308.333333333" y2="308.333333333" /><text x="129.0" y="301.666666667">I</text><text x="141.0" y="301.666666667">85</text><text x="129.0" y="315.0">(8,7)</text><line stroke="rgb(0,0,0)" x1="135.0" x2="135.0" y1="301.666666667" y2="315.0" /><line stroke="rgb(0,0,0)" x1="129.0" x2="141.0" y1="308.333333333" y2="308.333333333" /><text x="99.0" y="301.666666667">E</text><text x="111.0" y="301.666666667">86</text><text x="99.0" y="315.0">(9,7)</text><line stroke="rgb(0,0,0)" x1="105.0" x2="105.0" y1="301.666666667" y2="315.0" /><line stroke="rgb(0,0,0)" x1="99.0" x2="111.0" y1="308.333333333" y2="308.333333333" /><text x="69.0" y="301.666666667">R</text><text x="81.0" y="301.666666667">87</text><text x="69.0" y="315.0">(10,7)</text><line stroke="rgb(0,0,0)" x1="75.0" x2="75.0" y1="301.666666667" y2="315.0" /><line stroke="rgb(0,0,0)" x1="69.0" x2="81.0" y1="308.333333333" y2="308.333333333" /><text x="369.0" y="335.0">W</text><text x="381.0" y="335.0">88</text><text x="369.0" y="348.333333333">(0,8)</text><line stroke="rgb(0,0,0)" x1="375.0" x2="375.0" y1="335.0" y2="348.333333333" /><line stroke="rgb(0,0,0)" x1="369.0" x2="381.0" y1="341.666666667" y2="341.666666667" /><text x="339.0" y="335.0">A</text><text x="351.0" y="335.0">89</text><text x="339.0" y="348.333333333">(1,8)</text><line stroke="rgb(0,0,0)" x1="345.0" x2="345.0" y1="335.0" y2="348.333333333" /><line stroke="rgb(0,0,0)" x1="339.0" x2="351.0" y1="341.666666667" y2="341.666666667" /><text x="309.0" y="335.0">C</text><text x="321.0" y="335.0">90</text><text x="309.0" y="348.333333333">(2,8)</text><line stroke="rgb(0,0,0)" x1="315.0" x2="315.0" y1="335.0" y2="348.333333333" /><line stroke="rgb(0,0,0)" x1="309.0" x2="321.0" y1="341.666666667" y2="341.666666667" /><text x="279.0" y="335.0">H</text><text x="291.0" y="335.0">91</text><text x="279.0" y="348.333333333">(3,8)</text><line stroke="rgb(0,0,0)" x1="285.0" x2="285.0" y1="335.0" y2="348.333333333" /><line stroke="rgb(0,0,0)" x1="279.0" x2="291.0" y1="341.666666667" y2="341.666666667" /><text x="249.0" y="335.0">T</text><text x="261.0" y="335.0">92</text><text x="249.0" y="348.333333333">(4,8)</text><line stroke="rgb(0,0,0)" x1="255.0" x2="255.0" y1="335.0" y2="348.333333333" /><line stroke="rgb(0,0,0)" x1="249.0" x2="261.0" y1="341.666666667" y2="341.666666667" /><text x="219.0" y="335.0">Z</text><text x="231.0" y="335.0">93</text><text x="219.0" y="348.333333333">(5,8)</text><line stroke="rgb(0,0,0)" x1="225.0" x2="225.0" y1="335.0" y2="348.333333333" /><line stroke="rgb(0,0,0)" x1="219.0" x2="231.0" y1="341.666666667" y2="341.666666667" /><text x="189.0" y="335.0">E</text><text x="201.0" y="335.0">94</text><text x="189.0" y="348.333333333">(6,8)</text><line stroke="rgb(0,0,0)" x1="195.0" x2="195.0" y1="335.0" y2="348.333333333" /><line stroke="rgb(0,0,0)" x1="189.0" x2="201.0" y1="341.666666667" y2="341.666666667" /><text x="159.0" y="335.0">H</text><text x="171.0" y="335.0">95</text><text x="159.0" y="348.333333333">(7,8)</text><line stroke="rgb(0,0,0)" x1="165.0" x2="165.0" y1="335.0" y2="348.333333333" /><line stroke="rgb(0,0,0)" x1="159.0" x2="171.0" y1="341.666666667" y2="341.666666667" /><text x="129.0" y="335.0">N</text><text x="141.0" y="335.0">96</text><text x="129.0" y="348.333333333">(8,8)</text><line stroke="rgb(0,0,0)" x1="135.0" x2="135.0" y1="335.0" y2="348.333333333" /><line stroke="rgb(0,0,0)" x1="129.0" x2="141.0" y1="341.666666667" y2="341.666666667" /><text x="99.0" y="335.0">R</text><text x="111.0" y="335.0">97</text><text x="99.0" y="348.333333333">(9,8)</text><line stroke="rgb(0,0,0)" x1="105.0" x2="105.0" y1="335.0" y2="348.333333333" /><line stroke="rgb(0,0,0)" x1="99.0" x2="111.0" y1="341.666666667" y2="341.666666667" /><text x="69.0" y="335.0">S</text><text x="81.0" y="335.0">98</text><text x="69.0" y="348.333333333">(10,8)</text><line stroke="rgb(0,0,0)" x1="75.0" x2="75.0" y1="335.0" y2="348.333333333" /><line stroke="rgb(0,0,0)" x1="69.0" x2="81.0" y1="341.666666667" y2="341.666666667" /><text x="369.0" y="368.333333333">B</text><text x="381.0" y="368.333333333">99</text><text x="369.0" y="381.666666667">(0,9)</text><line stroke="rgb(0,0,0)" x1="375.0" x2="375.0" y1="368.333333333" y2="381.666666667" /><line stroke="rgb(0,0,0)" x1="369.0" x2="381.0" y1="375.0" y2="375.0" /><text x="339.0" y="368.333333333">S</text><text x="351.0" y="368.333333333">100</text><text x="339.0" y="381.666666667">(1,9)</text><line stroke="rgb(0,0,0)" x1="345.0" x2="345.0" y1="368.333333333" y2="381.666666667" /><line stroke="rgb(0,0,0)" x1="339.0" x2="351.0" y1="375.0" y2="375.0" /><text x="309.0" y="368.333333333">E</text><text x="321.0" y="368.333333333">101</text><text x="309.0" y="381.666666667">(2,9)</text><line stroke="rgb(0,0,0)" x1="315.0" x2="315.0" y1="368.333333333" y2="381.666666667" /><line stroke="rgb(0,0,0)" x1="309.0" x2="321.0" y1="375.0" y2="375.0" /><text x="279.0" y="368.333333333">C</text><text x="291.0" y="368.333333333">102</text><text x="279.0" y="381.666666667">(3,9)</text><line stroke="rgb(0,0,0)" x1="285.0" x2="285.0" y1="368.333333333" y2="381.666666667" /><line stroke="rgb(0,0,0)" x1="279.0" x2="291.0" y1="375.0" y2="375.0" /><text x="249.0" y="368.333333333">H</text><text x="261.0" y="368.333333333">103</text><text x="249.0" y="381.666666667">(4,9)</text><line stroke="rgb(0,0,0)" x1="255.0" x2="255.0" y1="368.333333333" y2="381.666666667" /><line stroke="rgb(0,0,0)" x1="249.0" x2="261.0" y1="375.0" y2="375.0" /><text x="219.0" y="368.333333333">S</text><text x="231.0" y="368.333333333">104</text><text x="219.0" y="381.666666667">(5,9)</text><line stroke="rgb(0,0,0)" x1="225.0" x2="225.0" y1="368.333333333" y2="381.666666667" /><line stroke="rgb(0,0,0)" x1="219.0" x2="231.0" y1="375.0" y2="375.0" /><text x="189.0" y="368.333333333">F</text><text x="201.0" y="368.333333333">105</text><text x="189.0" y="381.666666667">(6,9)</text><line stroke="rgb(0,0,0)" x1="195.0" x2="195.0" y1="368.333333333" y2="381.666666667" /><line stroke="rgb(0,0,0)" x1="189.0" x2="201.0" y1="375.0" y2="375.0" /><text x="159.0" y="368.333333333">M</text><text x="171.0" y="368.333333333">106</text><text x="159.0" y="381.666666667">(7,9)</text><line stroke="rgb(0,0,0)" x1="165.0" x2="165.0" y1="368.333333333" y2="381.666666667" /><line stroke="rgb(0,0,0)" x1="159.0" x2="171.0" y1="375.0" y2="375.0" /><text x="129.0" y="368.333333333">U</text><text x="141.0" y="368.333333333">107</text><text x="129.0" y="381.666666667">(8,9)</text><line stroke="rgb(0,0,0)" x1="135.0" x2="135.0" y1="368.333333333" y2="381.666666667" /><line stroke="rgb(0,0,0)" x1="129.0" x2="141.0" y1="375.0" y2="375.0" /><text x="99.0" y="368.333333333">H</text><text x="111.0" y="368.333333333">108</text><text x="99.0" y="381.666666667">(9,9)</text><line stroke="rgb(0,0,0)" x1="105.0" x2="105.0" y1="368.333333333" y2="381.666666667" /><line stroke="rgb(0,0,0)" x1="99.0" x2="111.0" y1="375.0" y2="375.0" /><text x="69.0" y="368.333333333">R</text><text x="81.0" y="368.333333333">109</text><text x="69.0" y="381.666666667">(10,9)</text><line stroke="rgb(0,0,0)" x1="75.0" x2="75.0" y1="368.333333333" y2="381.666666667" /><line stroke="rgb(0,0,0)" x1="69.0" x2="81.0" y1="375.0" y2="375.0" /><text fill="rgb(0,0,0)" x="424.0" y="13.3333333333">1</text><line stroke="rgb(0,0,0)" x1="430.0" x2="430.0" y1="13.3333333333" y2="26.6666666667" /><line stroke="rgb(0,0,0)" x1="424.0" x2="436.0" y1="20.0" y2="20.0" /><text fill="rgb(0,0,0)" x="14.0" y="13.3333333333">2</text><line stroke="rgb(0,0,0)" x1="20.0" x2="20.0" y1="13.3333333333" y2="26.6666666667" /><line stroke="rgb(0,0,0)" x1="14.0" x2="26.0" y1="20.0" y2="20.0" /><text fill="rgb(0,0,0)" x="424.0" y="423.333333333">3</text><line stroke="rgb(0,0,0)" x1="430.0" x2="430.0" y1="423.333333333" y2="436.666666667" /><line stroke="rgb(0,0,0)" x1="424.0" x2="436.0" y1="430.0" y2="430.0" /><text fill="rgb(0,0,0)" x="14.0" y="423.333333333">4</text><line stroke="rgb(0,0,0)" x1="20.0" x2="20.0" y1="423.333333333" y2="436.666666667" /><line stroke="rgb(0,0,0)" x1="14.0" x2="26.0" y1="430.0" y2="430.0" /></g></svg>