<?xml version="1.0" encoding="utf-8" ?>
<svg baseProfile="full" height="450.0mm" version="1.1" viewBox="0 0 450.0 450.0" width="450.0mm" xmlns="http://www.w3.org/2000/svg" xmlns:ev="http://www.w3.org/2001/xml-events" xmlns:xlink="http://www.w3.org/1999/xlink"><defs /><rect fill="rgb(0,0,0)" height="100%" width="100%" x="0" y="0" /><g style="text-anchor:middle;fill:rgb(255,255,255);font-family:Arial;font-size:22"><text x="75.0" y="86.0">E</text><text x="105.0" y="86.0">S</text><text x="135.0" y="86.0">T</text><text x="165.0" y="86.0">E</text><text x="195.0" y="86.0">Z</text><text x="225.0" y="86.0">O</text><text x="255.0" y="86.0">R</text><text x="285.0" y="86.0">A</text><text x="315.0" y="86.0">P</text><text x="345.0" y="86.0">M</text><text x="375.0" y="86.0">O</text><text x="75.0" y="119.33333333333334">D</text><text x="105.0" y="119.33333333333334">O</text><text x="135.0" y="119.33333333333334">U</text><text x="165.0" y="119.33333333333334">Ă</text><text x="195.0" y="119.33333333333334">N</text><text x="225.0" y="119.33333333333334">S</text><text x="255.0" y="119.33333333333334">P</text><text x="285.0" y="119.33333333333334">R</text><text x="315.0" y="119.33333333333334">E</text><text x="345.0" y="119.33333333333334">A</text><text x="375.0" y="119.33333333333334">M</text><text x="75.0" y="152.66666666666669">U</text><text x="105.0" y="152.66666666666669">N</text><text x="135.0" y="152.66666666666669">S</text><text x="165.0" y="152.66666666666669">P</text><text x="195.0" y="152.66666666666669">R</text><text x="225.0" y="152.66666666666669">E</text><text x="255.0" y="152.66666666666669">Z</text><text x="285.0" y="152.66666666666669">E</text><text x="315.0" y="152.66666666666669">C</text><text x="345.0" y="152.66666666666669">E</text><text x="375.0" y="152.66666666666669">L</text><text x="75.0" y="186.0">N</text><text x="105.0" y="186.0">O</text><text x="135.0" y="186.0">U</text><text x="165.0" y="186.0">Ă</text><text x="195.0" y="186.0">O</text><text x="225.0" y="186.0">P</text><text x="255.0" y="186.0">T</text><text x="285.0" y="186.0">Ș</text><text x="315.0" y="186.0">A</text><text x="345.0" y="186.0">S</text><text x="375.0" y="186.0">E</text><text x="75.0" y="219.33333333333334">P</text><text x="105.0" y="219.33333333333334">A</text><text x="135.0" y="219.33333333333334">T</text><text x="165.0" y="219.33333333333334">R</text><text x="195.0" y="219.33333333333334">U</text><text x="225.0" y="219.33333333333334">N</text><text x="255.0" y="219.33333333333334">U</text><text x="285.0" y="219.33333333333334">T</text><text x="315.0" y="219.33333333333334">R</text><text x="345.0" y="219.33333333333334">E</text><text x="375.0" y="219.33333333333334">I</text><text x="75.0" y="252.66666666666669">Ș</text><text x="105.0" y="252.66666666666669">A</text><text x="135.0" y="252.66666666666669">P</text><text x="165.0" y="252.66666666666669">T</text><text x="195.0" y="252.66666666666669">E</text><text x="225.0" y="252.66666666666669">C</text><text x="255.0" y="252.66666666666669">I</text><text x="285.0" y="252.66666666666669">N</text><text x="315.0" y="252.66666666666669">C</text><text x="345.0" y="252.66666666666669">I</text><text x="375.0" y="252.66666666666669">A</text><text x="75.0" y="286.0">Ș</text><text x="105.0" y="286.0">I</text><text x="135.0" y="286.0">B</text><text x="165.0" y="286.0">T</text><text x="195.0" y="286.0">R</text><text x="225.0" y="286.0">E</text><text x="255.0" y="286.0">I</text><text x="285.0" y="286.0">Z</text><text x="315.0" y="286.0">E</text><text x="345.0" y="286.0">C</text><text x="375.0" y="286.0">I</text><text x="75.0" y="319.33333333333337">F</text><text x="105.0" y="319.33333333333337">Ă</text><text x="135.0" y="319.33333333333337">R</text><text x="165.0" y="319.33333333333337">Ă</text><text x="195.0" y="319.33333333333337">O</text><text x="225.0" y="319.33333333333337">Z</text><text x="255.0" y="319.33333333333337">E</text><text x="285.0" y="319.33333333333337">C</text><text x="315.0" y="319.33333333333337">E</text><text x="345.0" y="319.33333333333337">U</text><text x="375.0" y="319.33333333333337">N</text><text x="75.0" y="352.6666666666667">D</text><text x="105.0" y="352.6666666666667">O</text><text x="135.0" y="352.6666666666667">U</text><text x="165.0" y="352.6666666666667">Ă</text><text x="195.0" y="352.6666666666667">Z</text><text x="225.0" y="352.6666666666667">E</text><text x="255.0" y="352.6666666666667">C</text><text x="285.0" y="352.6666666666667">I</text><text x="315.0" y="352.6666666666667">V</text><text x="345.0" y="352.6666666666667">Ș</text><text x="375.0" y="352.6666666666667">I</text><text x="75.0" y="386.0">C</text><text x="105.0" y="386.0">I</text><text x="135.0" y="386.0">N</text><text x="165.0" y="386.0">C</text><text x="195.0" y="386.0">I</text><text x="225.0" y="386.0">U</text><text x="255.0" y="386.0">S</text><text x="285.0" y="386.0">F</text><text x="315.0" y="386.0">E</text><text x="345.0" y="386.0">R</text><text x="375.0" y="386.0">T</text><circle cx="20.0" cy="20.0" fill="rgb(255,255,255)" r="2.5" /><circle cx="430.0" cy="20.0" fill="rgb(255,255,255)" r="2.5" /><circle cx="20.0" cy="430.0" fill="rgb(255,255,255)" r="2.5" /><circle cx="430.0" cy="430.0" fill="rgb(255,255,255)" r="2.5" /></g></svg>