<?xml version="1.0" encoding="utf-8" ?>
<svg baseProfile="full" height="450.0mm" version="1.1" viewBox="0 0 450.0 450.0" width="450.0mm" xmlns="http://www.w3.org/2000/svg" xmlns:ev="http://www.w3.org/2001/xml-events" xmlns:xlink="http://www.w3.org/1999/xlink"><defs /><rect fill="rgb(255,255,255)" height="100%" width="100%" x="0" y="0" /><text style="text-anchor:middle;fill:rgb(0,255,0);font-family:Arial;font-size: 10" x="225.0" y="20.0">romanian --- front-view --- bernds_wiring</text><g style="text-anchor:middle;fill:rgb(0,0,0);font-family:Arial;font-size:6"><line stroke="rgb(255,0,0)" x1="430.0" x2="430.0" y1="430.0" y2="20.0" /><line stroke="rgb(255,0,0)" x1="430.0" x2="375.0" y1="20.0" y2="75.0" /><line stroke="rgb(255,0,0)" x1="375.0" x2="375.0" y1="75.0" y2="108.33333333333334" /><line stroke="rgb(255,0,0)" x1="375.0" x2="375.0" y1="108.33333333333334" y2="141.66666666666669" /><line stroke="rgb(255,0,0)" x1="375.0" x2="375.0" y1="141.66666666666669" y2="175.0" /><line stroke="rgb(255,0,0)" x1="375.0" x2="375.0" y1="175.0" y2="208.33333333333334" /><line stroke="rgb(255,0,0)" x1="375.0" x2="375.0" y1="208.33333333333334" y2="241.66666666666669" /><line stroke="rgb(255,0,0)" x1="375.0" x2="375.0" y1="241.66666666666669" y2="275.0" /><line stroke="rgb(255,0,0)" x1="375.0" x2="375.0" y1="275.0" y2="308.33333333333337" /><line stroke="rgb(255,0,0)" x1="375.0" x2="375.0" y1="308.33333333333337" y2="341.6666666666667" /><line stroke="rgb(255,0,0)" x1="375.0" x2="375.0" y1="341.6666666666667" y2="375.0" /><line stroke="rgb(255,0,0)" x1="375.0" x2="345.0" y1="375.0" y2="375.0" /><line stroke="rgb(255,0,0)" x1="345.0" x2="345.0" y1="375.0" y2="341.6666666666667" /><line stroke="rgb(255,0,0)" x1="345.0" x2="345.0" y1="341.6666666666667" y2="308.33333333333337" /><line stroke="rgb(255,0,0)" x1="345.0" x2="345.0" y1="308.33333333333337" y2="275.0" /><line stroke="rgb(255,0,0)" x1="345.0" x2="345.0" y1="275.0" y2="241.66666666666669" /><line stroke="rgb(255,0,0)" x1="345.0" x2="345.0" y1="241.66666666666669" y2="208.33333333333334" /><line stroke="rgb(255,0,0)" x1="345.0" x2="345.0" y1="208.33333333333334" y2="175.0" /><line stroke="rgb(255,0,0)" x1="345.0" x2="345.0" y1="175.0" y2="141.66666666666669" /><line stroke="rgb(255,0,0)" x1="345.0" x2="345.0" y1="141.66666666666669" y2="108.33333333333334" /><line stroke="rgb(255,0,0)" x1="345.0" x2="345.0" y1="108.33333333333334" y2="75.0" /><line stroke="rgb(255,0,0)" x1="345.0" x2="315.0" y1="75.0" y2="75.0" /><line stroke="rgb(255,0,0)" x1="315.0" x2="315.0" y1="75.0" y2="108.33333333333334" /><line stroke="rgb(255,0,0)" x1="315.0" x2="315.0" y1="108.33333333333334" y2="141.66666666666669" /><line stroke="rgb(255,0,0)" x1="315.0" x2="315.0" y1="141.66666666666669" y2="175.0" /><line stroke="rgb(255,0,0)" x1="315.0" x2="315.0" y1="175.0" y2="208.33333333333334" /><line stroke="rgb(255,0,0)" x1="315.0" x2="315.0" y1="208.33333333333334" y2="241.66666666666669" /><line stroke="rgb(255,0,0)" x1="315.0" x2="315.0" y1="241.66666666666669" y2="275.0" /><line stroke="rgb(255,0,0)" x1="315.0" x2="315.0" y1="275.0" y2="308.33333333333337" /><line stroke="rgb(255,0,0)" x1="315.0" x2="315.0" y1="308.33333333333337" y2="341.6666666666667" /><line stroke="rgb(255,0,0)" x1="315.0" x2="315.0" y1="341.6666666666667" y2="375.0" /><line stroke="rgb(255,0,0)" x1="315.0" x2="285.0" y1="375.0" y2="375.0" /><line stroke="rgb(255,0,0)" x1="285.0" x2="285.0" y1="375.0" y2="341.6666666666667" /><line stroke="rgb(255,0,0)" x1="285.0" x2="285.0" y1="341.6666666666667" y2="308.33333333333337" /><line stroke="rgb(255,0,0)" x1="285.0" x2="285.0" y1="308.33333333333337" y2="275.0" /><line stroke="rgb(255,0,0)" x1="285.0" x2="285.0" y1="275.0" y2="241.66666666666669" /><line stroke="rgb(255,0,0)" x1="285.0" x2="285.0" y1="241.66666666666669" y2="208.33333333333334" /><line stroke="rgb(255,0,0)" x1="285.0" x2="285.0" y1="208.33333333333334" y2="175.0" /><line stroke="rgb(255,0,0)" x1="285.0" x2="285.0" y1="175.0" y2="141.66666666666669" /><line stroke="rgb(255,0,0)" x1="285.0" x2="285.0" y1="141.66666666666669" y2="108.33333333333334" /><line stroke="rgb(255,0,0)" x1="285.0" x2="285.0" y1="108.33333333333334" y2="75.0" /><line stroke="rgb(255,0,0)" x1="285.0" x2="255.0" y1="75.0" y2="75.0" /><line stroke="rgb(255,0,0)" x1="255.0" x2="255.0" y1="75.0" y2="108.33333333333334" /><line stroke="rgb(255,0,0)" x1="255.0" x2="255.0" y1="108.33333333333334" y2="141.66666666666669" /><line stroke="rgb(255,0,0)" x1="255.0" x2="255.0" y1="141.66666666666669" y2="175.0" /><line stroke="rgb(255,0,0)" x1="255.0" x2="255.0" y1="175.0" y2="208.33333333333334" /><line stroke="rgb(255,0,0)" x1="255.0" x2="255.0" y1="208.33333333333334" y2="241.66666666666669" /><line stroke="rgb(255,0,0)" x1="255.0" x2="255.0" y1="241.66666666666669" y2="275.0" /><line stroke="rgb(255,0,0)" x1="255.0" x2="255.0" y1="275.0" y2="308.33333333333337" /><line stroke="rgb(255,0,0)" x1="255.0" x2="255.0" y1="308.33333333333337" y2="341.6666666666667" /><line stroke="rgb(255,0,0)" x1="255.0" x2="255.0" y1="341.6666666666667" y2="375.0" /><line stroke="rgb(255,0,0)" x1="255.0" x2="225.0" y1="375.0" y2="375.0" /><line stroke="rgb(255,0,0)" x1="225.0" x2="225.0" y1="375.0" y2="341.6666666666667" /><line stroke="rgb(255,0,0)" x1="225.0" x2="225.0" y1="341.6666666666667" y2="308.33333333333337" /><line stroke="rgb(255,0,0)" x1="225.0" x2="225.0" y1="308.33333333333337" y2="275.0" /><line stroke="rgb(255,0,0)" x1="225.0" x2="225.0" y1="275.0" y2="241.66666666666669" /><line stroke="rgb(255,0,0)" x1="225.0" x2="225.0" y1="241.66666666666669" y2="208.33333333333334" /><line stroke="rgb(255,0,0)" x1="225.0" x2="225.0" y1="208.33333333333334" y2="175.0" /><line stroke="rgb(255,0,0)" x1="225.0" x2="225.0" y1="175.0" y2="141.66666666666669" /><line stroke="rgb(255,0,0)" x1="225.0" x2="225.0" y1="141.66666666666669" y2="108.33333333333334" /><line stroke="rgb(255,0,0)" x1="225.0" x2="225.0" y1="108.33333333333334" y2="75.0" /><line stroke="rgb(255,0,0)" x1="225.0" x2="195.0" y1="75.0" y2="75.0" /><line stroke="rgb(255,0,0)" x1="195.0" x2="195.0" y1="75.0" y2="108.33333333333334" /><line stroke="rgb(255,0,0)" x1="195.0" x2="195.0" y1="108.33333333333334" y2="141.66666666666669" /><line stroke="rgb(255,0,0)" x1="195.0" x2="195.0" y1="141.66666666666669" y2="175.0" /><line stroke="rgb(255,0,0)" x1="195.0" x2="195.0" y1="175.0" y2="208.33333333333334" /><line stroke="rgb(255,0,0)" x1="195.0" x2="195.0" y1="208.33333333333334" y2="241.66666666666669" /><line stroke="rgb(255,0,0)" x1="195.0" x2="195.0" y1="241.66666666666669" y2="275.0" /><line stroke="rgb(255,0,0)" x1="195.0" x2="195.0" y1="275.0" y2="308.33333333333337" /><line stroke="rgb(255,0,0)" x1="195.0" x2="195.0" y1="308.33333333333337" y2="341.6666666666667" /><line stroke="rgb(255,0,0)" x1="195.0" x2="195.0" y1="341.6666666666667" y2="375.0" /><line stroke="rgb(255,0,0)" x1="195.0" x2="165.0" y1="375.0" y2="375.0" /><line stroke="rgb(255,0,0)" x1="165.0" x2="165.0" y1="375.0" y2="341.6666666666667" /><line stroke="rgb(255,0,0)" x1="165.0" x2="165.0" y1="341.6666666666667" y2="308.33333333333337" /><line stroke="rgb(255,0,0)" x1="165.0" x2="165.0" y1="308.33333333333337" y2="275.0" /><line stroke="rgb(255,0,0)" x1="165.0" x2="165.0" y1="275.0" y2="241.66666666666669" /><line stroke="rgb(255,0,0)" x1="165.0" x2="165.0" y1="241.66666666666669" y2="208.33333333333334" /><line stroke="rgb(255,0,0)" x1="165.0" x2="165.0" y1="208.33333333333334" y2="175.0" /><line stroke="rgb(255,0,0)" x1="165.0" x2="165.0" y1="175.0" y2="141.66666666666669" /><line stroke="rgb(255,0,0)" x1="165.0" x2="165.0" y1="141.66666666666669" y2="108.33333333333334" /><line stroke="rgb(255,0,0)" x1="165.0" x2="165.0" y1="108.33333333333334" y2="75.0" /><line stroke="rgb(255,0,0)" x1="165.0" x2="135.0" y1="75.0" y2="75.0" /><line stroke="rgb(255,0,0)" x1="135.0" x2="135.0" y1="75.0" y2="108.33333333333334" /><line stroke="rgb(255,0,0)" x1="135.0" x2="135.0" y1="108.33333333333334" y2="141.66666666666669" /><line stroke="rgb(255,0,0)" x1="135.0" x2="135.0" y1="141.66666666666669" y2="175.0" /><line stroke="rgb(255,0,0)" x1="135.0" x2="135.0" y1="175.0" y2="208.33333333333334" /><line stroke="rgb(255,0,0)" x1="135.0" x2="135.0" y1="208.33333333333334" y2="241.66666666666669" /><line stroke="rgb(255,0,0)" x1="135.0" x2="135.0" y1="241.66666666666669" y2="275.0" /><line stroke="rgb(255,0,0)" x1="135.0" x2="135.0" y1="275.0" y2="308.33333333333337" /><line stroke="rgb(255,0,0)" x1="135.0" x2="135.0" y1="308.33333333333337" y2="341.6666666666667" /><line stroke="rgb(255,0,0)" x1="135.0" x2="135.0" y1="341.6666666666667" y2="375.0" /><line stroke="rgb(255,0,0)" x1="135.0" x2="105.0" y1="375.0" y2="375.0" /><line stroke="rgb(255,0,0)" x1="105.0" x2="105.0" y1="375.0" y2="341.6666666666667" /><line stroke="rgb(255,0,0)" x1="105.0" x2="105.0" y1="341.6666666666667" y2="308.33333333333337" /><line stroke="rgb(255,0,0)" x1="105.0" x2="105.0" y1="308.33333333333337" y2="275.0" /><line stroke="rgb(255,0,0)" x1="105.0" x2="105.0" y1="275.0" y2="241.66666666666669" /><line stroke="rgb(255,0,0)" x1="105.0" x2="105.0" y1="241.66666666666669" y2="208.33333333333334" /><line stroke="rgb(255,0,0)" x1="105.0" x2="105.0" y1="208.33333333333334" y2="175.0" /><line stroke="rgb(255,0,0)" x1="105.0" x2="105.0" y1="175.0" y2="141.66666666666669" /><line stroke="rgb(255,0,0)" x1="105.0" x2="105.0" y1="141.66666666666669" y2="108.33333333333334" /><line stroke="rgb(255,0,0)" x1="105.0" x2="105.0" y1="108.33333333333334" y2="75.0" /><line stroke="rgb(255,0,0)" x1="105.0" x2="75.0" y1="75.0" y2="75.0" /><line stroke="rgb(255,0,0)" x1="75.0" x2="75.0" y1="75.0" y2="108.33333333333334" /><line stroke="rgb(255,0,0)" x1="75.0" x2="75.0" y1="108.33333333333334" y2="141.66666666666669" /><line stroke="rgb(255,0,0)" x1="75.0" x2="75.0" y1="141.66666666666669" y2="175.0" /><line stroke="rgb(255,0,0)" x1="75.0" x2="75.0" y1="175.0" y2="208.33333333333334" /><line stroke="rgb(255,0,0)" x1="75.0" x2="75.0" y1="208.33333333333334" y2="241.66666666666669" /><line stroke="rgb(255,0,0)" x1="75.0" x2="75.0" y1="241.66666666666669" y2="275.0" /><line stroke="rgb(255,0,0)" x1="75.0" x2="75.0" y1="275.0" y2="308.33333333333337" /><line stroke="rgb(255,0,0)" x1="75.0" x2="75.0" y1="308.33333333333337" y2="341.6666666666667" /><line stroke="rgb(255,0,0)" x1="75.0" x2="75.0" y1="341.6666666666667" y2="375.0" /><line stroke="rgb(255,0,0)" x1="75.0" x2="20.0" y1="375.0" y2="430.0" /><line stroke="rgb(255,0,0)" x1="20.0" x2="20.0" y1="430.0" y2="20.0" /><text x="69.0" y="68.33333333333333">E</text><text x="81.0" y="68.33333333333333">0</text><text x="69.0" y="81.66666666666667">(0,0)</text><line stroke="rgb(0,0,0)" x1="75.0" x2="75.0" y1="68.33333333333333" y2="81.66666666666667" /><line stroke="rgb(0,0,0)" x1="69.0" x2="81.0" y1="75.0" y2="75.0" /><text x="99.0" y="68.33333333333333">S</text><text x="111.0" y="68.33333333333333">1</text><text x="99.0" y="81.66666666666667">(1,0)</text><line stroke="rgb(0,0,0)" x1="105.0" x2="105.0" y1="68.33333333333333" y2="81.66666666666667" /><line stroke="rgb(0,0,0)" x1="99.0" x2="111.0" y1="75.0" y2="75.0" /><text x="129.0" y="68.33333333333333">T</text><text x="141.0" y="68.33333333333333">2</text><text x="129.0" y="81.66666666666667">(2,0)</text><line stroke="rgb(0,0,0)" x1="135.0" x2="135.0" y1="68.33333333333333" y2="81.66666666666667" /><line stroke="rgb(0,0,0)" x1="129.0" x2="141.0" y1="75.0" y2="75.0" /><text x="159.0" y="68.33333333333333">E</text><text x="171.0" y="68.33333333333333">3</text><text x="159.0" y="81.66666666666667">(3,0)</text><line stroke="rgb(0,0,0)" x1="165.0" x2="165.0" y1="68.33333333333333" y2="81.66666666666667" /><line stroke="rgb(0,0,0)" x1="159.0" x2="171.0" y1="75.0" y2="75.0" /><text x="189.0" y="68.33333333333333">Z</text><text x="201.0" y="68.33333333333333">4</text><text x="189.0" y="81.66666666666667">(4,0)</text><line stroke="rgb(0,0,0)" x1="195.0" x2="195.0" y1="68.33333333333333" y2="81.66666666666667" /><line stroke="rgb(0,0,0)" x1="189.0" x2="201.0" y1="75.0" y2="75.0" /><text x="219.0" y="68.33333333333333">O</text><text x="231.0" y="68.33333333333333">5</text><text x="219.0" y="81.66666666666667">(5,0)</text><line stroke="rgb(0,0,0)" x1="225.0" x2="225.0" y1="68.33333333333333" y2="81.66666666666667" /><line stroke="rgb(0,0,0)" x1="219.0" x2="231.0" y1="75.0" y2="75.0" /><text x="249.0" y="68.33333333333333">R</text><text x="261.0" y="68.33333333333333">6</text><text x="249.0" y="81.66666666666667">(6,0)</text><line stroke="rgb(0,0,0)" x1="255.0" x2="255.0" y1="68.33333333333333" y2="81.66666666666667" /><line stroke="rgb(0,0,0)" x1="249.0" x2="261.0" y1="75.0" y2="75.0" /><text x="279.0" y="68.33333333333333">A</text><text x="291.0" y="68.33333333333333">7</text><text x="279.0" y="81.66666666666667">(7,0)</text><line stroke="rgb(0,0,0)" x1="285.0" x2="285.0" y1="68.33333333333333" y2="81.66666666666667" /><line stroke="rgb(0,0,0)" x1="279.0" x2="291.0" y1="75.0" y2="75.0" /><text x="309.0" y="68.33333333333333">P</text><text x="321.0" y="68.33333333333333">8</text><text x="309.0" y="81.66666666666667">(8,0)</text><line stroke="rgb(0,0,0)" x1="315.0" x2="315.0" y1="68.33333333333333" y2="81.66666666666667" /><line stroke="rgb(0,0,0)" x1="309.0" x2="321.0" y1="75.0" y2="75.0" /><text x="339.0" y="68.33333333333333">M</text><text x="351.0" y="68.33333333333333">9</text><text x="339.0" y="81.66666666666667">(9,0)</text><line stroke="rgb(0,0,0)" x1="345.0" x2="345.0" y1="68.33333333333333" y2="81.66666666666667" /><line stroke="rgb(0,0,0)" x1="339.0" x2="351.0" y1="75.0" y2="75.0" /><text x="369.0" y="68.33333333333333">O</text><text x="381.0" y="68.33333333333333">10</text><text x="369.0" y="81.66666666666667">(10,0)</text><line stroke="rgb(0,0,0)" x1="375.0" x2="375.0" y1="68.33333333333333" y2="81.66666666666667" /><line stroke="rgb(0,0,0)" x1="369.0" x2="381.0" y1="75.0" y2="75.0" /><text x="69.0" y="101.66666666666667">D</text><text x="81.0" y="101.66666666666667">11</text><text x="69.0" y="115.00000000000001">(0,1)</text><line stroke="rgb(0,0,0)" x1="75.0" x2="75.0" y1="101.66666666666667" y2="115.00000000000001" /><line stroke="rgb(0,0,0)" x1="69.0" x2="81.0" y1="108.33333333333334" y2="108.33333333333334" /><text x="99.0" y="101.66666666666667">O</text><text x="111.0" y="101.66666666666667">12</text><text x="99.0" y="115.00000000000001">(1,1)</text><line stroke="rgb(0,0,0)" x1="105.0" x2="105.0" y1="101.66666666666667" y2="115.00000000000001" /><line stroke="rgb(0,0,0)" x1="99.0" x2="111.0" y1="108.33333333333334" y2="108.33333333333334" /><text x="129.0" y="101.66666666666667">U</text><text x="141.0" y="101.66666666666667">13</text><text x="129.0" y="115.00000000000001">(2,1)</text><line stroke="rgb(0,0,0)" x1="135.0" x2="135.0" y1="101.66666666666667" y2="115.00000000000001" /><line stroke="rgb(0,0,0)" x1="129.0" x2="141.0" y1="108.33333333333334" y2="108.33333333333334" /><text x="159.0" y="101.66666666666667">Ă</text><text x="171.0" y="101.66666666666667">14</text><text x="159.0" y="115.00000000000001">(3,1)</text><line stroke="rgb(0,0,0)" x1="165.0" x2="165.0" y1="101.66666666666667" y2="115.00000000000001" /><line stroke="rgb(0,0,0)" x1="159.0" x2="171.0" y1="108.33333333333334" y2="108.33333333333334" /><text x="189.0" y="101.66666666666667">N</text><text x="201.0" y="101.66666666666667">15</text><text x="189.0" y="115.00000000000001">(4,1)</text><line stroke="rgb(0,0,0)" x1="195.0" x2="195.0" y1="101.66666666666667" y2="115.00000000000001" /><line stroke="rgb(0,0,0)" x1="189.0" x2="201.0" y1="108.33333333333334" y2="108.33333333333334" /><text x="219.0" y="101.66666666666667">S</text><text x="231.0" y="101.66666666666667">16</text><text x="219.0" y="115.00000000000001">(5,1)</text><line stroke="rgb(0,0,0)" x1="225.0" x2="225.0" y1="101.66666666666667" y2="115.00000000000001" /><line stroke="rgb(0,0,0)" x1="219.0" x2="231.0" y1="108.33333333333334" y2="108.33333333333334" /><text x="249.0" y="101.66666666666667">P</text><text x="261.0" y="101.66666666666667">17</text><text x="249.0" y="115.00000000000001">(6,1)</text><line stroke="rgb(0,0,0)" x1="255.0" x2="255.0" y1="101.66666666666667" y2="115.00000000000001" /><line stroke="rgb(0,0,0)" x1="249.0" x2="261.0" y1="108.33333333333334" y2="108.33333333333334" /><text x="279.0" y="101.66666666666667">R</text><text x="291.0" y="101.66666666666667">18</text><text x="279.0" y="115.00000000000001">(7,1)</text><line stroke="rgb(0,0,0)" x1="285.0" x2="285.0" y1="101.66666666666667" y2="115.00000000000001" /><line stroke="rgb(0,0,0)" x1="279.0" x2="291.0" y1="108.33333333333334" y2="108.33333333333334" /><text x="309.0" y="101.66666666666667">E</text><text x="321.0" y="101.66666666666667">19</text><text x="309.0" y="115.00000000000001">(8,1)</text><line stroke="rgb(0,0,0)" x1="315.0" x2="315.0" y1="101.66666666666667" y2="115.00000000000001" /><line stroke="rgb(0,0,0)" x1="309.0" x2="321.0" y1="108.33333333333334" y2="108.33333333333334" /><text x="339.0" y="101.66666666666667">A</text><text x="351.0" y="101.66666666666667">20</text><text x="339.0" y="115.00000000000001">(9,1)</text><line stroke="rgb(0,0,0)" x1="345.0" x2="345.0" y1="101.66666666666667" y2="115.00000000000001" /><line stroke="rgb(0,0,0)" x1="339.0" x2="351.0" y1="108.33333333333334" y2="108.33333333333334" /><text x="369.0" y="101.66666666666667">M</text><text x="381.0" y="101.66666666666667">21</text><text x="369.0" y="115.00000000000001">(10,1)</text><line stroke="rgb(0,0,0)" x1="375.0" x2="375.0" y1="101.66666666666667" y2="115.00000000000001" /><line stroke="rgb(0,0,0)" x1="369.0" x2="381.0" y1="108.33333333333334" y2="108.33333333333334" /><text x="69.0" y="135.00000000000003">U</text><text x="81.0" y="135.00000000000003">22</text><text x="69.0" y="148.33333333333334">(0,2)</text><line stroke="rgb(0,0,0)" x1="75.0" x2="75.0" y1="135.00000000000003" y2="148.33333333333334" /><line stroke="rgb(0,0,0)" x1="69.0" x2="81.0" y1="141.66666666666669" y2="141.66666666666669" /><text x="99.0" y="135.00000000000003">N</text><text x="111.0" y="135.00000000000003">23</text><text x="99.0" y="148.33333333333334">(1,2)</text><line stroke="rgb(0,0,0)" x1="105.0" x2="105.0" y1="135.00000000000003" y2="148.33333333333334" /><line stroke="rgb(0,0,0)" x1="99.0" x2="111.0" y1="141.66666666666669" y2="141.66666666666669" /><text x="129.0" y="135.00000000000003">S</text><text x="141.0" y="135.00000000000003">24</text><text x="129.0" y="148.33333333333334">(2,2)</text><line stroke="rgb(0,0,0)" x1="135.0" x2="135.0" y1="135.00000000000003" y2="148.33333333333334" /><line stroke="rgb(0,0,0)" x1="129.0" x2="141.0" y1="141.66666666666669" y2="141.66666666666669" /><text x="159.0" y="135.00000000000003">P</text><text x="171.0" y="135.00000000000003">25</text><text x="159.0" y="148.33333333333334">(3,2)</text><line stroke="rgb(0,0,0)" x1="165.0" x2="165.0" y1="135.00000000000003" y2="148.33333333333334" /><line stroke="rgb(0,0,0)" x1="159.0" x2="171.0" y1="141.66666666666669" y2="141.66666666666669" /><text x="189.0" y="135.00000000000003">R</text><text x="201.0" y="135.00000000000003">26</text><text x="189.0" y="148.33333333333334">(4,2)</text><line stroke="rgb(0,0,0)" x1="195.0" x2="195.0" y1="135.00000000000003" y2="148.33333333333334" /><line stroke="rgb(0,0,0)" x1="189.0" x2="201.0" y1="141.66666666666669" y2="141.66666666666669" /><text x="219.0" y="135.00000000000003">E</text><text x="231.0" y="135.00000000000003">27</text><text x="219.0" y="148.33333333333334">(5,2)</text><line stroke="rgb(0,0,0)" x1="225.0" x2="225.0" y1="135.00000000000003" y2="148.33333333333334" /><line stroke="rgb(0,0,0)" x1="219.0" x2="231.0" y1="141.66666666666669" y2="141.66666666666669" /><text x="249.0" y="135.00000000000003">Z</text><text x="261.0" y="135.00000000000003">28</text><text x="249.0" y="148.33333333333334">(6,2)</text><line stroke="rgb(0,0,0)" x1="255.0" x2="255.0" y1="135.00000000000003" y2="148.33333333333334" /><line stroke="rgb(0,0,0)" x1="249.0" x2="261.0" y1="141.66666666666669" y2="141.66666666666669" /><text x="279.0" y="135.00000000000003">E</text><text x="291.0" y="135.00000000000003">29</text><text x="279.0" y="148.33333333333334">(7,2)</text><line stroke="rgb(0,0,0)" x1="285.0" x2="285.0" y1="135.00000000000003" y2="148.33333333333334" /><line stroke="rgb(0,0,0)" x1="279.0" x2="291.0" y1="141.66666666666669" y2="141.66666666666669" /><text x="309.0" y="135.00000000000003">C</text><text x="321.0" y="135.00000000000003">30</text><text x="309.0" y="148.33333333333334">(8,2)</text><line stroke="rgb(0,0,0)" x1="315.0" x2="315.0" y1="135.00000000000003" y2="148.33333333333334" /><line stroke="rgb(0,0,0)" x1="309.0" x2="321.0" y1="141.66666666666669" y2="141.66666666666669" /><text x="339.0" y="135.00000000000003">E</text><text x="351.0" y="135.00000000000003">31</text><text x="339.0" y="148.33333333333334">(9,2)</text><line stroke="rgb(0,0,0)" x1="345.0" x2="345.0" y1="135.00000000000003" y2="148.33333333333334" /><line stroke="rgb(0,0,0)" x1="339.0" x2="351.0" y1="141.66666666666669" y2="141.66666666666669" /><text x="369.0" y="135.00000000000003">L</text><text x="381.0" y="135.00000000000003">32</text><text x="369.0" y="148.33333333333334">(10,2)</text><line stroke="rgb(0,0,0)" x1="375.0" x2="375.0" y1="135.00000000000003" y2="148.33333333333334" /><line stroke="rgb(0,0,0)" x1="369.0" x2="381.0" y1="141.66666666666669" y2="141.66666666666669" /><text x="69.0" y="168.33333333333334">N</text><text x="81.0" y="168.33333333333334">33</text><text x="69.0" y="181.66666666666666">(0,3)</text><line stroke="rgb(0,0,0)" x1="75.0" x2="75.0" y1="168.33333333333334" y2="181.66666666666666" /><line stroke="rgb(0,0,0)" x1="69.0" x2="81.0" y1="175.0" y2="175.0" /><text x="99.0" y="168.33333333333334">O</text><text x="111.0" y="168.33333333333334">34</text><text x="99.0" y="181.66666666666666">(1,3)</text><line stroke="rgb(0,0,0)" x1="105.0" x2="105.0" y1="168.33333333333334" y2="181.66666666666666" /><line stroke="rgb(0,0,0)" x1="99.0" x2="111.0" y1="175.0" y2="175.0" /><text x="129.0" y="168.33333333333334">U</text><text x="141.0" y="168.33333333333334">35</text><text x="129.0" y="181.66666666666666">(2,3)</text><line stroke="rgb(0,0,0)" x1="135.0" x2="135.0" y1="168.33333333333334" y2="181.66666666666666" /><line stroke="rgb(0,0,0)" x1="129.0" x2="141.0" y1="175.0" y2="175.0" /><text x="159.0" y="168.33333333333334">Ă</text><text x="171.0" y="168.33333333333334">36</text><text x="159.0" y="181.66666666666666">(3,3)</text><line stroke="rgb(0,0,0)" x1="165.0" x2="165.0" y1="168.33333333333334" y2="181.66666666666666" /><line stroke="rgb(0,0,0)" x1="159.0" x2="171.0" y1="175.0" y2="175.0" /><text x="189.0" y="168.33333333333334">O</text><text x="201.0" y="168.33333333333334">37</text><text x="189.0" y="181.66666666666666">(4,3)</text><line stroke="rgb(0,0,0)" x1="195.0" x2="195.0" y1="168.33333333333334" y2="181.66666666666666" /><line stroke="rgb(0,0,0)" x1="189.0" x2="201.0" y1="175.0" y2="175.0" /><text x="219.0" y="168.33333333333334">P</text><text x="231.0" y="168.33333333333334">38</text><text x="219.0" y="181.66666666666666">(5,3)</text><line stroke="rgb(0,0,0)" x1="225.0" x2="225.0" y1="168.33333333333334" y2="181.66666666666666" /><line stroke="rgb(0,0,0)" x1="219.0" x2="231.0" y1="175.0" y2="175.0" /><text x="249.0" y="168.33333333333334">T</text><text x="261.0" y="168.33333333333334">39</text><text x="249.0" y="181.66666666666666">(6,3)</text><line stroke="rgb(0,0,0)" x1="255.0" x2="255.0" y1="168.33333333333334" y2="181.66666666666666" /><line stroke="rgb(0,0,0)" x1="249.0" x2="261.0" y1="175.0" y2="175.0" /><text x="279.0" y="168.33333333333334">Ș</text><text x="291.0" y="168.33333333333334">40</text><text x="279.0" y="181.66666666666666">(7,3)</text><line stroke="rgb(0,0,0)" x1="285.0" x2="285.0" y1="168.33333333333334" y2="181.66666666666666" /><line stroke="rgb(0,0,0)" x1="279.0" x2="291.0" y1="175.0" y2="175.0" /><text x="309.0" y="168.33333333333334">A</text><text x="321.0" y="168.33333333333334">41</text><text x="309.0" y="181.66666666666666">(8,3)</text><line stroke="rgb(0,0,0)" x1="315.0" x2="315.0" y1="168.33333333333334" y2="181.66666666666666" /><line stroke="rgb(0,0,0)" x1="309.0" x2="321.0" y1="175.0" y2="175.0" /><text x="339.0" y="168.33333333333334">S</text><text x="351.0" y="168.33333333333334">42</text><text x="339.0" y="181.66666666666666">(9,3)</text><line stroke="rgb(0,0,0)" x1="345.0" x2="345.0" y1="168.33333333333334" y2="181.66666666666666" /><line stroke="rgb(0,0,0)" x1="339.0" x2="351.0" y1="175.0" y2="175.0" /><text x="369.0" y="168.33333333333334">E</text><text x="381.0" y="168.33333333333334">43</text><text x="369.0" y="181.66666666666666">(10,3)</text><line stroke="rgb(0,0,0)" x1="375.0" x2="375.0" y1="168.33333333333334" y2="181.66666666666666" /><line stroke="rgb(0,0,0)" x1="369.0" x2="381.0" y1="175.0" y2="175.0" /><text x="69.0" y="201.66666666666669">P</text><text x="81.0" y="201.66666666666669">44</text><text x="69.0" y="215.0">(0,4)</text><line stroke="rgb(0,0,0)" x1="75.0" x2="75.0" y1="201.66666666666669" y2="215.0" /><line stroke="rgb(0,0,0)" x1="69.0" x2="81.0" y1="208.33333333333334" y2="208.33333333333334" /><text x="99.0" y="201.66666666666669">A</text><text x="111.0" y="201.66666666666669">45</text><text x="99.0" y="215.0">(1,4)</text><line stroke="rgb(0,0,0)" x1="105.0" x2="105.0" y1="201.66666666666669" y2="215.0" /><line stroke="rgb(0,0,0)" x1="99.0" x2="111.0" y1="208.33333333333334" y2="208.33333333333334" /><text x="129.0" y="201.66666666666669">T</text><text x="141.0" y="201.66666666666669">46</text><text x="129.0" y="215.0">(2,4)</text><line stroke="rgb(0,0,0)" x1="135.0" x2="135.0" y1="201.66666666666669" y2="215.0" /><line stroke="rgb(0,0,0)" x1="129.0" x2="141.0" y1="208.33333333333334" y2="208.33333333333334" /><text x="159.0" y="201.66666666666669">R</text><text x="171.0" y="201.66666666666669">47</text><text x="159.0" y="215.0">(3,4)</text><line stroke="rgb(0,0,0)" x1="165.0" x2="165.0" y1="201.66666666666669" y2="215.0" /><line stroke="rgb(0,0,0)" x1="159.0" x2="171.0" y1="208.33333333333334" y2="208.33333333333334" /><text x="189.0" y="201.66666666666669">U</text><text x="201.0" y="201.66666666666669">48</text><text x="189.0" y="215.0">(4,4)</text><line stroke="rgb(0,0,0)" x1="195.0" x2="195.0" y1="201.66666666666669" y2="215.0" /><line stroke="rgb(0,0,0)" x1="189.0" x2="201.0" y1="208.33333333333334" y2="208.33333333333334" /><text x="219.0" y="201.66666666666669">N</text><text x="231.0" y="201.66666666666669">49</text><text x="219.0" y="215.0">(5,4)</text><line stroke="rgb(0,0,0)" x1="225.0" x2="225.0" y1="201.66666666666669" y2="215.0" /><line stroke="rgb(0,0,0)" x1="219.0" x2="231.0" y1="208.33333333333334" y2="208.33333333333334" /><text x="249.0" y="201.66666666666669">U</text><text x="261.0" y="201.66666666666669">50</text><text x="249.0" y="215.0">(6,4)</text><line stroke="rgb(0,0,0)" x1="255.0" x2="255.0" y1="201.66666666666669" y2="215.0" /><line stroke="rgb(0,0,0)" x1="249.0" x2="261.0" y1="208.33333333333334" y2="208.33333333333334" /><text x="279.0" y="201.66666666666669">T</text><text x="291.0" y="201.66666666666669">51</text><text x="279.0" y="215.0">(7,4)</text><line stroke="rgb(0,0,0)" x1="285.0" x2="285.0" y1="201.66666666666669" y2="215.0" /><line stroke="rgb(0,0,0)" x1="279.0" x2="291.0" y1="208.33333333333334" y2="208.33333333333334" /><text x="309.0" y="201.66666666666669">R</text><text x="321.0" y="201.66666666666669">52</text><text x="309.0" y="215.0">(8,4)</text><line stroke="rgb(0,0,0)" x1="315.0" x2="315.0" y1="201.66666666666669" y2="215.0" /><line stroke="rgb(0,0,0)" x1="309.0" x2="321.0" y1="208.33333333333334" y2="208.33333333333334" /><text x="339.0" y="201.66666666666669">E</text><text x="351.0" y="201.66666666666669">53</text><text x="339.0" y="215.0">(9,4)</text><line stroke="rgb(0,0,0)" x1="345.0" x2="345.0" y1="201.66666666666669" y2="215.0" /><line stroke="rgb(0,0,0)" x1="339.0" x2="351.0" y1="208.33333333333334" y2="208.33333333333334" /><text x="369.0" y="201.66666666666669">I</text><text x="381.0" y="201.66666666666669">54</text><text x="369.0" y="215.0">(10,4)</text><line stroke="rgb(0,0,0)" x1="375.0" x2="375.0" y1="201.66666666666669" y2="215.0" /><line stroke="rgb(0,0,0)" x1="369.0" x2="381.0" y1="208.33333333333334" y2="208.33333333333334" /><text x="69.0" y="235.00000000000003">Ș</text><text x="81.0" y="235.00000000000003">55</text><text x="69.0" y="248.33333333333334">(0,5)</text><line stroke="rgb(0,0,0)" x1="75.0" x2="75.0" y1="235.00000000000003" y2="248.33333333333334" /><line stroke="rgb(0,0,0)" x1="69.0" x2="81.0" y1="241.66666666666669" y2="241.66666666666669" /><text x="99.0" y="235.00000000000003">A</text><text x="111.0" y="235.00000000000003">56</text><text x="99.0" y="248.33333333333334">(1,5)</text><line stroke="rgb(0,0,0)" x1="105.0" x2="105.0" y1="235.00000000000003" y2="248.33333333333334" /><line stroke="rgb(0,0,0)" x1="99.0" x2="111.0" y1="241.66666666666669" y2="241.66666666666669" /><text x="129.0" y="235.00000000000003">P</text><text x="141.0" y="235.00000000000003">57</text><text x="129.0" y="248.33333333333334">(2,5)</text><line stroke="rgb(0,0,0)" x1="135.0" x2="135.0" y1="235.00000000000003" y2="248.33333333333334" /><line stroke="rgb(0,0,0)" x1="129.0" x2="141.0" y1="241.66666666666669" y2="241.66666666666669" /><text x="159.0" y="235.00000000000003">T</text><text x="171.0" y="235.00000000000003">58</text><text x="159.0" y="248.33333333333334">(3,5)</text><line stroke="rgb(0,0,0)" x1="165.0" x2="165.0" y1="235.00000000000003" y2="248.33333333333334" /><line stroke="rgb(0,0,0)" x1="159.0" x2="171.0" y1="241.66666666666669" y2="241.66666666666669" /><text x="189.0" y="235.00000000000003">E</text><text x="201.0" y="235.00000000000003">59</text><text x="189.0" y="248.33333333333334">(4,5)</text><line stroke="rgb(0,0,0)" x1="195.0" x2="195.0" y1="235.00000000000003" y2="248.33333333333334" /><line stroke="rgb(0,0,0)" x1="189.0" x2="201.0" y1="241.66666666666669" y2="241.66666666666669" /><text x="219.0" y="235.00000000000003">C</text><text x="231.0" y="235.00000000000003">60</text><text x="219.0" y="248.33333333333334">(5,5)</text><line stroke="rgb(0,0,0)" x1="225.0" x2="225.0" y1="235.00000000000003" y2="248.33333333333334" /><line stroke="rgb(0,0,0)" x1="219.0" x2="231.0" y1="241.66666666666669" y2="241.66666666666669" /><text x="249.0" y="235.00000000000003">I</text><text x="261.0" y="235.00000000000003">61</text><text x="249.0" y="248.33333333333334">(6,5)</text><line stroke="rgb(0,0,0)" x1="255.0" x2="255.0" y1="235.00000000000003" y2="248.33333333333334" /><line stroke="rgb(0,0,0)" x1="249.0" x2="261.0" y1="241.66666666666669" y2="241.66666666666669" /><text x="279.0" y="235.00000000000003">N</text><text x="291.0" y="235.00000000000003">62</text><text x="279.0" y="248.33333333333334">(7,5)</text><line stroke="rgb(0,0,0)" x1="285.0" x2="285.0" y1="235.00000000000003" y2="248.33333333333334" /><line stroke="rgb(0,0,0)" x1="279.0" x2="291.0" y1="241.66666666666669" y2="241.66666666666669" /><text x="309.0" y="235.00000000000003">C</text><text x="321.0" y="235.00000000000003">63</text><text x="309.0" y="248.33333333333334">(8,5)</text><line stroke="rgb(0,0,0)" x1="315.0" x2="315.0" y1="235.00000000000003" y2="248.33333333333334" /><line stroke="rgb(0,0,0)" x1="309.0" x2="321.0" y1="241.66666666666669" y2="241.66666666666669" /><text x="339.0" y="235.00000000000003">I</text><text x="351.0" y="235.00000000000003">64</text><text x="339.0" y="248.33333333333334">(9,5)</text><line stroke="rgb(0,0,0)" x1="345.0" x2="345.0" y1="235.00000000000003" y2="248.33333333333334" /><line stroke="rgb(0,0,0)" x1="339.0" x2="351.0" y1="241.66666666666669" y2="241.66666666666669" /><text x="369.0" y="235.00000000000003">A</text><text x="381.0" y="235.00000000000003">65</text><text x="369.0" y="248.33333333333334">(10,5)</text><line stroke="rgb(0,0,0)" x1="375.0" x2="375.0" y1="235.00000000000003" y2="248.33333333333334" /><line stroke="rgb(0,0,0)" x1="369.0" x2="381.0" y1="241.66666666666669" y2="241.66666666666669" /><text x="69.0" y="268.3333333333333">Ș</text><text x="81.0" y="268.3333333333333">66</text><text x="69.0" y="281.6666666666667">(0,6)</text><line stroke="rgb(0,0,0)" x1="75.0" x2="75.0" y1="268.3333333333333" y2="281.6666666666667" /><line stroke="rgb(0,0,0)" x1="69.0" x2="81.0" y1="275.0" y2="275.0" /><text x="99.0" y="268.3333333333333">I</text><text x="111.0" y="268.3333333333333">67</text><text x="99.0" y="281.6666666666667">(1,6)</text><line stroke="rgb(0,0,0)" x1="105.0" x2="105.0" y1="268.3333333333333" y2="281.6666666666667" /><line stroke="rgb(0,0,0)" x1="99.0" x2="111.0" y1="275.0" y2="275.0" /><text x="129.0" y="268.3333333333333">B</text><text x="141.0" y="268.3333333333333">68</text><text x="129.0" y="281.6666666666667">(2,6)</text><line stroke="rgb(0,0,0)" x1="135.0" x2="135.0" y1="268.3333333333333" y2="281.6666666666667" /><line stroke="rgb(0,0,0)" x1="129.0" x2="141.0" y1="275.0" y2="275.0" /><text x="159.0" y="268.3333333333333">T</text><text x="171.0" y="268.3333333333333">69</text><text x="159.0" y="281.6666666666667">(3,6)</text><line stroke="rgb(0,0,0)" x1="165.0" x2="165.0" y1="268.3333333333333" y2="281.6666666666667" /><line stroke="rgb(0,0,0)" x1="159.0" x2="171.0" y1="275.0" y2="275.0" /><text x="189.0" y="268.3333333333333">R</text><text x="201.0" y="268.3333333333333">70</text><text x="189.0" y="281.6666666666667">(4,6)</text><line stroke="rgb(0,0,0)" x1="195.0" x2="195.0" y1="268.3333333333333" y2="281.6666666666667" /><line stroke="rgb(0,0,0)" x1="189.0" x2="201.0" y1="275.0" y2="275.0" /><text x="219.0" y="268.3333333333333">E</text><text x="231.0" y="268.3333333333333">71</text><text x="219.0" y="281.6666666666667">(5,6)</text><line stroke="rgb(0,0,0)" x1="225.0" x2="225.0" y1="268.3333333333333" y2="281.6666666666667" /><line stroke="rgb(0,0,0)" x1="219.0" x2="231.0" y1="275.0" y2="275.0" /><text x="249.0" y="268.3333333333333">I</text><text x="261.0" y="268.3333333333333">72</text><text x="249.0" y="281.6666666666667">(6,6)</text><line stroke="rgb(0,0,0)" x1="255.0" x2="255.0" y1="268.3333333333333" y2="281.6666666666667" /><line stroke="rgb(0,0,0)" x1="249.0" x2="261.0" y1="275.0" y2="275.0" /><text x="279.0" y="268.3333333333333">Z</text><text x="291.0" y="268.3333333333333">73</text><text x="279.0" y="281.6666666666667">(7,6)</text><line stroke="rgb(0,0,0)" x1="285.0" x2="285.0" y1="268.3333333333333" y2="281.6666666666667" /><line stroke="rgb(0,0,0)" x1="279.0" x2="291.0" y1="275.0" y2="275.0" /><text x="309.0" y="268.3333333333333">E</text><text x="321.0" y="268.3333333333333">74</text><text x="309.0" y="281.6666666666667">(8,6)</text><line stroke="rgb(0,0,0)" x1="315.0" x2="315.0" y1="268.3333333333333" y2="281.6666666666667" /><line stroke="rgb(0,0,0)" x1="309.0" x2="321.0" y1="275.0" y2="275.0" /><text x="339.0" y="268.3333333333333">C</text><text x="351.0" y="268.3333333333333">75</text><text x="339.0" y="281.6666666666667">(9,6)</text><line stroke="rgb(0,0,0)" x1="345.0" x2="345.0" y1="268.3333333333333" y2="281.6666666666667" /><line stroke="rgb(0,0,0)" x1="339.0" x2="351.0" y1="275.0" y2="275.0" /><text x="369.0" y="268.3333333333333">I</text><text x="381.0" y="268.3333333333333">76</text><text x="369.0" y="281.6666666666667">(10,6)</text><line stroke="rgb(0,0,0)" x1="375.0" x2="375.0" y1="268.3333333333333" y2="281.6666666666667" /><line stroke="rgb(0,0,0)" x1="369.0" x2="381.0" y1="275.0" y2="275.0" /><text x="69.0" y="301.6666666666667">F</text><text x="81.0" y="301.6666666666667">77</text><text x="69.0" y="315.00000000000006">(0,7)</text><line stroke="rgb(0,0,0)" x1="75.0" x2="75.0" y1="301.6666666666667" y2="315.00000000000006" /><line stroke="rgb(0,0,0)" x1="69.0" x2="81.0" y1="308.33333333333337" y2="308.33333333333337" /><text x="99.0" y="301.6666666666667">Ă</text><text x="111.0" y="301.6666666666667">78</text><text x="99.0" y="315.00000000000006">(1,7)</text><line stroke="rgb(0,0,0)" x1="105.0" x2="105.0" y1="301.6666666666667" y2="315.00000000000006" /><line stroke="rgb(0,0,0)" x1="99.0" x2="111.0" y1="308.33333333333337" y2="308.33333333333337" /><text x="129.0" y="301.6666666666667">R</text><text x="141.0" y="301.6666666666667">79</text><text x="129.0" y="315.00000000000006">(2,7)</text><line stroke="rgb(0,0,0)" x1="135.0" x2="135.0" y1="301.6666666666667" y2="315.00000000000006" /><line stroke="rgb(0,0,0)" x1="129.0" x2="141.0" y1="308.33333333333337" y2="308.33333333333337" /><text x="159.0" y="301.6666666666667">Ă</text><text x="171.0" y="301.6666666666667">80</text><text x="159.0" y="315.00000000000006">(3,7)</text><line stroke="rgb(0,0,0)" x1="165.0" x2="165.0" y1="301.6666666666667" y2="315.00000000000006" /><line stroke="rgb(0,0,0)" x1="159.0" x2="171.0" y1="308.33333333333337" y2="308.33333333333337" /><text x="189.0" y="301.6666666666667">O</text><text x="201.0" y="301.6666666666667">81</text><text x="189.0" y="315.00000000000006">(4,7)</text><line stroke="rgb(0,0,0)" x1="195.0" x2="195.0" y1="301.6666666666667" y2="315.00000000000006" /><line stroke="rgb(0,0,0)" x1="189.0" x2="201.0" y1="308.33333333333337" y2="308.33333333333337" /><text x="219.0" y="301.6666666666667">Z</text><text x="231.0" y="301.6666666666667">82</text><text x="219.0" y="315.00000000000006">(5,7)</text><line stroke="rgb(0,0,0)" x1="225.0" x2="225.0" y1="301.6666666666667" y2="315.00000000000006" /><line stroke="rgb(0,0,0)" x1="219.0" x2="231.0" y1="308.33333333333337" y2="308.33333333333337" /><text x="249.0" y="301.6666666666667">E</text><text x="261.0" y="301.6666666666667">83</text><text x="249.0" y="315.00000000000006">(6,7)</text><line stroke="rgb(0,0,0)" x1="255.0" x2="255.0" y1="301.6666666666667" y2="315.00000000000006" /><line stroke="rgb(0,0,0)" x1="249.0" x2="261.0" y1="308.33333333333337" y2="308.33333333333337" /><text x="279.0" y="301.6666666666667">C</text><text x="291.0" y="301.6666666666667">84</text><text x="279.0" y="315.00000000000006">(7,7)</text><line stroke="rgb(0,0,0)" x1="285.0" x2="285.0" y1="301.6666666666667" y2="315.00000000000006" /><line stroke="rgb(0,0,0)" x1="279.0" x2="291.0" y1="308.33333333333337" y2="308.33333333333337" /><text x="309.0" y="301.6666666666667">E</text><text x="321.0" y="301.6666666666667">85</text><text x="309.0" y="315.00000000000006">(8,7)</text><line stroke="rgb(0,0,0)" x1="315.0" x2="315.0" y1="301.6666666666667" y2="315.00000000000006" /><line stroke="rgb(0,0,0)" x1="309.0" x2="321.0" y1="308.33333333333337" y2="308.33333333333337" /><text x="339.0" y="301.6666666666667">U</text><text x="351.0" y="301.6666666666667">86</text><text x="339.0" y="315.00000000000006">(9,7)</text><line stroke="rgb(0,0,0)" x1="345.0" x2="345.0" y1="301.6666666666667" y2="315.00000000000006" /><line stroke="rgb(0,0,0)" x1="339.0" x2="351.0" y1="308.33333333333337" y2="308.33333333333337" /><text x="369.0" y="301.6666666666667">N</text><text x="381.0" y="301.6666666666667">87</text><text x="369.0" y="315.00000000000006">(10,7)</text><line stroke="rgb(0,0,0)" x1="375.0" x2="375.0" y1="301.6666666666667" y2="315.00000000000006" /><line stroke="rgb(0,0,0)" x1="369.0" x2="381.0" y1="308.33333333333337" y2="308.33333333333337" /><text x="69.0" y="335.0">D</text><text x="81.0" y="335.0">88</text><text x="69.0" y="348.33333333333337">(0,8)</text><line stroke="rgb(0,0,0)" x1="75.0" x2="75.0" y1="335.0" y2="348.33333333333337" /><line stroke="rgb(0,0,0)" x1="69.0" x2="81.0" y1="341.6666666666667" y2="341.6666666666667" /><text x="99.0" y="335.0">O</text><text x="111.0" y="335.0">89</text><text x="99.0" y="348.33333333333337">(1,8)</text><line stroke="rgb(0,0,0)" x1="105.0" x2="105.0" y1="335.0" y2="348.33333333333337" /><line stroke="rgb(0,0,0)" x1="99.0" x2="111.0" y1="341.6666666666667" y2="341.6666666666667" /><text x="129.0" y="335.0">U</text><text x="141.0" y="335.0">90</text><text x="129.0" y="348.33333333333337">(2,8)</text><line stroke="rgb(0,0,0)" x1="135.0" x2="135.0" y1="335.0" y2="348.33333333333337" /><line stroke="rgb(0,0,0)" x1="129.0" x2="141.0" y1="341.6666666666667" y2="341.6666666666667" /><text x="159.0" y="335.0">Ă</text><text x="171.0" y="335.0">91</text><text x="159.0" y="348.33333333333337">(3,8)</text><line stroke="rgb(0,0,0)" x1="165.0" x2="165.0" y1="335.0" y2="348.33333333333337" /><line stroke="rgb(0,0,0)" x1="159.0" x2="171.0" y1="341.6666666666667" y2="341.6666666666667" /><text x="189.0" y="335.0">Z</text><text x="201.0" y="335.0">92</text><text x="189.0" y="348.33333333333337">(4,8)</text><line stroke="rgb(0,0,0)" x1="195.0" x2="195.0" y1="335.0" y2="348.33333333333337" /><line stroke="rgb(0,0,0)" x1="189.0" x2="201.0" y1="341.6666666666667" y2="341.6666666666667" /><text x="219.0" y="335.0">E</text><text x="231.0" y="335.0">93</text><text x="219.0" y="348.33333333333337">(5,8)</text><line stroke="rgb(0,0,0)" x1="225.0" x2="225.0" y1="335.0" y2="348.33333333333337" /><line stroke="rgb(0,0,0)" x1="219.0" x2="231.0" y1="341.6666666666667" y2="341.6666666666667" /><text x="249.0" y="335.0">C</text><text x="261.0" y="335.0">94</text><text x="249.0" y="348.33333333333337">(6,8)</text><line stroke="rgb(0,0,0)" x1="255.0" x2="255.0" y1="335.0" y2="348.33333333333337" /><line stroke="rgb(0,0,0)" x1="249.0" x2="261.0" y1="341.6666666666667" y2="341.6666666666667" /><text x="279.0" y="335.0">I</text><text x="291.0" y="335.0">95</text><text x="279.0" y="348.33333333333337">(7,8)</text><line stroke="rgb(0,0,0)" x1="285.0" x2="285.0" y1="335.0" y2="348.33333333333337" /><line stroke="rgb(0,0,0)" x1="279.0" x2="291.0" y1="341.6666666666667" y2="341.6666666666667" /><text x="309.0" y="335.0">V</text><text x="321.0" y="335.0">96</text><text x="309.0" y="348.33333333333337">(8,8)</text><line stroke="rgb(0,0,0)" x1="315.0" x2="315.0" y1="335.0" y2="348.33333333333337" /><line stroke="rgb(0,0,0)" x1="309.0" x2="321.0" y1="341.6666666666667" y2="341.6666666666667" /><text x="339.0" y="335.0">Ș</text><text x="351.0" y="335.0">97</text><text x="339.0" y="348.33333333333337">(9,8)</text><line stroke="rgb(0,0,0)" x1="345.0" x2="345.0" y1="335.0" y2="348.33333333333337" /><line stroke="rgb(0,0,0)" x1="339.0" x2="351.0" y1="341.6666666666667" y2="341.6666666666667" /><text x="369.0" y="335.0">I</text><text x="381.0" y="335.0">98</text><text x="369.0" y="348.33333333333337">(10,8)</text><line stroke="rgb(0,0,0)" x1="375.0" x2="375.0" y1="335.0" y2="348.33333333333337" /><line stroke="rgb(0,0,0)" x1="369.0" x2="381.0" y1="341.6666666666667" y2="341.6666666666667" /><text x="69.0" y="368.3333333333333">C</text><text x="81.0" y="368.3333333333333">99</text><text x="69.0" y="381.6666666666667">(0,9)</text><line stroke="rgb(0,0,0)" x1="75.0" x2="75.0" y1="368.3333333333333" y2="381.6666666666667" /><line stroke="rgb(0,0,0)" x1="69.0" x2="81.0" y1="375.0" y2="375.0" /><text x="99.0" y="368.3333333333333">I</text><text x="111.0" y="368.3333333333333">100</text><text x="99.0" y="381.6666666666667">(1,9)</text><line stroke="rgb(0,0,0)" x1="105.0" x2="105.0" y1="368.3333333333333" y2="381.6666666666667" /><line stroke="rgb(0,0,0)" x1="99.0" x2="111.0" y1="375.0" y2="375.0" /><text x="129.0" y="368.3333333333333">N</text><text x="141.0" y="368.3333333333333">101</text><text x="129.0" y="381.6666666666667">(2,9)</text><line stroke="rgb(0,0,0)" x1="135.0" x2="135.0" y1="368.3333333333333" y2="381.6666666666667" /><line stroke="rgb(0,0,0)" x1="129.0" x2="141.0" y1="375.0" y2="375.0" /><text x="159.0" y="368.3333333333333">C</text><text x="171.0" y="368.3333333333333">102</text><text x="159.0" y="381.6666666666667">(3,9)</text><line stroke="rgb(0,0,0)" x1="165.0" x2="165.0" y1="368.3333333333333" y2="381.6666666666667" /><line stroke="rgb(0,0,0)" x1="159.0" x2="171.0" y1="375.0" y2="375.0" /><text x="189.0" y="368.3333333333333">I</text><text x="201.0" y="368.3333333333333">103</text><text x="189.0" y="381.6666666666667">(4,9)</text><line stroke="rgb(0,0,0)" x1="195.0" x2="195.0" y1="368.3333333333333" y2="381.6666666666667" /><line stroke="rgb(0,0,0)" x1="189.0" x2="201.0" y1="375.0" y2="375.0" /><text x="219.0" y="368.3333333333333">U</text><text x="231.0" y="368.3333333333333">104</text><text x="219.0" y="381.6666666666667">(5,9)</text><line stroke="rgb(0,0,0)" x1="225.0" x2="225.0" y1="368.3333333333333" y2="381.6666666666667" /><line stroke="rgb(0,0,0)" x1="219.0" x2="231.0" y1="375.0" y2="375.0" /><text x="249.0" y="368.3333333333333">S</text><text x="261.0" y="368.3333333333333">105</text><text x="249.0" y="381.6666666666667">(6,9)</text><line stroke="rgb(0,0,0)" x1="255.0" x2="255.0" y1="368.3333333333333" y2="381.6666666666667" /><line stroke="rgb(0,0,0)" x1="249.0" x2="261.0" y1="375.0" y2="375.0" /><text x="279.0" y="368.3333333333333">F</text><text x="291.0" y="368.3333333333333">106</text><text x="279.0" y="381.6666666666667">(7,9)</text><line stroke="rgb(0,0,0)" x1="285.0" x2="285.0" y1="368.3333333333333" y2="381.6666666666667" /><line stroke="rgb(0,0,0)" x1="279.0" x2="291.0" y1="375.0" y2="375.0" /><text x="309.0" y="368.3333333333333">E</text><text x="321.0" y="368.3333333333333">107</text><text x="309.0" y="381.6666666666667">(8,9)</text><line stroke="rgb(0,0,0)" x1="315.0" x2="315.0" y1="368.3333333333333" y2="381.6666666666667" /><line stroke="rgb(0,0,0)" x1="309.0" x2="321.0" y1="375.0" y2="375.0" /><text x="339.0" y="368.3333333333333">R</text><text x="351.0" y="368.3333333333333">108</text><text x="339.0" y="381.6666666666667">(9,9)</text><line stroke="rgb(0,0,0)" x1="345.0" x2="345.0" y1="368.3333333333333" y2="381.6666666666667" /><line stroke="rgb(0,0,0)" x1="339.0" x2="351.0" y1="375.0" y2="375.0" /><text x="369.0" y="368.3333333333333">T</text><text x="381.0" y="368.3333333333333">109</text><text x="369.0" y="381.6666666666667">(10,9)</text><line stroke="rgb(0,0,0)" x1="375.0" x2="375.0" y1="368.3333333333333" y2="381.6666666666667" /><line stroke="rgb(0,0,0)" x1="369.0" x2="381.0" y1="375.0" y2="375.0" /><text fill="rgb(0,0,0)" x="14.0" y="13.333333333333332">1</text><line stroke="rgb(0,0,0)" x1="20.0" x2="20.0" y1="13.333333333333332" y2="26.666666666666668" /><line stroke="rgb(0,0,0)" x1="14.0" x2="26.0" y1="20.0" y2="20.0" /><text fill="rgb(0,0,0)" x="424.0" y="13.333333333333332">2</text><line stroke="rgb(0,0,0)" x1="430.0" x2="430.0" y1="13.333333333333332" y2="26.666666666666668" /><line stroke="rgb(0,0,0)" x1="424.0" x2="436.0" y1="20.0" y2="20.0" /><text fill="rgb(0,0,0)" x="14.0" y="423.3333333333333">3</text><line stroke="rgb(0,0,0)" x1="20.0" x2="20.0" y1="423.3333333333333" y2="436.6666666666667" /><line stroke="rgb(0,0,0)" x1="14.0" x2="26.0" y1="430.0" y2="430.0" /><text fill="rgb(0,0,0)" x="424.0" y="423.3333333333333">4</text><line stroke="rgb(0,0,0)" x1="430.0" x2="430.0" y1="423.3333333333333" y2="436.6666666666667" /><line stroke="rgb(0,0,0)" x1="424.0" x2="436.0" y1="430.0" y2="430.0" /><line stroke="rgb(255,0,0)" x1="430.0" x2="400.0" y1="430.0" y2="430.0" /><text style="text-anchor:end;" x="394.0" y="430.0">Connect here to power supply and Raspberry.</text></g></svg>