<?xml version="1.0" encoding="UTF-8" standalone="no"?>
<!-- Created with Inkscape (http://www.inkscape.org/) -->

<svg
   xmlns:dc="http://purl.org/dc/elements/1.1/"
   xmlns:cc="http://creativecommons.org/ns#"
   xmlns:rdf="http://www.w3.org/1999/02/22-rdf-syntax-ns#"
   xmlns:svg="http://www.w3.org/2000/svg"
   xmlns="http://www.w3.org/2000/svg"
   version="1.1"
   width="450mm"
   height="450mm"
   viewBox="0 0 450 450"
   id="svg3260">
  <metadata
     id="metadata3498">
    <rdf:RDF>
      <cc:Work
         rdf:about="">
        <dc:format>image/svg+xml</dc:format>
        <dc:type
           rdf:resource="http://purl.org/dc/dcmitype/StillImage" />
        <dc:title></dc:title>
      </cc:Work>
    </rdf:RDF>
  </metadata>
  <defs
     id="defs3262" />
  <path
     d="m 0,0 450,0 0,450 -450,0 z"
     id="rect3264"
     style="fill:#000000" />
  <g
     id="g3266"
     style="font-size:22px;text-anchor:middle;fill:#ffffff;font-family:Arial">
    <g
       id="text3268">
      <path
         d="m 74.000977,86 0,-15.748047 2.083984,0 0,15.748047 -2.083984,0"
         id="path3696" />
    </g>
    <g
       id="text3270">
      <path
         d="m 103.97949,86 0,-13.889648 -5.188474,0 0,-1.858399 12.482424,0 0,1.858399 -5.20996,0 0,13.889648 -2.08399,0"
         id="path3699" />
    </g>
    <g
       id="text3272">
      <path
         d="m 130.48828,86 0,-15.748047 2.08399,0 0,13.889649 7.75585,0 0,1.858398 -9.83984,0"
         id="path3702" />
    </g>
    <g
       id="text3274">
      <path
         d="m 164.00098,86 0,-15.748047 2.08398,0 0,15.748047 -2.08398,0"
         id="path3705" />
    </g>
    <g
       id="text3276">
      <path
         d="m 188.64062,80.94043 1.96583,-0.171875 c 0.0931,0.787765 0.30793,1.435876 0.64453,1.944336 0.34374,0.501304 0.87369,0.909507 1.58984,1.224609 0.71614,0.307944 1.5218,0.461916 2.41699,0.461914 0.79492,2e-6 1.49674,-0.118162 2.10547,-0.354492 0.60871,-0.236326 1.05989,-0.558591 1.35352,-0.966797 0.30077,-0.415361 0.45116,-0.866533 0.45117,-1.353516 -1e-5,-0.494135 -0.14324,-0.923823 -0.42969,-1.289062 -0.28647,-0.37239 -0.75912,-0.683913 -1.41797,-0.93457 -0.42253,-0.164707 -1.3571,-0.418939 -2.80371,-0.762696 -1.44662,-0.350904 -2.45996,-0.68033 -3.04004,-0.988281 -0.75195,-0.393872 -1.31413,-0.88085 -1.68652,-1.460938 -0.36524,-0.587229 -0.54785,-1.242502 -0.54785,-1.96582 0,-0.794909 0.22558,-1.536119 0.67676,-2.223633 0.45116,-0.694646 1.11002,-1.221013 1.97656,-1.579101 0.86653,-0.358057 1.82974,-0.537094 2.88965,-0.53711 1.16731,1.6e-5 2.19497,0.189795 3.083,0.569336 0.89518,0.372411 1.58267,0.923843 2.0625,1.654297 0.47981,0.730482 0.73762,1.55763 0.77344,2.481446 l -1.99805,0.15039 c -0.10743,-0.99543 -0.47266,-1.747383 -1.0957,-2.255859 -0.61589,-0.50845 -1.52898,-0.762681 -2.73926,-0.762696 -1.26042,1.5e-5 -2.18067,0.232762 -2.76074,0.698243 -0.57292,0.458346 -0.85938,1.013359 -0.85937,1.665039 -1e-5,0.565766 0.20409,1.031261 0.6123,1.396484 0.40104,0.365245 1.44661,0.741221 3.13672,1.12793 1.69726,0.379566 2.86099,0.712573 3.49121,0.999023 0.91666,0.422534 1.59341,0.959643 2.03027,1.611328 0.43684,0.644538 0.65526,1.389329 0.65528,2.234375 -2e-5,0.837895 -0.23992,1.629235 -0.71973,2.374024 -0.47983,0.737631 -1.17091,1.314128 -2.07324,1.729492 -0.89519,0.408203 -1.90496,0.612304 -3.0293,0.612305 -1.42513,-1e-6 -2.6211,-0.207683 -3.58789,-0.623047 -0.95964,-0.415364 -1.71517,-1.03841 -2.2666,-1.869141 -0.54427,-0.837887 -0.83073,-1.783199 -0.85938,-2.835937"
         id="path3708" />
    </g>
    <g
       id="text3278">
      <path
         d="m 219.26367,86 0,-15.748047 5.9082,0 c 1.20312,1.6e-5 2.16634,0.161149 2.88965,0.483399 0.73046,0.315119 1.2998,0.805678 1.70801,1.471679 0.41535,0.658868 0.62304,1.349948 0.62305,2.073242 -1e-5,0.673189 -0.18263,1.306977 -0.54785,1.901368 -0.36525,0.59441 -0.91668,1.074227 -1.6543,1.439453 0.95246,0.279305 1.68293,0.755541 2.19141,1.428711 0.51561,0.673183 0.77342,1.468104 0.77343,2.384765 -1e-5,0.737634 -0.15756,1.425134 -0.47265,2.0625 -0.30796,0.630211 -0.6911,1.117189 -1.14942,1.460938 -0.45834,0.343751 -1.03484,0.605143 -1.72949,0.784179 C 227.1162,85.914063 226.27115,86 225.26855,86 l -6.00488,0 m 2.08399,-9.130859 3.40527,0 c 0.92382,9e-6 1.58625,-0.06086 1.9873,-0.182618 0.52994,-0.157542 0.9274,-0.418935 1.19239,-0.784179 0.27212,-0.365224 0.40819,-0.823557 0.4082,-1.375 -1e-5,-0.522775 -0.12534,-0.981108 -0.37598,-1.375 -0.25066,-0.401029 -0.60873,-0.673164 -1.07422,-0.816407 -0.4655,-0.150376 -1.264,-0.225572 -2.3955,-0.225585 l -3.14746,0 0,4.758789 m 0,7.272461 3.92089,0 c 0.67317,10e-7 1.14583,-0.02506 1.41797,-0.0752 0.47981,-0.08594 0.88085,-0.229164 1.20313,-0.429687 0.32225,-0.200519 0.58723,-0.490557 0.79492,-0.870117 0.20767,-0.386716 0.31151,-0.830726 0.31152,-1.332032 -1e-5,-0.587234 -0.1504,-1.095697 -0.45117,-1.52539 -0.30079,-0.436843 -0.71973,-0.741204 -1.25683,-0.913086 -0.52996,-0.17903 -1.29624,-0.268548 -2.29883,-0.268555 l -3.6416,0 0,5.414063"
         id="path3711" />
    </g>
    <g
       id="text3280">
      <path
         d="m 250.08008,86 0,-15.748047 10.62402,0 0,1.858399 -8.54004,0 0,4.876953 7.39063,0 0,1.858398 -7.39063,0 0,7.154297 -2.08398,0"
         id="path3714" />
    </g>
    <g
       id="text3282">
      <path
         d="m 277.62012,86 6.04785,-15.748047 2.24512,0 L 292.3584,86 l -2.37403,0 -1.83691,-4.769531 -6.58496,0 L 279.83301,86 l -2.21289,0 m 4.54394,-6.466797 5.33887,0 -1.64356,-4.361328 c -0.5013,-1.324858 -0.8737,-2.413398 -1.11718,-3.265625 -0.20053,1.009779 -0.48341,2.012382 -0.84864,3.007812 l -1.72949,4.619141"
         id="path3717" />
    </g>
    <g
       id="text3284">
      <path
         d="m 307.45898,86 0,-15.748047 3.13672,0 3.72754,11.150391 c 0.34374,1.038415 0.59439,1.815432 0.75196,2.331054 0.17902,-0.572913 0.45832,-1.414384 0.83789,-2.524414 l 3.7705,-10.957031 2.80371,0 0,15.748047 -2.00878,0 0,-13.180664 L 315.90234,86 l -1.87988,0 -4.55469,-13.40625 0,13.40625 -2.00879,0"
         id="path3720" />
    </g>
    <g
       id="text3286">
      <path
         d="m 339.34961,86 0,-15.748047 5.94043,0 c 1.04556,1.6e-5 1.84407,0.05015 2.39551,0.150391 0.77342,0.128921 1.42153,0.375992 1.94433,0.741211 0.52278,0.358087 0.94172,0.862969 1.25684,1.514648 0.32225,0.651706 0.48338,1.367851 0.4834,2.148438 -2e-5,1.339202 -0.42612,2.474292 -1.27832,3.405273 -0.85223,0.923835 -2.39194,1.385749 -4.61914,1.385742 l -4.03907,0 0,6.402344 -2.08398,0 m 2.08398,-8.260742 4.07129,0 c 1.34635,8e-6 2.3024,-0.250643 2.86817,-0.751953 0.56574,-0.501293 0.84862,-1.206696 0.84863,-2.116211 -10e-6,-0.658843 -0.16831,-1.221017 -0.50488,-1.686524 -0.32944,-0.472643 -0.76629,-0.784166 -1.31055,-0.93457 -0.35092,-0.09309 -0.99903,-0.139635 -1.94434,-0.139648 l -4.02832,0 0,5.628906"
         id="path3723" />
    </g>
    <g
       id="text3288">
      <path
         d="m 367.45898,86 0,-15.748047 3.13672,0 3.72754,11.150391 c 0.34374,1.038415 0.59439,1.815432 0.75196,2.331054 0.17902,-0.572913 0.45832,-1.414384 0.83789,-2.524414 l 3.7705,-10.957031 2.80371,0 0,15.748047 -2.00878,0 0,-13.180664 L 375.90234,86 l -1.87988,0 -4.55469,-13.40625 0,13.40625 -2.00879,0"
         id="path3726" />
    </g>
    <g
       id="text3290">
      <path
         d="m 67.620117,119.33334 6.047852,-15.74805 2.245117,0 6.445312,15.74805 -2.374023,0 -1.836914,-4.76954 -6.584961,0 -1.729492,4.76954 -2.212891,0 m 4.543945,-6.4668 5.338868,0 -1.643555,-4.36133 c -0.50131,-1.32486 -0.873705,-2.4134 -1.117188,-3.26562 -0.200527,1.00977 -0.483405,2.01238 -0.848632,3.00781 l -1.729493,4.61914"
         id="path3729" />
    </g>
    <g
       id="text3292">
      <path
         d="m 109.98438,113.81185 2.08398,0.52637 c -0.43686,1.71159 -1.22462,3.01856 -2.36328,3.9209 -1.13152,0.89518 -2.51726,1.34277 -4.15723,1.34277 -1.69727,0 -3.07943,-0.34375 -4.14648,-1.03125 -1.0599,-0.69466 -1.869146,-1.69726 -2.427737,-3.00781 -0.551434,-1.31054 -0.82715,-2.71777 -0.827149,-4.22168 -10e-7,-1.63997 0.311522,-3.06868 0.934571,-4.28613 0.630205,-1.2246 1.521805,-2.15201 2.674805,-2.78223 1.16015,-0.63736 2.43489,-0.95604 3.82422,-0.95606 1.57551,2e-5 2.90038,0.40106 3.97461,1.20313 1.0742,0.8021 1.82257,1.93003 2.24511,3.38379 l -2.05175,0.4834 c -0.36525,-1.14582 -0.8952,-1.98013 -1.58985,-2.50293 -0.69467,-0.52278 -1.56837,-0.78417 -2.62109,-0.78418 -1.21029,1e-5 -2.22364,0.29005 -3.04004,0.87011 -0.80925,0.5801 -1.37858,1.36069 -1.70801,2.3418 -0.32943,0.97397 -0.49414,1.98015 -0.49414,3.01856 0,1.3392 0.19336,2.51009 0.58008,3.51269 0.39388,0.99545 1.0026,1.74024 1.82617,2.23438 0.82356,0.49414 1.71516,0.74121 2.67481,0.74121 1.1673,0 2.15559,-0.33659 2.96484,-1.00977 0.80923,-0.67317 1.35708,-1.67219 1.64356,-2.99707"
         id="path3732" />
    </g>
    <g
       id="text3294">
      <path
         d="m 140.08105,117.64681 c 0.96679,0.66602 1.85839,1.153 2.67481,1.46094 l -0.61231,1.4502 c -1.13152,-0.40821 -2.25945,-1.05274 -3.38378,-1.9336 -1.16733,0.65169 -2.45639,0.97754 -3.86719,0.97754 -1.42514,0 -2.71778,-0.34375 -3.87793,-1.03125 -1.16016,-0.6875 -2.05534,-1.65429 -2.68555,-2.90039 -0.62305,-1.24609 -0.93457,-2.64973 -0.93457,-4.21094 0,-1.55402 0.3151,-2.96841 0.94531,-4.24316 0.63021,-1.27473 1.52539,-2.2451 2.68555,-2.91113 1.16731,-0.666 2.4707,-0.99901 3.91016,-0.99903 1.45376,2e-5 2.76431,0.34735 3.93164,1.04199 1.1673,0.68752 2.05532,1.65431 2.66406,2.90039 0.61587,1.23895 0.92381,2.63901 0.92383,4.2002 -2e-5,1.29623 -0.19696,2.46355 -0.59082,3.50195 -0.3939,1.03126 -0.9883,1.93002 -1.78321,2.69629 m -4.58691,-2.66406 c 1.20312,0.33659 2.19498,0.83789 2.97559,1.50391 1.22459,-1.11719 1.8369,-2.79655 1.83691,-5.03809 -10e-6,-1.27473 -0.21844,-2.38834 -0.65527,-3.34082 -0.4297,-0.95246 -1.06349,-1.69009 -1.90137,-2.21289 -0.83074,-0.52993 -1.76531,-0.79491 -2.80371,-0.79492 -1.55404,1e-5 -2.84311,0.53354 -3.86719,1.60058 -1.02409,1.05991 -1.53613,2.64617 -1.53613,4.75879 0,2.04819 0.50488,3.62012 1.51465,4.71582 1.01692,1.09571 2.31314,1.64356 3.88867,1.64356 0.74478,0 1.4466,-0.13965 2.10547,-0.41895 -0.6517,-0.42252 -1.3392,-0.7233 -2.0625,-0.90234 l 0.50488,-1.51465"
         id="path3735" />
    </g>
    <g
       id="text3296">
      <path
         d="m 169.08203,103.58529 2.08399,0 0,9.09863 c -2e-5,1.58269 -0.17905,2.83952 -0.53711,3.77051 -0.35809,0.93099 -1.0062,1.6901 -1.94434,2.27734 -0.931,0.58008 -2.15561,0.87012 -3.67383,0.87012 -1.47526,0 -2.68197,-0.25423 -3.62012,-0.76269 -0.93815,-0.50847 -1.60775,-1.24252 -2.00878,-2.20215 -0.40105,-0.9668 -0.60157,-2.2845 -0.60157,-3.95313 l 0,-9.09863 2.08399,0 0,9.08789 c -1e-5,1.36784 0.12532,2.37761 0.37597,3.0293 0.25781,0.64453 0.69466,1.14225 1.31055,1.49316 0.62304,0.35091 1.38216,0.52637 2.27734,0.52637 1.53255,0 2.62467,-0.34733 3.27637,-1.04199 0.65168,-0.69466 0.97753,-2.03027 0.97754,-4.00684 l 0,-9.08789"
         id="path3738" />
    </g>
    <g
       id="text3298">
      <path
         d="m 187.62012,119.33334 6.04785,-15.74805 2.24512,0 6.44531,15.74805 -2.37403,0 -1.83691,-4.76954 -6.58496,0 -1.72949,4.76954 -2.21289,0 m 4.54394,-6.4668 5.33887,0 -1.64356,-4.36133 c -0.5013,-1.32486 -0.8737,-2.4134 -1.11718,-3.26562 -0.20053,1.00977 -0.48341,2.01238 -0.84864,3.00781 l -1.72949,4.61914"
         id="path3741" />
    </g>
    <g
       id="text3300">
      <path
         d="m 218.78027,119.33334 0,-15.74805 6.98243,0 c 1.40363,1e-5 2.47069,0.14324 3.20117,0.42969 0.73045,0.27931 1.31411,0.77703 1.75097,1.49316 0.43684,0.71616 0.65526,1.5075 0.65528,2.37402 -2e-5,1.1172 -0.36167,2.05893 -1.08496,2.8252 -0.72332,0.76628 -1.84051,1.25326 -3.35157,1.46094 0.55143,0.26498 0.97037,0.52637 1.25684,0.78418 0.60871,0.5586 1.18521,1.25684 1.72949,2.09472 l 2.73926,4.28614 -2.62109,0 -2.08399,-3.27637 c -0.60873,-0.94531 -1.11003,-1.66862 -1.5039,-2.16992 -0.39389,-0.5013 -0.74839,-0.85221 -1.06348,-1.05274 -0.30795,-0.20051 -0.62306,-0.34016 -0.94531,-0.41894 -0.23634,-0.0501 -0.62306,-0.0752 -1.16016,-0.0752 l -2.41699,0 0,6.99317 -2.08399,0 m 2.08399,-8.79786 4.47949,0 c 0.95246,10e-6 1.69726,-0.0967 2.23437,-0.29003 0.5371,-0.20052 0.94531,-0.51562 1.22461,-0.94532 0.27929,-0.43684 0.41894,-0.90949 0.41895,-1.41797 -1e-5,-0.74478 -0.27215,-1.35708 -0.81641,-1.83691 -0.53712,-0.4798 -1.38933,-0.71971 -2.55664,-0.71973 l -4.98437,0 0,5.20996"
         id="path3744" />
    </g>
    <g
       id="text3302">
      <path
         d="m 253.97949,119.33334 0,-13.88965 -5.18847,0 0,-1.8584 12.48242,0 0,1.8584 -5.20996,0 0,13.88965 -2.08399,0"
         id="path3747" />
    </g>
    <g
       id="text3304">
      <path
         d="m 279.39258,119.33334 0,-15.74805 11.38672,0 0,1.8584 -9.30274,0 0,4.82324 8.71192,0 0,1.84766 -8.71192,0 0,5.36035 9.66797,0 0,1.8584 -11.75195,0"
         id="path3750" />
    </g>
    <g
       id="text3306">
      <path
         d="m 308.78027,119.33334 0,-15.74805 6.98243,0 c 1.40363,1e-5 2.47069,0.14324 3.20117,0.42969 0.73045,0.27931 1.31411,0.77703 1.75097,1.49316 0.43684,0.71616 0.65526,1.5075 0.65528,2.37402 -2e-5,1.1172 -0.36167,2.05893 -1.08496,2.8252 -0.72332,0.76628 -1.84051,1.25326 -3.35157,1.46094 0.55143,0.26498 0.97037,0.52637 1.25684,0.78418 0.60871,0.5586 1.18521,1.25684 1.72949,2.09472 l 2.73926,4.28614 -2.62109,0 -2.08399,-3.27637 c -0.60873,-0.94531 -1.11003,-1.66862 -1.5039,-2.16992 -0.39389,-0.5013 -0.74839,-0.85221 -1.06348,-1.05274 -0.30795,-0.20051 -0.62306,-0.34016 -0.94531,-0.41894 -0.23634,-0.0501 -0.62306,-0.0752 -1.16016,-0.0752 l -2.41699,0 0,6.99317 -2.08399,0 m 2.08399,-8.79786 4.47949,0 c 0.95246,10e-6 1.69726,-0.0967 2.23437,-0.29003 0.5371,-0.20052 0.94531,-0.51562 1.22461,-0.94532 0.27929,-0.43684 0.41894,-0.90949 0.41895,-1.41797 -10e-6,-0.74478 -0.27215,-1.35708 -0.81641,-1.83691 -0.53712,-0.4798 -1.38933,-0.71971 -2.55664,-0.71973 l -4.98437,0 0,5.20996"
         id="path3753" />
    </g>
    <g
       id="text3308">
      <path
         d="m 338.74805,119.33334 0,-15.74805 5.4248,0 c 1.2246,1e-5 2.15917,0.0752 2.80371,0.22558 0.90234,0.2077 1.67219,0.58368 2.30957,1.12793 0.83072,0.70184 1.45018,1.6006 1.8584,2.69629 0.41535,1.08856 0.62303,2.33465 0.62305,3.73828 -2e-5,1.19598 -0.13966,2.25587 -0.41895,3.17969 -0.27931,0.92383 -0.63738,1.69011 -1.07422,2.29883 -0.43686,0.60156 -0.91667,1.0778 -1.43945,1.42871 -0.51564,0.34375 -1.14226,0.60515 -1.87988,0.78418 -0.73048,0.17904 -1.57195,0.26856 -2.52442,0.26856 l -5.68261,0 m 2.08398,-1.8584 3.36231,0 c 1.0384,0 1.85122,-0.0967 2.43847,-0.29004 0.59439,-0.19336 1.06705,-0.46549 1.41797,-0.81641 0.49413,-0.49414 0.87727,-1.15657 1.14942,-1.9873 0.27928,-0.83789 0.41893,-1.85123 0.41894,-3.04004 -1e-5,-1.64713 -0.27215,-2.91112 -0.81641,-3.79199 -0.53712,-0.88801 -1.19239,-1.48241 -1.96582,-1.78321 -0.5586,-0.21483 -1.45736,-0.32225 -2.69629,-0.32226 l -3.30859,0 0,12.03125"
         id="path3756" />
    </g>
    <g
       id="text3310">
      <path
         d="m 379.98437,113.81185 2.08399,0.52637 c -0.43686,1.71159 -1.22462,3.01856 -2.36328,3.9209 -1.13152,0.89518 -2.51726,1.34277 -4.15723,1.34277 -1.69727,0 -3.07943,-0.34375 -4.14648,-1.03125 -1.0599,-0.69466 -1.86915,-1.69726 -2.42774,-3.00781 -0.55143,-1.31054 -0.82715,-2.71777 -0.82715,-4.22168 0,-1.63997 0.31153,-3.06868 0.93457,-4.28613 0.63021,-1.2246 1.52181,-2.15201 2.67481,-2.78223 1.16015,-0.63736 2.43489,-0.95604 3.82422,-0.95606 1.57551,2e-5 2.90038,0.40106 3.97461,1.20313 1.0742,0.8021 1.82257,1.93003 2.24511,3.38379 l -2.05175,0.4834 c -0.36525,-1.14582 -0.8952,-1.98013 -1.58985,-2.50293 -0.69467,-0.52278 -1.56837,-0.78417 -2.62109,-0.78418 -1.21029,1e-5 -2.22364,0.29005 -3.04004,0.87011 -0.80925,0.5801 -1.37858,1.36069 -1.70801,2.3418 -0.32943,0.97397 -0.49414,1.98015 -0.49414,3.01856 0,1.3392 0.19336,2.51009 0.58008,3.51269 0.39388,0.99545 1.0026,1.74024 1.82617,2.23438 0.82356,0.49414 1.71516,0.74121 2.67481,0.74121 1.1673,0 2.15559,-0.33659 2.96484,-1.00977 0.80923,-0.67317 1.35708,-1.67219 1.64355,-2.99707"
         id="path3759" />
    </g>
    <g
       id="text3312">
      <path
         d="m 73.979492,152.66667 0,-13.88965 -5.188476,0 0,-1.8584 12.482421,0 0,1.8584 -5.20996,0 0,13.88965 -2.083985,0"
         id="path3762" />
    </g>
    <g
       id="text3314">
      <path
         d="m 99.070312,152.66667 -4.17871,-15.74805 2.137695,0 2.395508,10.32325 c 0.257807,1.08138 0.479812,2.1556 0.666015,3.22265 0.40104,-1.68294 0.63736,-2.65331 0.70898,-2.91113 l 2.99708,-10.63477 2.51367,0 2.25586,7.97071 c 0.56574,1.97657 0.97394,3.83496 1.22461,5.57519 0.2005,-0.99544 0.46189,-2.13769 0.78418,-3.42675 l 2.4707,-10.11915 2.09473,0 -4.31836,15.74805 -2.00879,0 -3.31934,-11.99902 c -0.27931,-1.00259 -0.44402,-1.61848 -0.49414,-1.84766 -0.16472,0.72332 -0.31869,1.33921 -0.46191,1.84766 l -3.34082,11.99902 -2.126958,0"
         id="path3765" />
    </g>
    <g
       id="text3316">
      <path
         d="m 129.39258,152.66667 0,-15.74805 11.38672,0 0,1.8584 -9.30274,0 0,4.82325 8.71192,0 0,1.84765 -8.71192,0 0,5.36035 9.66797,0 0,1.8584 -11.75195,0"
         id="path3768" />
    </g>
    <g
       id="text3318">
      <path
         d="m 158.72656,152.66667 0,-15.74805 2.1377,0 8.27148,12.36426 0,-12.36426 1.99805,0 0,15.74805 -2.1377,0 -8.27148,-12.375 0,12.375 -1.99805,0"
         id="path3771" />
    </g>
    <g
       id="text3320">
      <path
         d="m 193.97949,152.66667 0,-13.88965 -5.18847,0 0,-1.8584 12.48242,0 0,1.8584 -5.20996,0 0,13.88965 -2.08399,0"
         id="path3774" />
    </g>
    <g
       id="text3322">
      <path
         d="m 223.78613,152.66667 0,-6.6709 -6.06933,-9.07715 2.53515,0 3.1045,4.74805 c 0.57291,0.88803 1.10643,1.77605 1.60058,2.66406 0.47265,-0.82355 1.04557,-1.75096 1.71875,-2.78222 l 3.05078,-4.62989 2.42774,0 -6.28418,9.07715 0,6.6709 -2.08399,0"
         id="path3777" />
    </g>
    <g
       id="text3324">
      <path
         d="m 250.08008,152.66667 0,-15.74805 10.62402,0 0,1.8584 -8.54004,0 0,4.87696 7.39063,0 0,1.85839 -7.39063,0 0,7.1543 -2.08398,0"
         id="path3780" />
    </g>
    <g
       id="text3326">
      <path
         d="m 284.00098,152.66667 0,-15.74805 2.08398,0 0,15.74805 -2.08398,0"
         id="path3783" />
    </g>
    <g
       id="text3328">
      <path
         d="m 313.85059,152.66667 -6.10157,-15.74805 2.25586,0 4.09278,11.44043 c 0.32942,0.91667 0.60513,1.77605 0.82714,2.57813 0.24349,-0.85937 0.52636,-1.71875 0.84864,-2.57813 l 4.2539,-11.44043 2.12696,0 -6.16602,15.74805 -2.13769,0"
         id="path3786" />
    </g>
    <g
       id="text3330">
      <path
         d="m 339.39258,152.66667 0,-15.74805 11.38672,0 0,1.8584 -9.30274,0 0,4.82325 8.71192,0 0,1.84765 -8.71192,0 0,5.36035 9.66797,0 0,1.8584 -11.75195,0"
         id="path3789" />
    </g>
    <g
       id="text3332">
      <path
         d="m 367.74902,152.66667 6.09082,-8.20703 -5.37109,-7.54102 2.48145,0 2.85742,4.03907 c 0.59439,0.8379 1.01692,1.48243 1.26758,1.93359 0.3509,-0.57291 0.76626,-1.17089 1.24609,-1.79394 l 3.16894,-4.17872 2.26661,0 -5.53223,7.42286 5.96191,8.32519 -2.57812,0 -3.96387,-5.61816 c -0.22201,-0.32226 -0.45118,-0.67317 -0.6875,-1.05274 -0.35092,0.57293 -0.60157,0.96681 -0.75195,1.18164 l -3.95313,5.48926 -2.50293,0"
         id="path3792" />
    </g>
    <g
       id="text3334">
      <path
         d="m 68.8125,186 0,-15.74805 2.083984,0 0,6.4668 8.185547,0 0,-6.4668 2.083985,0 0,15.74805 -2.083985,0 0,-7.42285 -8.185547,0 0,7.42285 -2.083984,0"
         id="path3795" />
    </g>
    <g
       id="text3336">
      <path
         d="m 97.620117,186 6.047853,-15.74805 2.24512,0 6.44531,15.74805 -2.37402,0 -1.83692,-4.76953 -6.58496,0 -1.729492,4.76953 -2.212891,0 m 4.543943,-6.4668 5.33887,0 -1.64355,-4.36133 c -0.50131,-1.32485 -0.87371,-2.41339 -1.11719,-3.26562 -0.20053,1.00978 -0.48341,2.01238 -0.84864,3.00781 l -1.72949,4.61914"
         id="path3798" />
    </g>
    <g
       id="text3338">
      <path
         d="m 130.48828,186 0,-15.74805 2.08399,0 0,13.88965 7.75585,0 0,1.8584 -9.83984,0"
         id="path3801" />
    </g>
    <g
       id="text3340">
      <path
         d="m 160.08008,186 0,-15.74805 10.62402,0 0,1.8584 -8.54004,0 0,4.87695 7.39063,0 0,1.8584 -7.39063,0 0,7.1543 -2.08398,0"
         id="path3804" />
    </g>
    <g
       id="text3342">
      <path
         d="m 189.26367,186 0,-15.74805 5.9082,0 c 1.20312,2e-5 2.16634,0.16115 2.88965,0.4834 0.73046,0.31512 1.2998,0.80568 1.70801,1.47168 0.41535,0.65887 0.62304,1.34995 0.62305,2.07324 -1e-5,0.67319 -0.18263,1.30698 -0.54785,1.90137 -0.36525,0.59441 -0.91668,1.07423 -1.6543,1.43945 0.95246,0.27931 1.68293,0.75555 2.19141,1.42871 0.51561,0.67319 0.77342,1.46811 0.77343,2.38477 -1e-5,0.73763 -0.15756,1.42513 -0.47265,2.0625 -0.30796,0.63021 -0.6911,1.11719 -1.14942,1.46094 -0.45834,0.34375 -1.03484,0.60514 -1.72949,0.78418 C 197.1162,185.91406 196.27115,186 195.26855,186 l -6.00488,0 m 2.08399,-9.13086 3.40527,0 c 0.92382,1e-5 1.58625,-0.0609 1.9873,-0.18262 0.52994,-0.15754 0.9274,-0.41893 1.19239,-0.78418 0.27212,-0.36522 0.40819,-0.82355 0.4082,-1.375 -1e-5,-0.52277 -0.12534,-0.9811 -0.37598,-1.375 -0.25066,-0.40102 -0.60873,-0.67316 -1.07422,-0.8164 -0.4655,-0.15038 -1.264,-0.22557 -2.3955,-0.22559 l -3.14746,0 0,4.75879 m 0,7.27246 3.92089,0 c 0.67317,0 1.14583,-0.0251 1.41797,-0.0752 0.47981,-0.0859 0.88085,-0.22917 1.20313,-0.42969 0.32225,-0.20052 0.58723,-0.49056 0.79492,-0.87012 0.20767,-0.38671 0.31151,-0.83072 0.31152,-1.33203 -1e-5,-0.58723 -0.1504,-1.0957 -0.45117,-1.52539 -0.30079,-0.43684 -0.71973,-0.7412 -1.25683,-0.91309 -0.52996,-0.17903 -1.29624,-0.26854 -2.29883,-0.26855 l -3.6416,0 0,5.41406"
         id="path3807" />
    </g>
    <g
       id="text3344">
      <path
         d="m 223.97949,186 0,-13.88965 -5.18847,0 0,-1.8584 12.48242,0 0,1.8584 -5.20996,0 0,13.88965 -2.08399,0"
         id="path3810" />
    </g>
    <g
       id="text3346">
      <path
         d="m 249.39258,186 0,-15.74805 11.38672,0 0,1.8584 -9.30274,0 0,4.82324 8.71192,0 0,1.84766 -8.71192,0 0,5.36035 9.66797,0 0,1.8584 -11.75195,0"
         id="path3813" />
    </g>
    <g
       id="text3348">
      <path
         d="m 278.72656,186 0,-15.74805 2.1377,0 8.27148,12.36426 0,-12.36426 1.99805,0 0,15.74805 -2.1377,0 -8.27148,-12.375 0,12.375 -1.99805,0"
         id="path3816" />
    </g>
    <g
       id="text3350">
      <path
         d="m 310.08008,186 0,-15.74805 10.62402,0 0,1.8584 -8.54004,0 0,4.87695 7.39063,0 0,1.8584 -7.39063,0 0,7.1543 -2.08398,0"
         id="path3819" />
    </g>
    <g
       id="text3352">
      <path
         d="m 343.97949,186 0,-13.88965 -5.18847,0 0,-1.8584 12.48242,0 0,1.8584 -5.20996,0 0,13.88965 -2.08399,0"
         id="path3822" />
    </g>
    <g
       id="text3354">
      <path
         d="m 367.5127,178.33008 c -10e-6,-2.61392 0.70182,-4.65852 2.10546,-6.13379 1.40365,-1.48241 3.21549,-2.22362 5.43555,-2.22363 1.45377,1e-5 2.76431,0.34734 3.93164,1.04199 1.16731,0.69467 2.05533,1.66505 2.66406,2.91113 0.61587,1.23894 0.92382,2.64617 0.92383,4.22168 -10e-6,1.59701 -0.32228,3.02572 -0.96679,4.28613 -0.64455,1.26042 -1.55764,2.21648 -2.73926,2.86817 -1.18165,0.64453 -2.45639,0.96679 -3.82422,0.96679 -1.48243,0 -2.8073,-0.35807 -3.97461,-1.07421 -1.16732,-0.71615 -2.05176,-1.69369 -2.65332,-2.93262 -0.60156,-1.23893 -0.90235,-2.54947 -0.90234,-3.93164 m 2.14843,0.0322 c 0,1.8978 0.50846,3.39454 1.52539,4.49024 1.02409,1.08854 2.30599,1.63281 3.84571,1.63281 1.56835,0 2.85741,-0.55143 3.86718,-1.6543 1.01692,-1.10286 1.52538,-2.66763 1.52539,-4.69433 -1e-5,-1.28189 -0.21843,-2.39908 -0.65527,-3.35156 -0.4297,-0.95963 -1.06349,-1.70084 -1.90137,-2.22364 -0.83074,-0.52993 -1.76531,-0.7949 -2.80371,-0.79492 -1.47526,2e-5 -2.74642,0.50848 -3.81347,1.52539 -1.0599,1.00978 -1.58985,2.69988 -1.58985,5.07031"
         id="path3825" />
    </g>
    <g
       id="text3356">
      <path
         d="m 69.349609,219.33333 0,-15.74805 5.94043,0 c 1.045564,2e-5 1.844066,0.0502 2.395508,0.15039 0.773427,0.12892 1.421538,0.37599 1.944336,0.74121 0.522774,0.35809 0.941719,0.86297 1.256836,1.51465 0.322252,0.65171 0.483384,1.36785 0.483398,2.14844 -1.4e-5,1.3392 -0.42612,2.47429 -1.27832,3.40527 -0.852225,0.92384 -2.391937,1.38575 -4.619141,1.38574 l -4.039062,0 0,6.40235 -2.083985,0 m 2.083985,-8.26074 4.071289,0 c 1.346345,0 2.302399,-0.25065 2.868164,-0.75196 0.565744,-0.50129 0.848621,-1.20669 0.848633,-2.11621 -1.2e-5,-0.65884 -0.168306,-1.22101 -0.504883,-1.68652 -0.329438,-0.47264 -0.766286,-0.78417 -1.310547,-0.93457 -0.350921,-0.0931 -0.999032,-0.13964 -1.944336,-0.13965 l -4.02832,0 0,5.62891"
         id="path3828" />
    </g>
    <g
       id="text3358">
      <path
         d="m 97.620117,219.33333 6.047853,-15.74805 2.24512,0 6.44531,15.74805 -2.37402,0 -1.83692,-4.76953 -6.58496,0 -1.729492,4.76953 -2.212891,0 m 4.543943,-6.4668 5.33887,0 -1.64355,-4.36133 c -0.50131,-1.32485 -0.87371,-2.41339 -1.11719,-3.26562 -0.20053,1.00978 -0.48341,2.01238 -0.84864,3.00781 l -1.72949,4.61914"
         id="path3831" />
    </g>
    <g
       id="text3360">
      <path
         d="m 128.64062,214.27376 1.96583,-0.17188 c 0.0931,0.78777 0.30793,1.43588 0.64453,1.94434 0.34374,0.5013 0.87369,0.90951 1.58984,1.22461 0.71614,0.30794 1.5218,0.46191 2.41699,0.46191 0.79492,0 1.49674,-0.11816 2.10547,-0.35449 0.60871,-0.23633 1.05989,-0.55859 1.35352,-0.9668 0.30077,-0.41536 0.45116,-0.86653 0.45117,-1.35351 -1e-5,-0.49414 -0.14324,-0.92383 -0.42969,-1.28906 -0.28647,-0.37239 -0.75912,-0.68392 -1.41797,-0.93458 -0.42253,-0.1647 -1.3571,-0.41893 -2.80371,-0.76269 -1.44662,-0.3509 -2.45996,-0.68033 -3.04004,-0.98828 -0.75195,-0.39387 -1.31413,-0.88085 -1.68652,-1.46094 -0.36524,-0.58723 -0.54785,-1.2425 -0.54785,-1.96582 0,-0.79491 0.22558,-1.53612 0.67676,-2.22363 0.45116,-0.69465 1.11002,-1.22102 1.97656,-1.5791 0.86653,-0.35806 1.82974,-0.5371 2.88965,-0.53711 1.16731,1e-5 2.19497,0.18979 3.083,0.56933 0.89518,0.37241 1.58267,0.92385 2.0625,1.6543 0.47981,0.73048 0.73762,1.55763 0.77344,2.48144 l -1.99805,0.1504 c -0.10743,-0.99544 -0.47266,-1.74739 -1.0957,-2.25586 -0.61589,-0.50845 -1.52898,-0.76269 -2.73926,-0.7627 -1.26042,1e-5 -2.18067,0.23276 -2.76074,0.69824 -0.57292,0.45835 -0.85938,1.01336 -0.85937,1.66504 -1e-5,0.56577 0.20409,1.03126 0.6123,1.39649 0.40104,0.36524 1.44661,0.74122 3.13672,1.12793 1.69726,0.37956 2.86099,0.71257 3.49121,0.99902 0.91666,0.42253 1.59341,0.95964 2.03027,1.61133 0.43684,0.64453 0.65526,1.38933 0.65528,2.23437 -2e-5,0.8379 -0.23992,1.62924 -0.71973,2.37403 -0.47983,0.73763 -1.17091,1.31412 -2.07324,1.72949 -0.89519,0.4082 -1.90496,0.6123 -3.0293,0.6123 -1.42513,0 -2.6211,-0.20768 -3.58789,-0.62304 -0.95964,-0.41537 -1.71517,-1.03841 -2.2666,-1.86914 -0.54427,-0.83789 -0.83073,-1.7832 -0.85938,-2.83594"
         id="path3834" />
    </g>
    <g
       id="text3362">
      <path
         d="m 163.97949,219.33333 0,-13.88965 -5.18847,0 0,-1.8584 12.48242,0 0,1.8584 -5.20996,0 0,13.88965 -2.08399,0"
         id="path3837" />
    </g>
    <g
       id="text3364">
      <path
         d="m 189.39258,219.33333 0,-15.74805 11.38672,0 0,1.8584 -9.30274,0 0,4.82324 8.71192,0 0,1.84766 -8.71192,0 0,5.36035 9.66797,0 0,1.8584 -11.75195,0"
         id="path3840" />
    </g>
    <g
       id="text3366">
      <path
         d="m 218.78027,219.33333 0,-15.74805 6.98243,0 c 1.40363,2e-5 2.47069,0.14325 3.20117,0.42969 0.73045,0.27931 1.31411,0.77703 1.75097,1.49316 0.43684,0.71616 0.65526,1.5075 0.65528,2.37403 -2e-5,1.11719 -0.36167,2.05893 -1.08496,2.82519 -0.72332,0.76629 -1.84051,1.25326 -3.35157,1.46094 0.55143,0.26498 0.97037,0.52637 1.25684,0.78418 0.60871,0.5586 1.18521,1.25684 1.72949,2.09473 l 2.73926,4.28613 -2.62109,0 -2.08399,-3.27637 c -0.60873,-0.94531 -1.11003,-1.66861 -1.5039,-2.16992 -0.39389,-0.5013 -0.74839,-0.85221 -1.06348,-1.05274 -0.30795,-0.20051 -0.62306,-0.34016 -0.94531,-0.41894 -0.23634,-0.0501 -0.62306,-0.0752 -1.16016,-0.0752 l -2.41699,0 0,6.99317 -2.08399,0 m 2.08399,-8.79785 4.47949,0 c 0.95246,1e-5 1.69726,-0.0967 2.23437,-0.29004 0.5371,-0.20051 0.94531,-0.51562 1.22461,-0.94531 0.27929,-0.43684 0.41894,-0.9095 0.41895,-1.41797 -1e-5,-0.74478 -0.27215,-1.35709 -0.81641,-1.83692 -0.53712,-0.4798 -1.38933,-0.71971 -2.55664,-0.71972 l -4.98437,0 0,5.20996"
         id="path3843" />
    </g>
    <g
       id="text3368">
      <path
         d="m 259.08203,203.58528 2.08399,0 0,9.09863 c -2e-5,1.58269 -0.17905,2.83953 -0.53711,3.77051 -0.35809,0.93099 -1.0062,1.69011 -1.94434,2.27735 -0.931,0.58007 -2.15561,0.87011 -3.67383,0.87011 -1.47526,0 -2.68197,-0.25423 -3.62012,-0.76269 -0.93815,-0.50846 -1.60775,-1.24251 -2.00878,-2.20215 -0.40105,-0.96679 -0.60157,-2.2845 -0.60157,-3.95313 l 0,-9.09863 2.08399,0 0,9.08789 c -1e-5,1.36785 0.12532,2.37761 0.37597,3.0293 0.25781,0.64453 0.69466,1.14225 1.31055,1.49316 0.62304,0.35092 1.38216,0.52637 2.27734,0.52637 1.53255,0 2.62467,-0.34733 3.27637,-1.04199 0.65168,-0.69466 0.97753,-2.03027 0.97754,-4.00684 l 0,-9.08789"
         id="path3846" />
    </g>
    <g
       id="text3370">
      <path
         d="m 278.72656,219.33333 0,-15.74805 2.1377,0 8.27148,12.36426 0,-12.36426 1.99805,0 0,15.74805 -2.1377,0 -8.27148,-12.375 0,12.375 -1.99805,0"
         id="path3849" />
    </g>
    <g
       id="text3372">
      <path
         d="m 314.00098,219.33333 0,-15.74805 2.08398,0 0,15.74805 -2.08398,0"
         id="path3852" />
    </g>
    <g
       id="text3374">
      <path
         d="m 338.72656,219.33333 0,-15.74805 2.1377,0 8.27148,12.36426 0,-12.36426 1.99805,0 0,15.74805 -2.1377,0 -8.27148,-12.375 0,12.375 -1.99805,0"
         id="path3855" />
    </g>
    <g
       id="text3376">
      <path
         d="m 369.39258,219.33333 0,-15.74805 11.38672,0 0,1.8584 -9.30274,0 0,4.82324 8.71192,0 0,1.84766 -8.71192,0 0,5.36035 9.66797,0 0,1.8584 -11.75195,0"
         id="path3858" />
    </g>
    <g
       id="text3378">
      <path
         d="m 67.512695,244.99675 c -10e-7,-2.61392 0.701821,-4.65852 2.105469,-6.13379 1.403641,-1.48241 3.215488,-2.22362 5.435547,-2.22363 1.453766,1e-5 2.764311,0.34734 3.931641,1.04199 1.167304,0.69468 2.055324,1.66505 2.664062,2.91113 0.61587,1.23895 0.923812,2.64617 0.923828,4.22168 -1.6e-5,1.59701 -0.322281,3.02572 -0.966797,4.28614 -0.644545,1.26041 -1.55763,2.21647 -2.739258,2.86816 -1.181651,0.64453 -2.45639,0.9668 -3.824218,0.9668 -1.482429,0 -2.807298,-0.35808 -3.97461,-1.07422 -1.167321,-0.71615 -2.05176,-1.69368 -2.65332,-2.93262 -0.601564,-1.23893 -0.902345,-2.54947 -0.902344,-3.93164 m 2.148438,0.0322 c -3e-6,1.89779 0.50846,3.39453 1.52539,4.49023 1.024083,1.08854 2.305983,1.63281 3.845704,1.63281 1.568349,0 2.85741,-0.55143 3.867187,-1.65429 1.016914,-1.10286 1.525377,-2.66764 1.525391,-4.69434 -1.4e-5,-1.28189 -0.218439,-2.39908 -0.655274,-3.35156 -0.4297,-0.95963 -1.063489,-1.70084 -1.901367,-2.22363 -0.83074,-0.52994 -1.765309,-0.79491 -2.803711,-0.79493 -1.475267,2e-5 -2.746425,0.50848 -3.813476,1.52539 -1.0599,1.00978 -1.589847,2.69988 -1.589844,5.07032"
         id="path3861" />
    </g>
    <g
       id="text3380">
      <path
         d="m 98.726562,252.66667 0,-15.74805 2.137698,0 8.27148,12.36426 0,-12.36426 1.99805,0 0,15.74805 -2.1377,0 -8.27148,-12.375 0,12.375 -1.998048,0"
         id="path3864" />
    </g>
    <g
       id="text3382">
      <path
         d="m 129.39258,252.66667 0,-15.74805 11.38672,0 0,1.8584 -9.30274,0 0,4.82325 8.71192,0 0,1.84765 -8.71192,0 0,5.36035 9.66797,0 0,1.8584 -11.75195,0"
         id="path3867" />
    </g>
    <g
       id="text3384">
      <path
         d="m 158.64062,247.6071 1.96583,-0.17187 c 0.0931,0.78776 0.30793,1.43587 0.64453,1.94433 0.34374,0.50131 0.87369,0.90951 1.58984,1.22461 0.71614,0.30795 1.5218,0.46192 2.41699,0.46192 0.79492,0 1.49674,-0.11817 2.10547,-0.3545 0.60871,-0.23632 1.05989,-0.55859 1.35352,-0.96679 0.30077,-0.41536 0.45116,-0.86654 0.45117,-1.35352 -1e-5,-0.49413 -0.14324,-0.92382 -0.42969,-1.28906 -0.28647,-0.37239 -0.75912,-0.68391 -1.41797,-0.93457 -0.42253,-0.16471 -1.3571,-0.41894 -2.80371,-0.7627 -1.44662,-0.3509 -2.45996,-0.68033 -3.04004,-0.98828 -0.75195,-0.39387 -1.31413,-0.88085 -1.68652,-1.46094 -0.36524,-0.58723 -0.54785,-1.2425 -0.54785,-1.96582 0,-0.79491 0.22558,-1.53612 0.67676,-2.22363 0.45116,-0.69465 1.11002,-1.22101 1.97656,-1.5791 0.86653,-0.35806 1.82974,-0.53709 2.88965,-0.53711 1.16731,2e-5 2.19497,0.18979 3.083,0.56934 0.89518,0.37241 1.58267,0.92384 2.0625,1.65429 0.47981,0.73048 0.73762,1.55763 0.77344,2.48145 l -1.99805,0.15039 c -0.10743,-0.99543 -0.47266,-1.74738 -1.0957,-2.25586 -0.61589,-0.50845 -1.52898,-0.76268 -2.73926,-0.7627 -1.26042,2e-5 -2.18067,0.23277 -2.76074,0.69825 -0.57292,0.45834 -0.85938,1.01336 -0.85937,1.66504 -1e-5,0.56576 0.20409,1.03126 0.6123,1.39648 0.40104,0.36524 1.44661,0.74122 3.13672,1.12793 1.69726,0.37957 2.86099,0.71257 3.49121,0.99902 0.91666,0.42254 1.59341,0.95965 2.03027,1.61133 0.43684,0.64454 0.65526,1.38933 0.65528,2.23438 -2e-5,0.83789 -0.23992,1.62923 -0.71973,2.37402 -0.47983,0.73763 -1.17091,1.31413 -2.07324,1.72949 -0.89519,0.4082 -1.90496,0.61231 -3.0293,0.61231 -1.42513,0 -2.6211,-0.20769 -3.58789,-0.62305 -0.95964,-0.41536 -1.71517,-1.03841 -2.2666,-1.86914 -0.54427,-0.83789 -0.83073,-1.7832 -0.85938,-2.83594"
         id="path3870" />
    </g>
    <g
       id="text3386">
      <path
         d="m 194.00098,252.66667 0,-15.74805 2.08398,0 0,15.74805 -2.08398,0"
         id="path3873" />
    </g>
    <g
       id="text3388">
      <path
         d="m 217.74902,252.66667 6.09082,-8.20703 -5.37109,-7.54102 2.48145,0 2.85742,4.03907 c 0.59439,0.8379 1.01692,1.48243 1.26758,1.93359 0.3509,-0.57291 0.76626,-1.17089 1.24609,-1.79394 l 3.16894,-4.17872 2.26661,0 -5.53223,7.42286 5.96191,8.32519 -2.57812,0 -3.96387,-5.61816 c -0.22201,-0.32226 -0.45118,-0.67317 -0.6875,-1.05274 -0.35092,0.57293 -0.60157,0.96681 -0.75195,1.18164 l -3.95313,5.48926 -2.50293,0"
         id="path3876" />
    </g>
    <g
       id="text3390">
      <path
         d="m 253.97949,252.66667 0,-13.88965 -5.18847,0 0,-1.8584 12.48242,0 0,1.8584 -5.20996,0 0,13.88965 -2.08399,0"
         id="path3879" />
    </g>
    <g
       id="text3392">
      <path
         d="m 278.8125,252.66667 0,-15.74805 2.08398,0 0,6.4668 8.18555,0 0,-6.4668 2.08399,0 0,15.74805 -2.08399,0 0,-7.42285 -8.18555,0 0,7.42285 -2.08398,0"
         id="path3882" />
    </g>
    <g
       id="text3394">
      <path
         d="m 308.78027,252.66667 0,-15.74805 6.98243,0 c 1.40363,2e-5 2.47069,0.14325 3.20117,0.42969 0.73045,0.27931 1.31411,0.77704 1.75097,1.49317 0.43684,0.71616 0.65526,1.5075 0.65528,2.37402 -2e-5,1.1172 -0.36167,2.05893 -1.08496,2.8252 -0.72332,0.76628 -1.84051,1.25326 -3.35157,1.46093 0.55143,0.26498 0.97037,0.52638 1.25684,0.78418 0.60871,0.5586 1.18521,1.25684 1.72949,2.09473 l 2.73926,4.28613 -2.62109,0 -2.08399,-3.27637 c -0.60873,-0.9453 -1.11003,-1.66861 -1.5039,-2.16992 -0.39389,-0.50129 -0.74839,-0.8522 -1.06348,-1.05273 -0.30795,-0.20052 -0.62306,-0.34016 -0.94531,-0.41895 -0.23634,-0.0501 -0.62306,-0.0752 -1.16016,-0.0752 l -2.41699,0 0,6.99316 -2.08399,0 m 2.08399,-8.79785 4.47949,0 c 0.95246,1e-5 1.69726,-0.0967 2.23437,-0.29004 0.5371,-0.20051 0.94531,-0.51561 1.22461,-0.94531 0.27929,-0.43684 0.41894,-0.9095 0.41895,-1.41797 -10e-6,-0.74478 -0.27215,-1.35708 -0.81641,-1.83691 -0.53712,-0.47981 -1.38933,-0.71972 -2.55664,-0.71973 l -4.98437,0 0,5.20996"
         id="path3885" />
    </g>
    <g
       id="text3396">
      <path
         d="m 339.39258,252.66667 0,-15.74805 11.38672,0 0,1.8584 -9.30274,0 0,4.82325 8.71192,0 0,1.84765 -8.71192,0 0,5.36035 9.66797,0 0,1.8584 -11.75195,0"
         id="path3888" />
    </g>
    <g
       id="text3398">
      <path
         d="m 369.39258,252.66667 0,-15.74805 11.38672,0 0,1.8584 -9.30274,0 0,4.82325 8.71192,0 0,1.84765 -8.71192,0 0,5.36035 9.66797,0 0,1.8584 -11.75195,0"
         id="path3891" />
    </g>
    <g
       id="text3400">
      <path
         d="m 70.080078,286 0,-15.74805 10.624024,0 0,1.8584 -8.54004,0 0,4.87695 7.390625,0 0,1.8584 -7.390625,0 0,7.1543 -2.083984,0"
         id="path3894" />
    </g>
    <g
       id="text3402">
      <path
         d="m 97.512695,278.33008 c -10e-7,-2.61392 0.701821,-4.65852 2.105469,-6.13379 1.403646,-1.48241 3.215486,-2.22362 5.435546,-2.22363 1.45377,10e-6 2.76431,0.34734 3.93164,1.04199 1.16731,0.69467 2.05533,1.66505 2.66406,2.91113 0.61587,1.23894 0.92382,2.64617 0.92383,4.22168 -1e-5,1.59701 -0.32228,3.02572 -0.96679,4.28613 -0.64455,1.26042 -1.55764,2.21648 -2.73926,2.86817 -1.18165,0.64453 -2.45639,0.96679 -3.82422,0.96679 -1.48243,0 -2.8073,-0.35807 -3.97461,-1.07421 -1.167322,-0.71615 -2.051761,-1.69369 -2.653321,-2.93262 -0.601564,-1.23893 -0.902345,-2.54947 -0.902344,-3.93164 m 2.148438,0.0322 c -3e-6,1.8978 0.508457,3.39454 1.525387,4.49024 1.02409,1.08854 2.30599,1.63281 3.84571,1.63281 1.56835,0 2.85741,-0.55143 3.86718,-1.6543 1.01692,-1.10286 1.52538,-2.66763 1.52539,-4.69433 -1e-5,-1.28189 -0.21843,-2.39908 -0.65527,-3.35156 -0.4297,-0.95963 -1.06349,-1.70084 -1.90137,-2.22364 -0.83074,-0.52993 -1.76531,-0.7949 -2.80371,-0.79492 -1.47526,2e-5 -2.74642,0.50848 -3.81347,1.52539 -1.0599,1.00978 -1.58985,2.69988 -1.589847,5.07031"
         id="path3897" />
    </g>
    <g
       id="text3404">
      <path
         d="m 139.08203,270.25195 2.08399,0 0,9.09864 c -2e-5,1.58268 -0.17905,2.83952 -0.53711,3.7705 -0.35809,0.931 -1.0062,1.69011 -1.94434,2.27735 -0.931,0.58008 -2.15561,0.87011 -3.67383,0.87011 -1.47526,0 -2.68197,-0.25423 -3.62012,-0.76269 -0.93815,-0.50846 -1.60775,-1.24251 -2.00878,-2.20215 -0.40105,-0.96679 -0.60157,-2.2845 -0.60157,-3.95312 l 0,-9.09864 2.08399,0 0,9.08789 c -1e-5,1.36785 0.12532,2.37761 0.37597,3.0293 0.25781,0.64453 0.69466,1.14226 1.31055,1.49316 0.62304,0.35092 1.38216,0.52637 2.27734,0.52637 1.53255,0 2.62467,-0.34733 3.27637,-1.04199 0.65168,-0.69466 0.97753,-2.03027 0.97754,-4.00684 l 0,-9.08789"
         id="path3900" />
    </g>
    <g
       id="text3406">
      <path
         d="m 158.78027,286 0,-15.74805 6.98243,0 c 1.40363,2e-5 2.47069,0.14325 3.20117,0.42969 0.73045,0.27931 1.31411,0.77703 1.75097,1.49316 0.43684,0.71616 0.65526,1.5075 0.65528,2.37403 -2e-5,1.1172 -0.36167,2.05893 -1.08496,2.82519 -0.72332,0.76629 -1.84051,1.25327 -3.35157,1.46094 0.55143,0.26498 0.97037,0.52637 1.25684,0.78418 0.60871,0.5586 1.18521,1.25684 1.72949,2.09473 l 2.73926,4.28613 -2.62109,0 -2.08399,-3.27637 c -0.60873,-0.94531 -1.11003,-1.66861 -1.5039,-2.16992 -0.39389,-0.5013 -0.74839,-0.85221 -1.06348,-1.05273 -0.30795,-0.20052 -0.62306,-0.34017 -0.94531,-0.41895 -0.23634,-0.0501 -0.62306,-0.0752 -1.16016,-0.0752 l -2.41699,0 0,6.99316 -2.08399,0 m 2.08399,-8.79785 4.47949,0 c 0.95246,1e-5 1.69726,-0.0967 2.23437,-0.29004 0.5371,-0.20051 0.94531,-0.51562 1.22461,-0.94531 0.27929,-0.43684 0.41894,-0.9095 0.41895,-1.41797 -1e-5,-0.74478 -0.27215,-1.35709 -0.81641,-1.83692 -0.53712,-0.4798 -1.38933,-0.71971 -2.55664,-0.71972 l -4.98437,0 0,5.20996"
         id="path3903" />
    </g>
    <g
       id="text3408">
      <path
         d="m 190.08008,286 0,-15.74805 10.62402,0 0,1.8584 -8.54004,0 0,4.87695 7.39063,0 0,1.8584 -7.39063,0 0,7.1543 -2.08398,0"
         id="path3906" />
    </g>
    <g
       id="text3410">
      <path
         d="m 224.00098,286 0,-15.74805 2.08398,0 0,15.74805 -2.08398,0"
         id="path3909" />
    </g>
    <g
       id="text3412">
      <path
         d="m 253.85059,286 -6.10157,-15.74805 2.25586,0 4.09278,11.44043 c 0.32942,0.91667 0.60513,1.77605 0.82714,2.57813 0.24349,-0.85937 0.52636,-1.71875 0.84864,-2.57813 l 4.2539,-11.44043 2.12696,0 -6.16602,15.74805 -2.13769,0"
         id="path3912" />
    </g>
    <g
       id="text3414">
      <path
         d="m 279.39258,286 0,-15.74805 11.38672,0 0,1.8584 -9.30274,0 0,4.82324 8.71192,0 0,1.84766 -8.71192,0 0,5.36035 9.66797,0 0,1.8584 -11.75195,0"
         id="path3915" />
    </g>
    <g
       id="text3416">
      <path
         d="m 313.97949,286 0,-13.88965 -5.18847,0 0,-1.8584 12.48242,0 0,1.8584 -5.20996,0 0,13.88965 -2.08399,0"
         id="path3918" />
    </g>
    <g
       id="text3418">
      <path
         d="m 339.07031,286 -4.17871,-15.74805 2.1377,0 2.3955,10.32325 c 0.25781,1.08138 0.47982,2.1556 0.66602,3.22265 0.40104,-1.68294 0.63736,-2.65331 0.70898,-2.91113 l 2.99707,-10.63477 2.51368,0 2.25586,7.97071 c 0.56574,1.97656 0.97394,3.83496 1.22461,5.57519 0.2005,-0.99544 0.46189,-2.13769 0.78418,-3.42676 l 2.4707,-10.11914 2.09472,0 -4.31835,15.74805 -2.00879,0 -3.31934,-11.99902 c -0.27931,-1.00259 -0.44402,-1.61848 -0.49414,-1.84766 -0.16472,0.72332 -0.31869,1.33921 -0.46191,1.84766 L 341.19727,286 l -2.12696,0"
         id="path3921" />
    </g>
    <g
       id="text3420">
      <path
         d="m 367.5127,278.33008 c -10e-6,-2.61392 0.70182,-4.65852 2.10546,-6.13379 1.40365,-1.48241 3.21549,-2.22362 5.43555,-2.22363 1.45377,10e-6 2.76431,0.34734 3.93164,1.04199 1.16731,0.69467 2.05533,1.66505 2.66406,2.91113 0.61587,1.23894 0.92382,2.64617 0.92383,4.22168 -10e-6,1.59701 -0.32228,3.02572 -0.96679,4.28613 -0.64455,1.26042 -1.55764,2.21648 -2.73926,2.86817 -1.18165,0.64453 -2.45639,0.96679 -3.82422,0.96679 -1.48243,0 -2.8073,-0.35807 -3.97461,-1.07421 -1.16732,-0.71615 -2.05176,-1.69369 -2.65332,-2.93262 -0.60156,-1.23893 -0.90235,-2.54947 -0.90234,-3.93164 m 2.14843,0.0322 c 0,1.8978 0.50846,3.39454 1.52539,4.49024 1.02409,1.08854 2.30599,1.63281 3.84571,1.63281 1.56835,0 2.85741,-0.55143 3.86718,-1.6543 1.01692,-1.10286 1.52538,-2.66763 1.52539,-4.69433 -1e-5,-1.28189 -0.21843,-2.39908 -0.65527,-3.35156 -0.4297,-0.95963 -1.06349,-1.70084 -1.90137,-2.22364 -0.83074,-0.52993 -1.76531,-0.7949 -2.80371,-0.79492 -1.47526,2e-5 -2.74642,0.50848 -3.81347,1.52539 -1.0599,1.00978 -1.58985,2.69988 -1.58985,5.07031"
         id="path3924" />
    </g>
    <g
       id="text3422">
      <path
         d="m 69.392578,319.33334 0,-15.74804 11.386719,0 0,1.8584 -9.302735,0 0,4.82324 8.711915,0 0,1.84765 -8.711915,0 0,5.36036 9.667969,0 0,1.85839 -11.751953,0"
         id="path3927" />
    </g>
    <g
       id="text3424">
      <path
         d="m 104.00098,319.33334 0,-15.74804 2.08398,0 0,15.74804 -2.08398,0"
         id="path3930" />
    </g>
    <g
       id="text3426">
      <path
         d="m 135.51562,313.15659 0,-1.84766 6.6709,-0.0107 0,5.84375 c -1.0241,0.8164 -2.08041,1.43229 -3.16894,1.84765 -1.08856,0.40821 -2.20574,0.61231 -3.35156,0.61231 -1.54689,0 -2.95411,-0.32943 -4.22168,-0.98828 -1.26042,-0.66602 -2.2129,-1.62565 -2.85743,-2.87891 -0.64453,-1.25325 -0.96679,-2.65331 -0.96679,-4.20019 0,-1.53255 0.31868,-2.96126 0.95605,-4.28614 0.64453,-1.33202 1.56836,-2.3203 2.77149,-2.96484 1.20312,-0.64452 2.58886,-0.96678 4.15722,-0.9668 1.13866,2e-5 2.16633,0.18622 3.08301,0.5586 0.92382,0.36525 1.64712,0.87729 2.16992,1.53613 0.52277,0.65887 0.92023,1.51824 1.19239,2.57812 l -1.87989,0.51563 c -0.23634,-0.80207 -0.52996,-1.43228 -0.88086,-1.89063 -0.35092,-0.45832 -0.85222,-0.82355 -1.5039,-1.0957 -0.65171,-0.27928 -1.37501,-0.41893 -2.16993,-0.41894 -0.95248,1e-5 -1.77604,0.14682 -2.4707,0.44042 -0.69467,0.28648 -1.25684,0.66603 -1.68652,1.13868 -0.42253,0.47267 -0.75196,0.99187 -0.98828,1.55761 -0.40105,0.97397 -0.60157,2.03029 -0.60157,3.16895 0,1.40365 0.23991,2.57813 0.71973,3.52344 0.48698,0.94531 1.19238,1.64713 2.11621,2.10547 0.92382,0.45833 1.90494,0.6875 2.94336,0.6875 0.90234,0 1.78319,-0.17188 2.64258,-0.51563 0.85936,-0.35091 1.51105,-0.7233 1.95508,-1.11719 l 0,-2.93261 -4.62989,0"
         id="path3933" />
    </g>
    <g
       id="text3428">
      <path
         d="m 158.8125,319.33334 0,-15.74804 2.08398,0 0,6.46679 8.18555,0 0,-6.46679 2.08399,0 0,15.74804 -2.08399,0 0,-7.42285 -8.18555,0 0,7.42285 -2.08398,0"
         id="path3936" />
    </g>
    <g
       id="text3430">
      <path
         d="m 193.97949,319.33334 0,-13.88964 -5.18847,0 0,-1.8584 12.48242,0 0,1.8584 -5.20996,0 0,13.88964 -2.08399,0"
         id="path3939" />
    </g>
    <g
       id="text3432">
      <path
         d="m 219.39258,319.33334 0,-15.74804 11.38672,0 0,1.8584 -9.30274,0 0,4.82324 8.71192,0 0,1.84765 -8.71192,0 0,5.36036 9.66797,0 0,1.85839 -11.75195,0"
         id="path3942" />
    </g>
    <g
       id="text3434">
      <path
         d="m 250.48828,319.33334 0,-15.74804 2.08399,0 0,13.88965 7.75585,0 0,1.85839 -9.83984,0"
         id="path3945" />
    </g>
    <g
       id="text3436">
      <path
         d="m 279.39258,319.33334 0,-15.74804 11.38672,0 0,1.8584 -9.30274,0 0,4.82324 8.71192,0 0,1.84765 -8.71192,0 0,5.36036 9.66797,0 0,1.85839 -11.75195,0"
         id="path3948" />
    </g>
    <g
       id="text3438">
      <path
         d="m 313.85059,319.33334 -6.10157,-15.74804 2.25586,0 4.09278,11.44043 c 0.32942,0.91667 0.60513,1.77604 0.82714,2.57812 0.24349,-0.85937 0.52636,-1.71875 0.84864,-2.57812 l 4.2539,-11.44043 2.12696,0 -6.16602,15.74804 -2.13769,0"
         id="path3951" />
    </g>
    <g
       id="text3440">
      <path
         d="m 339.39258,319.33334 0,-15.74804 11.38672,0 0,1.8584 -9.30274,0 0,4.82324 8.71192,0 0,1.84765 -8.71192,0 0,5.36036 9.66797,0 0,1.85839 -11.75195,0"
         id="path3954" />
    </g>
    <g
       id="text3442">
      <path
         d="m 368.72656,319.33334 0,-15.74804 2.1377,0 8.27148,12.36425 0,-12.36425 1.99805,0 0,15.74804 -2.1377,0 -8.27148,-12.375 0,12.375 -1.99805,0"
         id="path3957" />
    </g>
    <g
       id="text3444">
      <path
         d="m 68.640625,347.60709 1.96582,-0.17188 c 0.0931,0.78777 0.30794,1.43588 0.644532,1.94434 0.343746,0.5013 0.873693,0.9095 1.589843,1.22461 0.71614,0.30794 1.521803,0.46191 2.416992,0.46191 0.794914,0 1.496736,-0.11816 2.105469,-0.35449 0.608714,-0.23633 1.059885,-0.55859 1.353516,-0.9668 0.30077,-0.41536 0.45116,-0.86653 0.451172,-1.35351 -1.2e-5,-0.49414 -0.143241,-0.92383 -0.429688,-1.28907 -0.286469,-0.37239 -0.759125,-0.68391 -1.417969,-0.93457 -0.422535,-0.1647 -1.357104,-0.41894 -2.80371,-0.76269 -1.44662,-0.35091 -2.459966,-0.68033 -3.04004,-0.98828 -0.751956,-0.39388 -1.31413,-0.88085 -1.686523,-1.46094 -0.365236,-0.58723 -0.547853,-1.2425 -0.547852,-1.96582 -10e-7,-0.79491 0.225585,-1.53612 0.676758,-2.22363 0.451169,-0.69465 1.110023,-1.22102 1.976563,-1.57911 0.866531,-0.35805 1.829746,-0.53709 2.889648,-0.53711 1.16731,2e-5 2.194978,0.1898 3.083008,0.56934 0.895171,0.37241 1.582671,0.92384 2.0625,1.6543 0.479805,0.73048 0.737617,1.55763 0.773438,2.48144 l -1.998047,0.15039 c -0.107433,-0.99543 -0.472667,-1.74738 -1.095703,-2.25586 -0.615895,-0.50845 -1.52898,-0.76268 -2.739258,-0.76269 -1.260423,1e-5 -2.180669,0.23276 -2.760742,0.69824 -0.572921,0.45835 -0.859379,1.01336 -0.859375,1.66504 -4e-6,0.56577 0.204097,1.03126 0.612304,1.39648 0.401037,0.36525 1.446609,0.74123 3.136719,1.12793 1.697257,0.37957 2.860992,0.71258 3.491211,0.99903 0.916655,0.42253 1.593412,0.95964 2.030273,1.61133 0.436836,0.64453 0.65526,1.38932 0.655274,2.23437 -1.4e-5,0.8379 -0.239922,1.62924 -0.719727,2.37402 -0.47983,0.73764 -1.17091,1.31413 -2.073242,1.7295 -0.895192,0.4082 -1.904957,0.6123 -3.029297,0.6123 -1.425136,0 -2.621099,-0.20768 -3.58789,-0.62305 -0.959639,-0.41536 -1.715172,-1.03841 -2.266602,-1.86914 -0.544272,-0.83788 -0.83073,-1.7832 -0.859375,-2.83593"
         id="path3960" />
    </g>
    <g
       id="text3446">
      <path
         d="m 99.392578,352.66666 0,-15.74805 11.386722,0 0,1.8584 -9.30274,0 0,4.82324 8.71192,0 0,1.84766 -8.71192,0 0,5.36035 9.66797,0 0,1.8584 -11.751952,0"
         id="path3963" />
    </g>
    <g
       id="text3448">
      <path
         d="m 133.85059,352.66666 -6.10157,-15.74805 2.25586,0 4.09278,11.44043 c 0.32942,0.91667 0.60513,1.77604 0.82714,2.57812 0.24349,-0.85937 0.52636,-1.71874 0.84864,-2.57812 l 4.2539,-11.44043 2.12696,0 -6.16602,15.74805 -2.13769,0"
         id="path3966" />
    </g>
    <g
       id="text3450">
      <path
         d="m 159.39258,352.66666 0,-15.74805 11.38672,0 0,1.8584 -9.30274,0 0,4.82324 8.71192,0 0,1.84766 -8.71192,0 0,5.36035 9.66797,0 0,1.8584 -11.75195,0"
         id="path3969" />
    </g>
    <g
       id="text3452">
      <path
         d="m 188.72656,352.66666 0,-15.74805 2.1377,0 8.27148,12.36426 0,-12.36426 1.99805,0 0,15.74805 -2.1377,0 -8.27148,-12.375 0,12.375 -1.99805,0"
         id="path3972" />
    </g>
    <g
       id="text3454">
      <path
         d="m 223.97949,352.66666 0,-13.88965 -5.18847,0 0,-1.8584 12.48242,0 0,1.8584 -5.20996,0 0,13.88965 -2.08399,0"
         id="path3975" />
    </g>
    <g
       id="text3456">
      <path
         d="m 249.07031,352.66666 -4.17871,-15.74805 2.1377,0 2.3955,10.32324 c 0.25781,1.08139 0.47982,2.1556 0.66602,3.22266 0.40104,-1.68294 0.63736,-2.65332 0.70898,-2.91113 l 2.99707,-10.63477 2.51368,0 2.25586,7.9707 c 0.56574,1.97657 0.97394,3.83497 1.22461,5.5752 0.2005,-0.99544 0.46189,-2.13769 0.78418,-3.42676 l 2.4707,-10.11914 2.09472,0 -4.31835,15.74805 -2.00879,0 -3.31934,-11.99903 c -0.27931,-1.00259 -0.44402,-1.61847 -0.49414,-1.84765 -0.16472,0.72332 -0.31869,1.3392 -0.46191,1.84765 l -3.34082,11.99903 -2.12696,0"
         id="path3978" />
    </g>
    <g
       id="text3458">
      <path
         d="m 279.39258,352.66666 0,-15.74805 11.38672,0 0,1.8584 -9.30274,0 0,4.82324 8.71192,0 0,1.84766 -8.71192,0 0,5.36035 9.66797,0 0,1.8584 -11.75195,0"
         id="path3981" />
    </g>
    <g
       id="text3460">
      <path
         d="m 310.48828,352.66666 0,-15.74805 2.08399,0 0,13.88965 7.75585,0 0,1.8584 -9.83984,0"
         id="path3984" />
    </g>
    <g
       id="text3462">
      <path
         d="m 343.85059,352.66666 -6.10157,-15.74805 2.25586,0 4.09278,11.44043 c 0.32942,0.91667 0.60513,1.77604 0.82714,2.57812 0.24349,-0.85937 0.52636,-1.71874 0.84864,-2.57812 l 4.2539,-11.44043 2.12696,0 -6.16602,15.74805 -2.13769,0"
         id="path3987" />
    </g>
    <g
       id="text3464">
      <path
         d="m 369.39258,352.66666 0,-15.74805 11.38672,0 0,1.8584 -9.30274,0 0,4.82324 8.71192,0 0,1.84766 -8.71192,0 0,5.36035 9.66797,0 0,1.8584 -11.75195,0"
         id="path3990" />
    </g>
    <g
       id="text3466">
      <path
         d="m 73.979492,386 0,-13.88965 -5.188476,0 0,-1.8584 12.482421,0 0,1.8584 -5.20996,0 0,13.88965 -2.083985,0"
         id="path3993" />
    </g>
    <g
       id="text3468">
      <path
         d="m 99.392578,386 0,-15.74805 11.386722,0 0,1.8584 -9.30274,0 0,4.82324 8.71192,0 0,1.84766 -8.71192,0 0,5.36035 9.66797,0 0,1.8584 -11.751952,0"
         id="path3996" />
    </g>
    <g
       id="text3470">
      <path
         d="m 128.72656,386 0,-15.74805 2.1377,0 8.27148,12.36426 0,-12.36426 1.99805,0 0,15.74805 -2.1377,0 -8.27148,-12.375 0,12.375 -1.99805,0"
         id="path3999" />
    </g>
    <g
       id="text3472">
      <path
         d="m 158.64062,380.94043 1.96583,-0.17188 c 0.0931,0.78777 0.30793,1.43588 0.64453,1.94434 0.34374,0.50131 0.87369,0.90951 1.58984,1.22461 0.71614,0.30794 1.5218,0.46192 2.41699,0.46191 0.79492,1e-5 1.49674,-0.11816 2.10547,-0.35449 0.60871,-0.23632 1.05989,-0.55859 1.35352,-0.9668 0.30077,-0.41536 0.45116,-0.86653 0.45117,-1.35351 -1e-5,-0.49414 -0.14324,-0.92382 -0.42969,-1.28906 -0.28647,-0.37239 -0.75912,-0.68392 -1.41797,-0.93457 -0.42253,-0.16471 -1.3571,-0.41894 -2.80371,-0.7627 -1.44662,-0.3509 -2.45996,-0.68033 -3.04004,-0.98828 -0.75195,-0.39387 -1.31413,-0.88085 -1.68652,-1.46094 -0.36524,-0.58723 -0.54785,-1.2425 -0.54785,-1.96582 0,-0.79491 0.22558,-1.53612 0.67676,-2.22363 0.45116,-0.69465 1.11002,-1.22101 1.97656,-1.5791 0.86653,-0.35806 1.82974,-0.5371 2.88965,-0.53711 1.16731,10e-6 2.19497,0.18979 3.083,0.56933 0.89518,0.37242 1.58267,0.92385 2.0625,1.6543 0.47981,0.73048 0.73762,1.55763 0.77344,2.48145 l -1.99805,0.15039 c -0.10743,-0.99543 -0.47266,-1.74739 -1.0957,-2.25586 -0.61589,-0.50845 -1.52898,-0.76268 -2.73926,-0.7627 -1.26042,2e-5 -2.18067,0.23276 -2.76074,0.69824 -0.57292,0.45835 -0.85938,1.01336 -0.85937,1.66504 -1e-5,0.56577 0.20409,1.03126 0.6123,1.39649 0.40104,0.36524 1.44661,0.74122 3.13672,1.12793 1.69726,0.37956 2.86099,0.71257 3.49121,0.99902 0.91666,0.42254 1.59341,0.95964 2.03027,1.61133 0.43684,0.64454 0.65526,1.38933 0.65528,2.23437 -2e-5,0.8379 -0.23992,1.62924 -0.71973,2.37403 -0.47983,0.73763 -1.17091,1.31413 -2.07324,1.72949 -0.89519,0.4082 -1.90496,0.6123 -3.0293,0.6123 -1.42513,0 -2.6211,-0.20768 -3.58789,-0.62304 -0.95964,-0.41537 -1.71517,-1.03841 -2.2666,-1.86914 -0.54427,-0.83789 -0.83073,-1.7832 -0.85938,-2.83594"
         id="path4002" />
    </g>
    <g
       id="text3474">
      <path
         d="m 189.39258,386 0,-15.74805 11.38672,0 0,1.8584 -9.30274,0 0,4.82324 8.71192,0 0,1.84766 -8.71192,0 0,5.36035 9.66797,0 0,1.8584 -11.75195,0"
         id="path4005" />
    </g>
    <g
       id="text3476">
      <path
         d="m 217.5127,378.33008 c -1e-5,-2.61392 0.70182,-4.65852 2.10546,-6.13379 1.40365,-1.48241 3.21549,-2.22362 5.43555,-2.22363 1.45377,10e-6 2.76431,0.34734 3.93164,1.04199 1.16731,0.69467 2.05533,1.66505 2.66406,2.91113 0.61587,1.23894 0.92382,2.64617 0.92383,4.22168 -1e-5,1.59701 -0.32228,3.02572 -0.96679,4.28613 -0.64455,1.26042 -1.55764,2.21648 -2.73926,2.86817 -1.18165,0.64453 -2.45639,0.96679 -3.82422,0.96679 -1.48243,0 -2.8073,-0.35807 -3.97461,-1.07421 -1.16732,-0.71615 -2.05176,-1.69369 -2.65332,-2.93262 -0.60156,-1.23893 -0.90235,-2.54947 -0.90234,-3.93164 m 2.14843,0.0322 c 0,1.8978 0.50846,3.39454 1.52539,4.49024 1.02409,1.08854 2.30599,1.63281 3.84571,1.63281 1.56835,0 2.85741,-0.55143 3.86718,-1.6543 1.01692,-1.10286 1.52538,-2.66763 1.52539,-4.69433 -1e-5,-1.28189 -0.21843,-2.39908 -0.65527,-3.35156 -0.4297,-0.95963 -1.06349,-1.70084 -1.90137,-2.22364 -0.83074,-0.52993 -1.76531,-0.7949 -2.80371,-0.79492 -1.47526,2e-5 -2.74642,0.50848 -3.81347,1.52539 -1.0599,1.00978 -1.58985,2.69988 -1.58985,5.07031"
         id="path4008" />
    </g>
    <g
       id="text3478">
      <path
         d="m 259.98437,380.47852 2.08399,0.52636 c -0.43686,1.71159 -1.22462,3.01856 -2.36328,3.9209 -1.13152,0.89518 -2.51726,1.34277 -4.15723,1.34277 -1.69727,0 -3.07943,-0.34375 -4.14648,-1.03125 -1.0599,-0.69466 -1.86915,-1.69726 -2.42774,-3.00781 -0.55143,-1.31054 -0.82715,-2.71776 -0.82715,-4.22168 0,-1.63996 0.31153,-3.06867 0.93457,-4.28613 0.63021,-1.2246 1.52181,-2.152 2.67481,-2.78223 1.16015,-0.63735 2.43489,-0.95604 3.82422,-0.95605 1.57551,10e-6 2.90038,0.40106 3.97461,1.20312 1.0742,0.8021 1.82257,1.93003 2.24511,3.38379 l -2.05175,0.4834 c -0.36525,-1.14582 -0.8952,-1.98013 -1.58985,-2.50293 -0.69467,-0.52277 -1.56837,-0.78416 -2.62109,-0.78418 -1.21029,2e-5 -2.22364,0.29005 -3.04004,0.87012 -0.80925,0.58009 -1.37858,1.36069 -1.70801,2.3418 -0.32943,0.97396 -0.49414,1.98015 -0.49414,3.01855 0,1.3392 0.19336,2.5101 0.58008,3.5127 0.39388,0.99544 1.0026,1.74023 1.82617,2.23437 0.82356,0.49414 1.71516,0.74121 2.67481,0.74121 1.1673,0 2.15559,-0.33659 2.96484,-1.00976 0.80923,-0.67318 1.35708,-1.6722 1.64355,-2.99707"
         id="path4011" />
    </g>
    <g
       id="text3480">
      <path
         d="m 280.48828,386 0,-15.74805 2.08399,0 0,13.88965 7.75585,0 0,1.8584 -9.83984,0"
         id="path4014" />
    </g>
    <g
       id="text3482">
      <path
         d="m 307.5127,378.33008 c -10e-6,-2.61392 0.70182,-4.65852 2.10546,-6.13379 1.40365,-1.48241 3.21549,-2.22362 5.43555,-2.22363 1.45377,10e-6 2.76431,0.34734 3.93164,1.04199 1.16731,0.69467 2.05533,1.66505 2.66406,2.91113 0.61587,1.23894 0.92382,2.64617 0.92383,4.22168 -10e-6,1.59701 -0.32228,3.02572 -0.96679,4.28613 -0.64455,1.26042 -1.55764,2.21648 -2.73926,2.86817 -1.18165,0.64453 -2.45639,0.96679 -3.82422,0.96679 -1.48243,0 -2.8073,-0.35807 -3.97461,-1.07421 -1.16732,-0.71615 -2.05176,-1.69369 -2.65332,-2.93262 -0.60156,-1.23893 -0.90235,-2.54947 -0.90234,-3.93164 m 2.14843,0.0322 c 0,1.8978 0.50846,3.39454 1.52539,4.49024 1.02409,1.08854 2.30599,1.63281 3.84571,1.63281 1.56835,0 2.85741,-0.55143 3.86718,-1.6543 1.01692,-1.10286 1.52538,-2.66763 1.52539,-4.69433 -1e-5,-1.28189 -0.21843,-2.39908 -0.65527,-3.35156 -0.4297,-0.95963 -1.06349,-1.70084 -1.90137,-2.22364 -0.83074,-0.52993 -1.76531,-0.7949 -2.80371,-0.79492 -1.47526,2e-5 -2.74642,0.50848 -3.81347,1.52539 -1.0599,1.00978 -1.58985,2.69988 -1.58985,5.07031"
         id="path4017" />
    </g>
    <g
       id="text3484">
      <path
         d="m 349.98437,380.47852 2.08399,0.52636 c -0.43686,1.71159 -1.22462,3.01856 -2.36328,3.9209 -1.13152,0.89518 -2.51726,1.34277 -4.15723,1.34277 -1.69727,0 -3.07943,-0.34375 -4.14648,-1.03125 -1.0599,-0.69466 -1.86915,-1.69726 -2.42774,-3.00781 -0.55143,-1.31054 -0.82715,-2.71776 -0.82715,-4.22168 0,-1.63996 0.31153,-3.06867 0.93457,-4.28613 0.63021,-1.2246 1.52181,-2.152 2.67481,-2.78223 1.16015,-0.63735 2.43489,-0.95604 3.82422,-0.95605 1.57551,10e-6 2.90038,0.40106 3.97461,1.20312 1.0742,0.8021 1.82257,1.93003 2.24511,3.38379 l -2.05175,0.4834 c -0.36525,-1.14582 -0.8952,-1.98013 -1.58985,-2.50293 -0.69467,-0.52277 -1.56837,-0.78416 -2.62109,-0.78418 -1.21029,2e-5 -2.22364,0.29005 -3.04004,0.87012 -0.80925,0.58009 -1.37858,1.36069 -1.70801,2.3418 -0.32943,0.97396 -0.49414,1.98015 -0.49414,3.01855 0,1.3392 0.19336,2.5101 0.58008,3.5127 0.39388,0.99544 1.0026,1.74023 1.82617,2.23437 0.82356,0.49414 1.71516,0.74121 2.67481,0.74121 1.1673,0 2.15559,-0.33659 2.96484,-1.00976 0.80923,-0.67318 1.35708,-1.6722 1.64355,-2.99707"
         id="path4020" />
    </g>
    <g
       id="text3486">
      <path
         d="m 369.26367,386 0,-15.74805 2.08399,0 0,7.80957 7.82031,-7.80957 2.82519,0 -6.60644,6.38086 6.89648,9.36719 -2.75,0 -5.60742,-7.9707 -2.57812,2.51367 0,5.45703 -2.08399,0"
         id="path4023" />
    </g>
    <path
       d="m 22.5,20 c 0,1.380712 -1.119288,2.5 -2.5,2.5 -1.380712,0 -2.5,-1.119288 -2.5,-2.5 0,-1.380712 1.119288,-2.5 2.5,-2.5 1.380712,0 2.5,1.119288 2.5,2.5 z"
       id="circle3488" />
    <path
       d="m 432.5,20 c 0,1.380712 -1.11929,2.5 -2.5,2.5 -1.38071,0 -2.5,-1.119288 -2.5,-2.5 0,-1.380712 1.11929,-2.5 2.5,-2.5 1.38071,0 2.5,1.119288 2.5,2.5 z"
       id="circle3490" />
    <path
       d="m 22.5,430 c 0,1.38071 -1.119288,2.5 -2.5,2.5 -1.380712,0 -2.5,-1.11929 -2.5,-2.5 0,-1.38071 1.119288,-2.5 2.5,-2.5 1.380712,0 2.5,1.11929 2.5,2.5 z"
       id="circle3492" />
    <path
       d="m 432.5,430 c 0,1.38071 -1.11929,2.5 -2.5,2.5 -1.38071,0 -2.5,-1.11929 -2.5,-2.5 0,-1.38071 1.11929,-2.5 2.5,-2.5 1.38071,0 2.5,1.11929 2.5,2.5 z"
       id="circle3494" />
  </g>
</svg>
